{"glyphs":{"0":{"ha":4188,"x_min":0,"x_max":0,"o":"m 1386 867 l 1419 867 l 1419 956 l 1440 956 b 1515 1044 1500 956 1515 994 b 1440 1132 1515 1093 1500 1132 l 1386 1132 z m 1538 867 l 1642 867 l 1642 900 l 1571 900 l 1571 988 l 1629 988 l 1629 1019 l 1571 1019 l 1571 1099 l 1639 1099 l 1639 1132 l 1538 1132 z m 2529 581 l 2567 581 l 2567 619 l 2529 619 z m 2414 581 l 2453 581 l 2453 663 l 2510 846 l 2474 846 l 2435 704 l 2393 846 l 2357 846 l 2414 663 z m 2142 867 l 2175 867 l 2175 1035 l 2236 867 l 2272 867 l 2272 1132 l 2240 1132 l 2240 951 l 2175 1132 l 2142 1132 z m 2540 636 l 2553 636 l 2567 846 l 2529 846 z m 2290 867 l 2325 867 l 2338 929 l 2393 929 l 2404 867 l 2440 867 l 2383 1132 l 2349 1132 z m 2344 956 l 2367 1076 l 2388 956 z m 2461 867 l 2567 867 l 2567 900 l 2493 900 l 2493 1132 l 2461 1132 z m 1429 988 l 1419 988 l 1419 1100 l 1429 1100 b 1483 1044 1469 1100 1483 1086 b 1429 988 1483 1001 1469 988 z m 1665 867 l 1699 867 l 1699 976 l 1725 976 l 1760 867 l 1796 867 l 1757 985 b 1794 1056 1782 996 1794 1019 b 1719 1132 1794 1103 1768 1132 l 1665 1132 z m 1708 1008 l 1699 1008 l 1699 1100 l 1708 1100 b 1763 1056 1749 1100 1763 1086 b 1708 1008 1763 1024 1749 1008 z m 1918 1056 l 1951 1056 b 1883 1132 1951 1103 1925 1132 b 1817 1067 1843 1132 1817 1103 b 1878 993 1817 1029 1838 1010 b 1918 935 1911 976 1918 961 b 1883 900 1918 914 1908 900 b 1850 944 1863 900 1850 914 l 1817 944 b 1883 867 1817 896 1843 867 b 1951 935 1925 867 1951 896 b 1883 1025 1951 978 1939 1001 b 1850 1067 1865 1033 1850 1047 b 1883 1099 1850 1085 1863 1099 b 1918 1056 1908 1099 1918 1086 z m 2083 1063 l 2083 936 b 2046 899 2083 914 2069 899 b 2008 936 2021 899 2008 914 l 2008 1063 b 2046 1100 2008 1086 2021 1100 b 2083 1063 2069 1100 2083 1086 z m 1975 1063 l 1975 936 b 2046 867 1975 896 2001 867 b 2115 936 2089 867 2115 896 l 2115 1063 b 2046 1132 2115 1103 2089 1132 b 1975 1063 2001 1132 1975 1103 z m 1651 768 l 1683 768 b 1617 846 1683 817 1657 846 b 1550 781 1576 846 1550 817 b 1611 704 1550 742 1571 724 b 1651 647 1644 689 1651 675 b 1617 614 1651 626 1642 614 b 1583 657 1596 614 1583 626 l 1550 657 b 1617 581 1550 608 1576 581 b 1683 647 1657 581 1683 608 b 1617 739 1683 692 1672 714 b 1583 779 1599 746 1583 761 b 1617 813 1583 799 1596 813 b 1651 768 1642 813 1651 799 z m 1710 581 l 1815 581 l 1815 614 l 1743 614 l 1743 700 l 1801 700 l 1801 733 l 1743 733 l 1743 813 l 1811 813 l 1811 846 l 1710 846 z m 2107 581 l 2140 581 l 2140 747 l 2201 581 l 2238 581 l 2238 846 l 2204 846 l 2204 665 l 2140 846 l 2107 846 z m 2274 581 l 2379 581 l 2379 614 l 2307 614 l 2307 846 l 2274 846 z m 2039 776 l 2039 650 b 2001 613 2039 626 2025 613 b 1964 650 1978 613 1964 626 l 1964 776 b 2001 814 1964 799 1978 814 b 2039 776 2025 814 2039 799 z m 1931 776 l 1931 650 b 2001 581 1931 608 1957 581 b 2072 650 2046 581 2072 608 l 2072 776 b 2001 846 2072 817 2046 846 b 1931 776 1957 846 1931 817 z m 1526 650 l 1526 846 l 1494 846 l 1494 650 b 1457 613 1494 626 1481 613 b 1419 650 1432 613 1419 626 l 1419 846 l 1386 846 l 1386 650 b 1457 581 1386 608 1413 581 b 1526 650 1500 581 1526 608 z m 1386 410 l 1410 410 l 1410 468 l 1446 468 b 1496 514 1486 468 1496 494 b 1446 558 1496 532 1486 558 l 1386 558 z m 1725 410 l 1747 410 l 1763 451 l 1810 451 l 1825 410 l 1849 410 l 1799 558 l 1775 558 z m 1768 469 l 1788 531 l 1806 469 z m 1511 410 l 1604 410 l 1604 431 l 1533 431 l 1533 558 l 1511 558 z m 1438 490 l 1410 490 l 1410 536 l 1438 536 b 1474 514 1465 536 1474 528 b 1438 490 1474 500 1465 490 z m 1946 514 l 1968 514 b 1913 558 1968 539 1951 558 b 1857 519 1874 558 1857 540 b 1908 478 1857 493 1881 483 b 1946 454 1928 474 1946 469 b 1913 431 1946 442 1938 431 b 1878 454 1888 431 1878 440 l 1857 454 b 1913 410 1857 429 1874 410 b 1968 457 1949 410 1968 429 b 1915 500 1968 488 1940 494 b 1878 519 1894 504 1878 508 b 1913 536 1878 529 1888 536 b 1946 514 1938 536 1946 528 z m 1621 410 l 1714 410 l 1714 431 l 1643 431 l 1643 475 l 1704 475 l 1704 499 l 1643 499 l 1643 536 l 1711 536 l 1711 558 l 1621 558 z m 2235 558 l 2194 443 l 2158 558 l 2133 558 l 2183 410 l 2207 410 l 2257 558 z m 2269 410 l 2292 410 l 2292 558 l 2269 558 z m 2575 558 l 2476 558 l 2476 536 l 2514 536 l 2514 410 l 2536 410 l 2536 536 l 2575 536 z m 2436 410 l 2460 410 l 2460 558 l 2436 558 z m 1989 410 l 2083 410 l 2083 431 l 2013 431 l 2013 475 l 2074 475 l 2074 499 l 2013 499 l 2013 536 l 2081 536 l 2081 558 l 1989 558 z m 1474 -221 l 1499 -221 l 1499 -179 l 1522 -179 l 1543 -221 l 1569 -221 l 1543 -174 b 1568 -128 1560 -165 1568 -149 b 1513 -78 1568 -100 1549 -78 l 1474 -78 z m 1506 -156 l 1499 -156 l 1499 -101 l 1506 -101 b 1544 -128 1535 -101 1544 -111 b 1506 -156 1544 -146 1535 -156 z m 1269 -221 l 1294 -221 l 1294 -172 l 1338 -172 l 1338 -149 l 1294 -149 l 1294 -103 l 1344 -103 l 1344 -78 l 1269 -78 z m 1432 -128 l 1432 -169 b 1406 -196 1432 -186 1424 -196 b 1378 -169 1389 -196 1378 -186 l 1378 -128 b 1406 -101 1378 -111 1389 -101 b 1432 -128 1424 -101 1432 -111 z m 1354 -128 l 1354 -169 b 1406 -221 1354 -199 1374 -221 b 1457 -169 1438 -221 1457 -199 l 1457 -128 b 1406 -78 1457 -100 1438 -78 b 1354 -128 1374 -78 1354 -100 z m 1646 -221 l 1668 -221 l 1668 -103 l 1703 -103 l 1703 -78 l 1613 -78 l 1613 -103 l 1646 -103 z m 1715 -221 l 1738 -221 l 1738 -164 l 1786 -164 l 1786 -221 l 1810 -221 l 1810 -78 l 1786 -78 l 1786 -140 l 1738 -140 l 1738 -78 l 1715 -78 z m 1831 -221 l 1904 -221 l 1904 -196 l 1853 -196 l 1853 -164 l 1896 -164 l 1896 -140 l 1853 -140 l 1853 -103 l 1904 -103 l 1904 -78 l 1831 -78 z m 1968 -221 l 1990 -221 l 1990 -172 l 2033 -172 l 2033 -149 l 1990 -149 l 1990 -103 l 2042 -103 l 2042 -78 l 1968 -78 z m 2160 -169 l 2160 -78 l 2136 -78 l 2136 -169 b 2108 -196 2136 -186 2125 -196 b 2081 -169 2090 -196 2081 -186 l 2081 -78 l 2057 -78 l 2057 -169 b 2108 -221 2057 -199 2075 -221 b 2160 -169 2140 -221 2160 -199 z m 2178 -221 l 2256 -221 l 2256 -196 l 2203 -196 l 2203 -78 l 2178 -78 z m 2264 -221 l 2342 -221 l 2342 -196 l 2288 -196 l 2288 -78 l 2264 -78 z m 2376 -221 l 2400 -221 l 2411 -185 l 2450 -185 l 2460 -221 l 2486 -221 l 2442 -78 l 2419 -78 z m 2417 -165 l 2431 -118 l 2446 -165 z m 2494 -221 l 2519 -221 l 2519 -131 l 2563 -221 l 2589 -221 l 2589 -78 l 2567 -78 l 2567 -174 l 2519 -78 l 2494 -78 z m 2688 -137 l 2688 -158 b 2656 -196 2688 -178 2678 -196 l 2633 -196 l 2633 -101 l 2656 -101 b 2688 -137 2678 -101 2688 -119 z m 2608 -221 l 2656 -221 b 2711 -158 2693 -221 2711 -190 l 2711 -137 b 2656 -78 2711 -106 2693 -78 l 2608 -78 z m 1279 -294 l 1279 -335 b 1253 -362 1279 -351 1269 -362 b 1225 -335 1235 -362 1225 -351 l 1225 -294 b 1253 -267 1225 -276 1235 -267 b 1279 -294 1269 -267 1279 -276 z m 1200 -294 l 1200 -335 b 1253 -385 1200 -364 1221 -385 b 1304 -335 1285 -385 1304 -364 l 1304 -294 b 1253 -243 1304 -264 1285 -243 b 1200 -294 1221 -243 1200 -264 z m 1163 -294 l 1185 -294 b 1135 -243 1185 -264 1167 -243 b 1083 -294 1103 -243 1083 -264 l 1083 -335 b 1135 -385 1083 -364 1103 -385 b 1185 -335 1167 -385 1185 -364 l 1163 -335 b 1135 -362 1163 -351 1153 -362 b 1107 -335 1117 -362 1107 -351 l 1107 -294 b 1135 -267 1107 -276 1117 -267 b 1163 -294 1153 -267 1163 -276 z m 1321 -385 l 1343 -385 l 1343 -300 l 1374 -353 l 1381 -353 l 1410 -300 l 1410 -385 l 1435 -385 l 1435 -243 l 1419 -243 l 1378 -311 l 1336 -243 l 1321 -243 z m 1457 -385 l 1479 -385 l 1479 -300 l 1510 -353 l 1517 -353 l 1547 -300 l 1547 -385 l 1571 -385 l 1571 -243 l 1556 -243 l 1513 -311 l 1472 -243 l 1457 -243 z m 1589 -385 l 1665 -385 l 1665 -361 l 1613 -361 l 1613 -331 l 1656 -331 l 1656 -306 l 1613 -306 l 1613 -268 l 1663 -268 l 1663 -243 l 1589 -243 z m 1683 -385 l 1708 -385 l 1708 -344 l 1722 -344 l 1732 -343 l 1751 -385 l 1779 -385 l 1751 -339 b 1778 -294 1768 -331 1778 -315 b 1722 -243 1778 -264 1758 -243 l 1683 -243 z m 1715 -322 l 1708 -322 l 1708 -267 l 1715 -267 b 1754 -294 1744 -267 1754 -276 b 1715 -322 1754 -311 1744 -322 z m 1872 -294 l 1896 -294 b 1844 -243 1896 -264 1876 -243 b 1794 -294 1813 -243 1794 -264 l 1794 -335 b 1844 -385 1794 -364 1813 -385 b 1896 -335 1876 -385 1896 -364 l 1872 -335 b 1844 -362 1872 -351 1863 -362 b 1818 -335 1826 -362 1818 -351 l 1818 -294 b 1844 -267 1818 -276 1826 -267 b 1872 -294 1863 -267 1872 -276 z m 1915 -385 l 1939 -385 l 1939 -243 l 1915 -243 z m 1953 -385 l 1978 -385 l 1989 -351 l 2025 -351 l 2036 -385 l 2063 -385 l 2019 -243 l 1997 -243 z m 1993 -331 l 2007 -285 l 2022 -331 z m 2075 -385 l 2151 -385 l 2151 -361 l 2099 -361 l 2099 -243 l 2075 -243 z m 2299 -243 l 2275 -243 l 2246 -344 l 2217 -243 l 2190 -243 l 2233 -385 l 2257 -385 z m 2313 -385 l 2388 -385 l 2388 -361 l 2335 -361 l 2335 -331 l 2378 -331 l 2378 -306 l 2335 -306 l 2335 -268 l 2385 -268 l 2385 -243 l 2313 -243 z m 2408 -385 l 2432 -385 l 2432 -344 l 2447 -344 l 2456 -343 l 2478 -385 l 2504 -385 l 2478 -339 b 2503 -294 2493 -331 2503 -315 b 2447 -243 2503 -264 2483 -243 l 2408 -243 z m 2439 -322 l 2432 -322 l 2432 -267 l 2439 -267 b 2478 -294 2469 -267 2478 -276 b 2439 -322 2478 -311 2469 -322 z m 2585 -286 l 2608 -286 b 2563 -243 2608 -262 2593 -243 b 2517 -279 2532 -243 2517 -260 b 2561 -324 2517 -300 2526 -315 b 2585 -347 2581 -328 2585 -337 b 2563 -361 2585 -356 2578 -361 b 2540 -342 2547 -361 2540 -356 l 2517 -342 b 2563 -385 2517 -367 2532 -385 b 2608 -347 2593 -385 2608 -367 b 2565 -301 2608 -326 2601 -311 b 2540 -279 2546 -294 2540 -290 b 2563 -268 2540 -274 2547 -268 b 2585 -286 2578 -268 2585 -274 z m 2624 -385 l 2647 -385 l 2647 -243 l 2624 -243 z m 2743 -294 l 2743 -335 b 2715 -362 2743 -351 2733 -362 b 2688 -335 2699 -362 2688 -351 l 2688 -294 b 2715 -267 2688 -276 2699 -267 b 2743 -294 2733 -267 2743 -276 z m 2664 -294 l 2664 -335 b 2715 -385 2664 -364 2683 -385 b 2767 -335 2747 -385 2767 -364 l 2767 -294 b 2715 -243 2767 -264 2747 -243 b 2664 -294 2683 -243 2664 -264 z m 2782 -385 l 2807 -385 l 2807 -294 l 2850 -385 l 2878 -385 l 2878 -243 l 2854 -243 l 2854 -340 l 2807 -243 l 2782 -243 z m 2399 514 l 2419 514 b 2364 558 2419 539 2403 558 b 2308 519 2325 558 2308 540 b 2360 478 2308 493 2332 483 b 2399 454 2379 474 2399 469 b 2364 431 2399 442 2389 431 b 2331 454 2339 431 2331 440 l 2308 454 b 2364 410 2308 429 2325 410 b 2419 457 2400 410 2419 429 b 2367 500 2419 488 2392 494 b 2331 519 2346 504 2331 508 b 2364 536 2331 529 2339 536 b 2399 514 2389 536 2399 528 z m 471 -32 l 532 -32 l 536 133 l 569 -32 l 617 -32 l 646 138 l 653 -32 l 710 -32 l 708 376 l 639 376 l 592 119 l 543 376 l 476 376 z m 763 -32 l 828 -32 l 828 168 l 899 -32 l 949 -32 l 949 376 l 885 376 l 885 181 l 815 376 l 763 376 z m 994 -32 l 1064 -32 l 1064 42 l 994 42 z m 1204 -37 b 1276 46 1251 -31 1272 10 b 1228 181 1281 99 1265 143 b 1157 265 1203 208 1169 231 b 1186 318 1151 281 1154 321 b 1211 239 1213 315 1211 272 l 1274 243 b 1221 372 1274 292 1269 350 b 1093 292 1164 400 1096 361 b 1149 164 1093 254 1100 224 b 1211 63 1171 138 1211 106 b 1194 29 1211 46 1207 32 b 1154 115 1167 17 1154 56 l 1089 111 b 1107 11 1089 76 1094 42 b 1204 -37 1124 -26 1165 -42 z m 1453 -19 l 1454 -32 l 1508 -32 l 1508 181 l 1403 181 l 1403 119 l 1443 119 b 1403 29 1443 99 1451 13 b 1379 115 1371 40 1379 93 l 1379 263 b 1417 318 1379 293 1385 322 b 1439 232 1435 310 1439 303 l 1504 232 b 1460 368 1504 276 1508 339 b 1369 376 1435 383 1399 383 b 1310 292 1333 361 1315 325 b 1308 174 1304 254 1308 213 b 1310 60 1308 133 1304 99 b 1351 -24 1314 29 1324 -8 b 1453 -19 1381 -40 1426 -42 z m 1531 -49 l 1569 -49 l 1686 393 l 1639 393 z m 1708 -35 l 1864 -35 l 1864 35 l 1779 35 l 1779 374 l 1708 374 z m 1874 -35 l 1943 -35 l 1957 63 l 2000 63 l 2014 -35 l 2082 -35 l 2013 374 l 1947 374 z m 1967 121 l 1978 203 l 1989 121 z m 2172 -39 b 2219 -32 2188 -42 2207 -39 b 2274 99 2267 -10 2274 49 l 2208 103 b 2182 24 2208 76 2213 29 b 2157 49 2171 22 2157 29 l 2157 289 b 2182 315 2157 310 2171 318 b 2208 238 2213 310 2208 264 l 2274 240 b 2219 369 2274 289 2267 349 b 2172 378 2207 378 2188 381 b 2090 292 2132 374 2090 343 l 2090 47 b 2172 -39 2090 -3 2132 -35 z m 2308 -35 l 2379 -35 l 2379 138 l 2440 138 l 2440 -35 l 2507 -35 l 2507 374 l 2440 374 l 2440 210 l 2379 210 l 2379 374 l 2308 374 z m 2542 -35 l 2700 -35 l 2700 35 l 2608 35 l 2608 143 l 2682 143 l 2682 215 l 2608 215 l 2608 304 l 2700 304 l 2700 374 l 2542 374 z m 2775 -35 l 2842 -35 l 2842 129 l 2911 374 l 2840 374 l 2811 210 l 2782 374 l 2713 374 l 2775 140 z m 2869 -35 l 2939 -35 l 2953 63 l 2997 63 l 3011 -35 l 3078 -35 l 3008 374 l 2944 374 z m 2964 121 l 2974 203 l 2986 121 z m 3096 -35 l 3163 -35 l 3163 143 l 3182 143 l 3217 -35 l 3285 -35 l 3240 154 b 3289 268 3276 181 3289 229 b 3214 374 3289 343 3244 374 l 3096 374 z m 3199 201 l 3163 201 l 3163 315 l 3185 315 b 3199 201 3225 315 3222 213 z m 3324 -35 l 3397 -35 b 3503 93 3471 -35 3503 4 l 3503 246 b 3388 374 3503 331 3471 374 l 3324 374 z m 3411 29 l 3388 29 l 3388 304 l 3411 304 b 3431 279 3422 304 3431 289 b 3433 222 3433 264 3433 240 l 3433 113 b 3431 51 3433 92 3433 71 b 3411 29 3431 42 3422 35 z "},"1":{"ha":4188,"x_min":0,"x_max":0,"o":"m 1386 867 l 1419 867 l 1419 956 l 1440 956 b 1515 1044 1500 956 1515 994 b 1440 1132 1515 1093 1500 1132 l 1386 1132 z m 1538 867 l 1642 867 l 1642 900 l 1571 900 l 1571 988 l 1629 988 l 1629 1019 l 1571 1019 l 1571 1099 l 1639 1099 l 1639 1132 l 1538 1132 z m 2529 581 l 2567 581 l 2567 619 l 2529 619 z m 2414 581 l 2453 581 l 2453 663 l 2510 846 l 2474 846 l 2435 704 l 2393 846 l 2357 846 l 2414 663 z m 2142 867 l 2175 867 l 2175 1035 l 2236 867 l 2272 867 l 2272 1132 l 2240 1132 l 2240 951 l 2175 1132 l 2142 1132 z m 2540 636 l 2553 636 l 2567 846 l 2529 846 z m 2290 867 l 2325 867 l 2338 929 l 2393 929 l 2404 867 l 2440 867 l 2383 1132 l 2349 1132 z m 2344 956 l 2367 1076 l 2388 956 z m 2461 867 l 2567 867 l 2567 900 l 2493 900 l 2493 1132 l 2461 1132 z m 1429 988 l 1419 988 l 1419 1100 l 1429 1100 b 1483 1044 1469 1100 1483 1086 b 1429 988 1483 1001 1469 988 z m 1665 867 l 1699 867 l 1699 976 l 1725 976 l 1760 867 l 1796 867 l 1757 985 b 1794 1056 1782 996 1794 1019 b 1719 1132 1794 1103 1768 1132 l 1665 1132 z m 1708 1008 l 1699 1008 l 1699 1100 l 1708 1100 b 1763 1056 1749 1100 1763 1086 b 1708 1008 1763 1024 1749 1008 z m 1918 1056 l 1951 1056 b 1883 1132 1951 1103 1925 1132 b 1817 1067 1843 1132 1817 1103 b 1878 993 1817 1029 1838 1010 b 1918 935 1911 976 1918 961 b 1883 900 1918 914 1908 900 b 1850 944 1863 900 1850 914 l 1817 944 b 1883 867 1817 896 1843 867 b 1951 935 1925 867 1951 896 b 1883 1025 1951 978 1939 1001 b 1850 1067 1865 1033 1850 1047 b 1883 1099 1850 1085 1863 1099 b 1918 1056 1908 1099 1918 1086 z m 2083 1063 l 2083 936 b 2046 899 2083 914 2069 899 b 2008 936 2021 899 2008 914 l 2008 1063 b 2046 1100 2008 1086 2021 1100 b 2083 1063 2069 1100 2083 1086 z m 1975 1063 l 1975 936 b 2046 867 1975 896 2001 867 b 2115 936 2089 867 2115 896 l 2115 1063 b 2046 1132 2115 1103 2089 1132 b 1975 1063 2001 1132 1975 1103 z m 1651 768 l 1683 768 b 1617 846 1683 817 1657 846 b 1550 781 1576 846 1550 817 b 1611 704 1550 742 1571 724 b 1651 647 1644 689 1651 675 b 1617 614 1651 626 1642 614 b 1583 657 1596 614 1583 626 l 1550 657 b 1617 581 1550 608 1576 581 b 1683 647 1657 581 1683 608 b 1617 739 1683 692 1672 714 b 1583 779 1599 746 1583 761 b 1617 813 1583 799 1596 813 b 1651 768 1642 813 1651 799 z m 1710 581 l 1815 581 l 1815 614 l 1743 614 l 1743 700 l 1801 700 l 1801 733 l 1743 733 l 1743 813 l 1811 813 l 1811 846 l 1710 846 z m 2107 581 l 2140 581 l 2140 747 l 2201 581 l 2238 581 l 2238 846 l 2204 846 l 2204 665 l 2140 846 l 2107 846 z m 2274 581 l 2379 581 l 2379 614 l 2307 614 l 2307 846 l 2274 846 z m 2039 776 l 2039 650 b 2001 613 2039 626 2025 613 b 1964 650 1978 613 1964 626 l 1964 776 b 2001 814 1964 799 1978 814 b 2039 776 2025 814 2039 799 z m 1931 776 l 1931 650 b 2001 581 1931 608 1957 581 b 2072 650 2046 581 2072 608 l 2072 776 b 2001 846 2072 817 2046 846 b 1931 776 1957 846 1931 817 z m 1526 650 l 1526 846 l 1494 846 l 1494 650 b 1457 613 1494 626 1481 613 b 1419 650 1432 613 1419 626 l 1419 846 l 1386 846 l 1386 650 b 1457 581 1386 608 1413 581 b 1526 650 1500 581 1526 608 z m 1386 410 l 1410 410 l 1410 468 l 1446 468 b 1496 514 1486 468 1496 494 b 1446 558 1496 532 1486 558 l 1386 558 z m 1725 410 l 1747 410 l 1763 451 l 1810 451 l 1825 410 l 1849 410 l 1799 558 l 1775 558 z m 1768 469 l 1788 531 l 1806 469 z m 1511 410 l 1604 410 l 1604 431 l 1533 431 l 1533 558 l 1511 558 z m 1438 490 l 1410 490 l 1410 536 l 1438 536 b 1474 514 1465 536 1474 528 b 1438 490 1474 500 1465 490 z m 1946 514 l 1968 514 b 1913 558 1968 539 1951 558 b 1857 519 1874 558 1857 540 b 1908 478 1857 493 1881 483 b 1946 454 1928 474 1946 469 b 1913 431 1946 442 1938 431 b 1878 454 1888 431 1878 440 l 1857 454 b 1913 410 1857 429 1874 410 b 1968 457 1949 410 1968 429 b 1915 500 1968 488 1940 494 b 1878 519 1894 504 1878 508 b 1913 536 1878 529 1888 536 b 1946 514 1938 536 1946 528 z m 1621 410 l 1714 410 l 1714 431 l 1643 431 l 1643 475 l 1704 475 l 1704 499 l 1643 499 l 1643 536 l 1711 536 l 1711 558 l 1621 558 z m 2235 558 l 2194 443 l 2158 558 l 2133 558 l 2183 410 l 2207 410 l 2257 558 z m 2269 410 l 2292 410 l 2292 558 l 2269 558 z m 2575 558 l 2476 558 l 2476 536 l 2514 536 l 2514 410 l 2536 410 l 2536 536 l 2575 536 z m 2436 410 l 2460 410 l 2460 558 l 2436 558 z m 1989 410 l 2083 410 l 2083 431 l 2013 431 l 2013 475 l 2074 475 l 2074 499 l 2013 499 l 2013 536 l 2081 536 l 2081 558 l 1989 558 z m 1474 -221 l 1499 -221 l 1499 -179 l 1522 -179 l 1543 -221 l 1569 -221 l 1543 -174 b 1568 -128 1560 -165 1568 -149 b 1513 -78 1568 -100 1549 -78 l 1474 -78 z m 1506 -156 l 1499 -156 l 1499 -101 l 1506 -101 b 1544 -128 1535 -101 1544 -111 b 1506 -156 1544 -146 1535 -156 z m 1269 -221 l 1294 -221 l 1294 -172 l 1338 -172 l 1338 -149 l 1294 -149 l 1294 -103 l 1344 -103 l 1344 -78 l 1269 -78 z m 1432 -128 l 1432 -169 b 1406 -196 1432 -186 1424 -196 b 1378 -169 1389 -196 1378 -186 l 1378 -128 b 1406 -101 1378 -111 1389 -101 b 1432 -128 1424 -101 1432 -111 z m 1354 -128 l 1354 -169 b 1406 -221 1354 -199 1374 -221 b 1457 -169 1438 -221 1457 -199 l 1457 -128 b 1406 -78 1457 -100 1438 -78 b 1354 -128 1374 -78 1354 -100 z m 1646 -221 l 1668 -221 l 1668 -103 l 1703 -103 l 1703 -78 l 1613 -78 l 1613 -103 l 1646 -103 z m 1715 -221 l 1738 -221 l 1738 -164 l 1786 -164 l 1786 -221 l 1810 -221 l 1810 -78 l 1786 -78 l 1786 -140 l 1738 -140 l 1738 -78 l 1715 -78 z m 1831 -221 l 1904 -221 l 1904 -196 l 1853 -196 l 1853 -164 l 1896 -164 l 1896 -140 l 1853 -140 l 1853 -103 l 1904 -103 l 1904 -78 l 1831 -78 z m 1968 -221 l 1990 -221 l 1990 -172 l 2033 -172 l 2033 -149 l 1990 -149 l 1990 -103 l 2042 -103 l 2042 -78 l 1968 -78 z m 2160 -169 l 2160 -78 l 2136 -78 l 2136 -169 b 2108 -196 2136 -186 2125 -196 b 2081 -169 2090 -196 2081 -186 l 2081 -78 l 2057 -78 l 2057 -169 b 2108 -221 2057 -199 2075 -221 b 2160 -169 2140 -221 2160 -199 z m 2178 -221 l 2256 -221 l 2256 -196 l 2203 -196 l 2203 -78 l 2178 -78 z m 2264 -221 l 2342 -221 l 2342 -196 l 2288 -196 l 2288 -78 l 2264 -78 z m 2376 -221 l 2400 -221 l 2411 -185 l 2450 -185 l 2460 -221 l 2486 -221 l 2442 -78 l 2419 -78 z m 2417 -165 l 2431 -118 l 2446 -165 z m 2494 -221 l 2519 -221 l 2519 -131 l 2563 -221 l 2589 -221 l 2589 -78 l 2567 -78 l 2567 -174 l 2519 -78 l 2494 -78 z m 2688 -137 l 2688 -158 b 2656 -196 2688 -178 2678 -196 l 2633 -196 l 2633 -101 l 2656 -101 b 2688 -137 2678 -101 2688 -119 z m 2608 -221 l 2656 -221 b 2711 -158 2693 -221 2711 -190 l 2711 -137 b 2656 -78 2711 -106 2693 -78 l 2608 -78 z m 1279 -294 l 1279 -335 b 1253 -362 1279 -351 1269 -362 b 1225 -335 1235 -362 1225 -351 l 1225 -294 b 1253 -267 1225 -276 1235 -267 b 1279 -294 1269 -267 1279 -276 z m 1200 -294 l 1200 -335 b 1253 -385 1200 -364 1221 -385 b 1304 -335 1285 -385 1304 -364 l 1304 -294 b 1253 -243 1304 -264 1285 -243 b 1200 -294 1221 -243 1200 -264 z m 1163 -294 l 1185 -294 b 1135 -243 1185 -264 1167 -243 b 1083 -294 1103 -243 1083 -264 l 1083 -335 b 1135 -385 1083 -364 1103 -385 b 1185 -335 1167 -385 1185 -364 l 1163 -335 b 1135 -362 1163 -351 1153 -362 b 1107 -335 1117 -362 1107 -351 l 1107 -294 b 1135 -267 1107 -276 1117 -267 b 1163 -294 1153 -267 1163 -276 z m 1321 -385 l 1343 -385 l 1343 -300 l 1374 -353 l 1381 -353 l 1410 -300 l 1410 -385 l 1435 -385 l 1435 -243 l 1419 -243 l 1378 -311 l 1336 -243 l 1321 -243 z m 1457 -385 l 1479 -385 l 1479 -300 l 1510 -353 l 1517 -353 l 1547 -300 l 1547 -385 l 1571 -385 l 1571 -243 l 1556 -243 l 1513 -311 l 1472 -243 l 1457 -243 z m 1589 -385 l 1665 -385 l 1665 -361 l 1613 -361 l 1613 -331 l 1656 -331 l 1656 -306 l 1613 -306 l 1613 -268 l 1663 -268 l 1663 -243 l 1589 -243 z m 1683 -385 l 1708 -385 l 1708 -344 l 1722 -344 l 1732 -343 l 1751 -385 l 1779 -385 l 1751 -339 b 1778 -294 1768 -331 1778 -315 b 1722 -243 1778 -264 1758 -243 l 1683 -243 z m 1715 -322 l 1708 -322 l 1708 -267 l 1715 -267 b 1754 -294 1744 -267 1754 -276 b 1715 -322 1754 -311 1744 -322 z m 1872 -294 l 1896 -294 b 1844 -243 1896 -264 1876 -243 b 1794 -294 1813 -243 1794 -264 l 1794 -335 b 1844 -385 1794 -364 1813 -385 b 1896 -335 1876 -385 1896 -364 l 1872 -335 b 1844 -362 1872 -351 1863 -362 b 1818 -335 1826 -362 1818 -351 l 1818 -294 b 1844 -267 1818 -276 1826 -267 b 1872 -294 1863 -267 1872 -276 z m 1915 -385 l 1939 -385 l 1939 -243 l 1915 -243 z m 1953 -385 l 1978 -385 l 1989 -351 l 2025 -351 l 2036 -385 l 2063 -385 l 2019 -243 l 1997 -243 z m 1993 -331 l 2007 -285 l 2022 -331 z m 2075 -385 l 2151 -385 l 2151 -361 l 2099 -361 l 2099 -243 l 2075 -243 z m 2299 -243 l 2275 -243 l 2246 -344 l 2217 -243 l 2190 -243 l 2233 -385 l 2257 -385 z m 2313 -385 l 2388 -385 l 2388 -361 l 2335 -361 l 2335 -331 l 2378 -331 l 2378 -306 l 2335 -306 l 2335 -268 l 2385 -268 l 2385 -243 l 2313 -243 z m 2408 -385 l 2432 -385 l 2432 -344 l 2447 -344 l 2456 -343 l 2478 -385 l 2504 -385 l 2478 -339 b 2503 -294 2493 -331 2503 -315 b 2447 -243 2503 -264 2483 -243 l 2408 -243 z m 2439 -322 l 2432 -322 l 2432 -267 l 2439 -267 b 2478 -294 2469 -267 2478 -276 b 2439 -322 2478 -311 2469 -322 z m 2585 -286 l 2608 -286 b 2563 -243 2608 -262 2593 -243 b 2517 -279 2532 -243 2517 -260 b 2561 -324 2517 -300 2526 -315 b 2585 -347 2581 -328 2585 -337 b 2563 -361 2585 -356 2578 -361 b 2540 -342 2547 -361 2540 -356 l 2517 -342 b 2563 -385 2517 -367 2532 -385 b 2608 -347 2593 -385 2608 -367 b 2565 -301 2608 -326 2601 -311 b 2540 -279 2546 -294 2540 -290 b 2563 -268 2540 -274 2547 -268 b 2585 -286 2578 -268 2585 -274 z m 2624 -385 l 2647 -385 l 2647 -243 l 2624 -243 z m 2743 -294 l 2743 -335 b 2715 -362 2743 -351 2733 -362 b 2688 -335 2699 -362 2688 -351 l 2688 -294 b 2715 -267 2688 -276 2699 -267 b 2743 -294 2733 -267 2743 -276 z m 2664 -294 l 2664 -335 b 2715 -385 2664 -364 2683 -385 b 2767 -335 2747 -385 2767 -364 l 2767 -294 b 2715 -243 2767 -264 2747 -243 b 2664 -294 2683 -243 2664 -264 z m 2782 -385 l 2807 -385 l 2807 -294 l 2850 -385 l 2878 -385 l 2878 -243 l 2854 -243 l 2854 -340 l 2807 -243 l 2782 -243 z m 2399 514 l 2419 514 b 2364 558 2419 539 2403 558 b 2308 519 2325 558 2308 540 b 2360 478 2308 493 2332 483 b 2399 454 2379 474 2399 469 b 2364 431 2399 442 2389 431 b 2331 454 2339 431 2331 440 l 2308 454 b 2364 410 2308 429 2325 410 b 2419 457 2400 410 2419 429 b 2367 500 2419 488 2392 494 b 2331 519 2346 504 2331 508 b 2364 536 2331 529 2339 536 b 2399 514 2389 536 2399 528 z m 471 -32 l 532 -32 l 536 133 l 569 -32 l 617 -32 l 646 138 l 653 -32 l 710 -32 l 708 376 l 639 376 l 592 119 l 543 376 l 476 376 z m 763 -32 l 828 -32 l 828 168 l 899 -32 l 949 -32 l 949 376 l 885 376 l 885 181 l 815 376 l 763 376 z m 994 -32 l 1064 -32 l 1064 42 l 994 42 z m 1204 -37 b 1276 46 1251 -31 1272 10 b 1228 181 1281 99 1265 143 b 1157 265 1203 208 1169 231 b 1186 318 1151 281 1154 321 b 1211 239 1213 315 1211 272 l 1274 243 b 1221 372 1274 292 1269 350 b 1093 292 1164 400 1096 361 b 1149 164 1093 254 1100 224 b 1211 63 1171 138 1211 106 b 1194 29 1211 46 1207 32 b 1154 115 1167 17 1154 56 l 1089 111 b 1107 11 1089 76 1094 42 b 1204 -37 1124 -26 1165 -42 z m 1453 -19 l 1454 -32 l 1508 -32 l 1508 181 l 1403 181 l 1403 119 l 1443 119 b 1403 29 1443 99 1451 13 b 1379 115 1371 40 1379 93 l 1379 263 b 1417 318 1379 293 1385 322 b 1439 232 1435 310 1439 303 l 1504 232 b 1460 368 1504 276 1508 339 b 1369 376 1435 383 1399 383 b 1310 292 1333 361 1315 325 b 1308 174 1304 254 1308 213 b 1310 60 1308 133 1304 99 b 1351 -24 1314 29 1324 -8 b 1453 -19 1381 -40 1426 -42 z m 1531 -49 l 1569 -49 l 1686 393 l 1639 393 z m 1708 -35 l 1864 -35 l 1864 35 l 1779 35 l 1779 374 l 1708 374 z m 1874 -35 l 1943 -35 l 1957 63 l 2000 63 l 2014 -35 l 2082 -35 l 2013 374 l 1947 374 z m 1967 121 l 1978 203 l 1989 121 z m 2172 -39 b 2219 -32 2188 -42 2207 -39 b 2274 99 2267 -10 2274 49 l 2208 103 b 2182 24 2208 76 2213 29 b 2157 49 2171 22 2157 29 l 2157 289 b 2182 315 2157 310 2171 318 b 2208 238 2213 310 2208 264 l 2274 240 b 2219 369 2274 289 2267 349 b 2172 378 2207 378 2188 381 b 2090 292 2132 374 2090 343 l 2090 47 b 2172 -39 2090 -3 2132 -35 z m 2308 -35 l 2379 -35 l 2379 138 l 2440 138 l 2440 -35 l 2507 -35 l 2507 374 l 2440 374 l 2440 210 l 2379 210 l 2379 374 l 2308 374 z m 2542 -35 l 2700 -35 l 2700 35 l 2608 35 l 2608 143 l 2682 143 l 2682 215 l 2608 215 l 2608 304 l 2700 304 l 2700 374 l 2542 374 z m 2775 -35 l 2842 -35 l 2842 129 l 2911 374 l 2840 374 l 2811 210 l 2782 374 l 2713 374 l 2775 140 z m 2869 -35 l 2939 -35 l 2953 63 l 2997 63 l 3011 -35 l 3078 -35 l 3008 374 l 2944 374 z m 2964 121 l 2974 203 l 2986 121 z m 3096 -35 l 3163 -35 l 3163 143 l 3182 143 l 3217 -35 l 3285 -35 l 3240 154 b 3289 268 3276 181 3289 229 b 3214 374 3289 343 3244 374 l 3096 374 z m 3199 201 l 3163 201 l 3163 315 l 3185 315 b 3199 201 3225 315 3222 213 z m 3324 -35 l 3397 -35 b 3503 93 3471 -35 3503 4 l 3503 246 b 3388 374 3503 331 3471 374 l 3324 374 z m 3411 29 l 3388 29 l 3388 304 l 3411 304 b 3431 279 3422 304 3431 289 b 3433 222 3433 264 3433 240 l 3433 113 b 3431 51 3433 92 3433 71 b 3411 29 3431 42 3422 35 z "},"2":{"ha":4188,"x_min":0,"x_max":0,"o":"m 1386 867 l 1419 867 l 1419 956 l 1440 956 b 1515 1044 1500 956 1515 994 b 1440 1132 1515 1093 1500 1132 l 1386 1132 z m 1538 867 l 1642 867 l 1642 900 l 1571 900 l 1571 988 l 1629 988 l 1629 1019 l 1571 1019 l 1571 1099 l 1639 1099 l 1639 1132 l 1538 1132 z m 2529 581 l 2567 581 l 2567 619 l 2529 619 z m 2414 581 l 2453 581 l 2453 663 l 2510 846 l 2474 846 l 2435 704 l 2393 846 l 2357 846 l 2414 663 z m 2142 867 l 2175 867 l 2175 1035 l 2236 867 l 2272 867 l 2272 1132 l 2240 1132 l 2240 951 l 2175 1132 l 2142 1132 z m 2540 636 l 2553 636 l 2567 846 l 2529 846 z m 2290 867 l 2325 867 l 2338 929 l 2393 929 l 2404 867 l 2440 867 l 2383 1132 l 2349 1132 z m 2344 956 l 2367 1076 l 2388 956 z m 2461 867 l 2567 867 l 2567 900 l 2493 900 l 2493 1132 l 2461 1132 z m 1429 988 l 1419 988 l 1419 1100 l 1429 1100 b 1483 1044 1469 1100 1483 1086 b 1429 988 1483 1001 1469 988 z m 1665 867 l 1699 867 l 1699 976 l 1725 976 l 1760 867 l 1796 867 l 1757 985 b 1794 1056 1782 996 1794 1019 b 1719 1132 1794 1103 1768 1132 l 1665 1132 z m 1708 1008 l 1699 1008 l 1699 1100 l 1708 1100 b 1763 1056 1749 1100 1763 1086 b 1708 1008 1763 1024 1749 1008 z m 1918 1056 l 1951 1056 b 1883 1132 1951 1103 1925 1132 b 1817 1067 1843 1132 1817 1103 b 1878 993 1817 1029 1838 1010 b 1918 935 1911 976 1918 961 b 1883 900 1918 914 1908 900 b 1850 944 1863 900 1850 914 l 1817 944 b 1883 867 1817 896 1843 867 b 1951 935 1925 867 1951 896 b 1883 1025 1951 978 1939 1001 b 1850 1067 1865 1033 1850 1047 b 1883 1099 1850 1085 1863 1099 b 1918 1056 1908 1099 1918 1086 z m 2083 1063 l 2083 936 b 2046 899 2083 914 2069 899 b 2008 936 2021 899 2008 914 l 2008 1063 b 2046 1100 2008 1086 2021 1100 b 2083 1063 2069 1100 2083 1086 z m 1975 1063 l 1975 936 b 2046 867 1975 896 2001 867 b 2115 936 2089 867 2115 896 l 2115 1063 b 2046 1132 2115 1103 2089 1132 b 1975 1063 2001 1132 1975 1103 z m 1651 768 l 1683 768 b 1617 846 1683 817 1657 846 b 1550 781 1576 846 1550 817 b 1611 704 1550 742 1571 724 b 1651 647 1644 689 1651 675 b 1617 614 1651 626 1642 614 b 1583 657 1596 614 1583 626 l 1550 657 b 1617 581 1550 608 1576 581 b 1683 647 1657 581 1683 608 b 1617 739 1683 692 1672 714 b 1583 779 1599 746 1583 761 b 1617 813 1583 799 1596 813 b 1651 768 1642 813 1651 799 z m 1710 581 l 1815 581 l 1815 614 l 1743 614 l 1743 700 l 1801 700 l 1801 733 l 1743 733 l 1743 813 l 1811 813 l 1811 846 l 1710 846 z m 2107 581 l 2140 581 l 2140 747 l 2201 581 l 2238 581 l 2238 846 l 2204 846 l 2204 665 l 2140 846 l 2107 846 z m 2274 581 l 2379 581 l 2379 614 l 2307 614 l 2307 846 l 2274 846 z m 2039 776 l 2039 650 b 2001 613 2039 626 2025 613 b 1964 650 1978 613 1964 626 l 1964 776 b 2001 814 1964 799 1978 814 b 2039 776 2025 814 2039 799 z m 1931 776 l 1931 650 b 2001 581 1931 608 1957 581 b 2072 650 2046 581 2072 608 l 2072 776 b 2001 846 2072 817 2046 846 b 1931 776 1957 846 1931 817 z m 1526 650 l 1526 846 l 1494 846 l 1494 650 b 1457 613 1494 626 1481 613 b 1419 650 1432 613 1419 626 l 1419 846 l 1386 846 l 1386 650 b 1457 581 1386 608 1413 581 b 1526 650 1500 581 1526 608 z m 1386 410 l 1410 410 l 1410 468 l 1446 468 b 1496 514 1486 468 1496 494 b 1446 558 1496 532 1486 558 l 1386 558 z m 1725 410 l 1747 410 l 1763 451 l 1810 451 l 1825 410 l 1849 410 l 1799 558 l 1775 558 z m 1768 469 l 1788 531 l 1806 469 z m 1511 410 l 1604 410 l 1604 431 l 1533 431 l 1533 558 l 1511 558 z m 1438 490 l 1410 490 l 1410 536 l 1438 536 b 1474 514 1465 536 1474 528 b 1438 490 1474 500 1465 490 z m 1946 514 l 1968 514 b 1913 558 1968 539 1951 558 b 1857 519 1874 558 1857 540 b 1908 478 1857 493 1881 483 b 1946 454 1928 474 1946 469 b 1913 431 1946 442 1938 431 b 1878 454 1888 431 1878 440 l 1857 454 b 1913 410 1857 429 1874 410 b 1968 457 1949 410 1968 429 b 1915 500 1968 488 1940 494 b 1878 519 1894 504 1878 508 b 1913 536 1878 529 1888 536 b 1946 514 1938 536 1946 528 z m 1621 410 l 1714 410 l 1714 431 l 1643 431 l 1643 475 l 1704 475 l 1704 499 l 1643 499 l 1643 536 l 1711 536 l 1711 558 l 1621 558 z m 2235 558 l 2194 443 l 2158 558 l 2133 558 l 2183 410 l 2207 410 l 2257 558 z m 2269 410 l 2292 410 l 2292 558 l 2269 558 z m 2575 558 l 2476 558 l 2476 536 l 2514 536 l 2514 410 l 2536 410 l 2536 536 l 2575 536 z m 2436 410 l 2460 410 l 2460 558 l 2436 558 z m 1989 410 l 2083 410 l 2083 431 l 2013 431 l 2013 475 l 2074 475 l 2074 499 l 2013 499 l 2013 536 l 2081 536 l 2081 558 l 1989 558 z m 1474 -221 l 1499 -221 l 1499 -179 l 1522 -179 l 1543 -221 l 1569 -221 l 1543 -174 b 1568 -128 1560 -165 1568 -149 b 1513 -78 1568 -100 1549 -78 l 1474 -78 z m 1506 -156 l 1499 -156 l 1499 -101 l 1506 -101 b 1544 -128 1535 -101 1544 -111 b 1506 -156 1544 -146 1535 -156 z m 1269 -221 l 1294 -221 l 1294 -172 l 1338 -172 l 1338 -149 l 1294 -149 l 1294 -103 l 1344 -103 l 1344 -78 l 1269 -78 z m 1432 -128 l 1432 -169 b 1406 -196 1432 -186 1424 -196 b 1378 -169 1389 -196 1378 -186 l 1378 -128 b 1406 -101 1378 -111 1389 -101 b 1432 -128 1424 -101 1432 -111 z m 1354 -128 l 1354 -169 b 1406 -221 1354 -199 1374 -221 b 1457 -169 1438 -221 1457 -199 l 1457 -128 b 1406 -78 1457 -100 1438 -78 b 1354 -128 1374 -78 1354 -100 z m 1646 -221 l 1668 -221 l 1668 -103 l 1703 -103 l 1703 -78 l 1613 -78 l 1613 -103 l 1646 -103 z m 1715 -221 l 1738 -221 l 1738 -164 l 1786 -164 l 1786 -221 l 1810 -221 l 1810 -78 l 1786 -78 l 1786 -140 l 1738 -140 l 1738 -78 l 1715 -78 z m 1831 -221 l 1904 -221 l 1904 -196 l 1853 -196 l 1853 -164 l 1896 -164 l 1896 -140 l 1853 -140 l 1853 -103 l 1904 -103 l 1904 -78 l 1831 -78 z m 1968 -221 l 1990 -221 l 1990 -172 l 2033 -172 l 2033 -149 l 1990 -149 l 1990 -103 l 2042 -103 l 2042 -78 l 1968 -78 z m 2160 -169 l 2160 -78 l 2136 -78 l 2136 -169 b 2108 -196 2136 -186 2125 -196 b 2081 -169 2090 -196 2081 -186 l 2081 -78 l 2057 -78 l 2057 -169 b 2108 -221 2057 -199 2075 -221 b 2160 -169 2140 -221 2160 -199 z m 2178 -221 l 2256 -221 l 2256 -196 l 2203 -196 l 2203 -78 l 2178 -78 z m 2264 -221 l 2342 -221 l 2342 -196 l 2288 -196 l 2288 -78 l 2264 -78 z m 2376 -221 l 2400 -221 l 2411 -185 l 2450 -185 l 2460 -221 l 2486 -221 l 2442 -78 l 2419 -78 z m 2417 -165 l 2431 -118 l 2446 -165 z m 2494 -221 l 2519 -221 l 2519 -131 l 2563 -221 l 2589 -221 l 2589 -78 l 2567 -78 l 2567 -174 l 2519 -78 l 2494 -78 z m 2688 -137 l 2688 -158 b 2656 -196 2688 -178 2678 -196 l 2633 -196 l 2633 -101 l 2656 -101 b 2688 -137 2678 -101 2688 -119 z m 2608 -221 l 2656 -221 b 2711 -158 2693 -221 2711 -190 l 2711 -137 b 2656 -78 2711 -106 2693 -78 l 2608 -78 z m 1279 -294 l 1279 -335 b 1253 -362 1279 -351 1269 -362 b 1225 -335 1235 -362 1225 -351 l 1225 -294 b 1253 -267 1225 -276 1235 -267 b 1279 -294 1269 -267 1279 -276 z m 1200 -294 l 1200 -335 b 1253 -385 1200 -364 1221 -385 b 1304 -335 1285 -385 1304 -364 l 1304 -294 b 1253 -243 1304 -264 1285 -243 b 1200 -294 1221 -243 1200 -264 z m 1163 -294 l 1185 -294 b 1135 -243 1185 -264 1167 -243 b 1083 -294 1103 -243 1083 -264 l 1083 -335 b 1135 -385 1083 -364 1103 -385 b 1185 -335 1167 -385 1185 -364 l 1163 -335 b 1135 -362 1163 -351 1153 -362 b 1107 -335 1117 -362 1107 -351 l 1107 -294 b 1135 -267 1107 -276 1117 -267 b 1163 -294 1153 -267 1163 -276 z m 1321 -385 l 1343 -385 l 1343 -300 l 1374 -353 l 1381 -353 l 1410 -300 l 1410 -385 l 1435 -385 l 1435 -243 l 1419 -243 l 1378 -311 l 1336 -243 l 1321 -243 z m 1457 -385 l 1479 -385 l 1479 -300 l 1510 -353 l 1517 -353 l 1547 -300 l 1547 -385 l 1571 -385 l 1571 -243 l 1556 -243 l 1513 -311 l 1472 -243 l 1457 -243 z m 1589 -385 l 1665 -385 l 1665 -361 l 1613 -361 l 1613 -331 l 1656 -331 l 1656 -306 l 1613 -306 l 1613 -268 l 1663 -268 l 1663 -243 l 1589 -243 z m 1683 -385 l 1708 -385 l 1708 -344 l 1722 -344 l 1732 -343 l 1751 -385 l 1779 -385 l 1751 -339 b 1778 -294 1768 -331 1778 -315 b 1722 -243 1778 -264 1758 -243 l 1683 -243 z m 1715 -322 l 1708 -322 l 1708 -267 l 1715 -267 b 1754 -294 1744 -267 1754 -276 b 1715 -322 1754 -311 1744 -322 z m 1872 -294 l 1896 -294 b 1844 -243 1896 -264 1876 -243 b 1794 -294 1813 -243 1794 -264 l 1794 -335 b 1844 -385 1794 -364 1813 -385 b 1896 -335 1876 -385 1896 -364 l 1872 -335 b 1844 -362 1872 -351 1863 -362 b 1818 -335 1826 -362 1818 -351 l 1818 -294 b 1844 -267 1818 -276 1826 -267 b 1872 -294 1863 -267 1872 -276 z m 1915 -385 l 1939 -385 l 1939 -243 l 1915 -243 z m 1953 -385 l 1978 -385 l 1989 -351 l 2025 -351 l 2036 -385 l 2063 -385 l 2019 -243 l 1997 -243 z m 1993 -331 l 2007 -285 l 2022 -331 z m 2075 -385 l 2151 -385 l 2151 -361 l 2099 -361 l 2099 -243 l 2075 -243 z m 2299 -243 l 2275 -243 l 2246 -344 l 2217 -243 l 2190 -243 l 2233 -385 l 2257 -385 z m 2313 -385 l 2388 -385 l 2388 -361 l 2335 -361 l 2335 -331 l 2378 -331 l 2378 -306 l 2335 -306 l 2335 -268 l 2385 -268 l 2385 -243 l 2313 -243 z m 2408 -385 l 2432 -385 l 2432 -344 l 2447 -344 l 2456 -343 l 2478 -385 l 2504 -385 l 2478 -339 b 2503 -294 2493 -331 2503 -315 b 2447 -243 2503 -264 2483 -243 l 2408 -243 z m 2439 -322 l 2432 -322 l 2432 -267 l 2439 -267 b 2478 -294 2469 -267 2478 -276 b 2439 -322 2478 -311 2469 -322 z m 2585 -286 l 2608 -286 b 2563 -243 2608 -262 2593 -243 b 2517 -279 2532 -243 2517 -260 b 2561 -324 2517 -300 2526 -315 b 2585 -347 2581 -328 2585 -337 b 2563 -361 2585 -356 2578 -361 b 2540 -342 2547 -361 2540 -356 l 2517 -342 b 2563 -385 2517 -367 2532 -385 b 2608 -347 2593 -385 2608 -367 b 2565 -301 2608 -326 2601 -311 b 2540 -279 2546 -294 2540 -290 b 2563 -268 2540 -274 2547 -268 b 2585 -286 2578 -268 2585 -274 z m 2624 -385 l 2647 -385 l 2647 -243 l 2624 -243 z m 2743 -294 l 2743 -335 b 2715 -362 2743 -351 2733 -362 b 2688 -335 2699 -362 2688 -351 l 2688 -294 b 2715 -267 2688 -276 2699 -267 b 2743 -294 2733 -267 2743 -276 z m 2664 -294 l 2664 -335 b 2715 -385 2664 -364 2683 -385 b 2767 -335 2747 -385 2767 -364 l 2767 -294 b 2715 -243 2767 -264 2747 -243 b 2664 -294 2683 -243 2664 -264 z m 2782 -385 l 2807 -385 l 2807 -294 l 2850 -385 l 2878 -385 l 2878 -243 l 2854 -243 l 2854 -340 l 2807 -243 l 2782 -243 z m 2399 514 l 2419 514 b 2364 558 2419 539 2403 558 b 2308 519 2325 558 2308 540 b 2360 478 2308 493 2332 483 b 2399 454 2379 474 2399 469 b 2364 431 2399 442 2389 431 b 2331 454 2339 431 2331 440 l 2308 454 b 2364 410 2308 429 2325 410 b 2419 457 2400 410 2419 429 b 2367 500 2419 488 2392 494 b 2331 519 2346 504 2331 508 b 2364 536 2331 529 2339 536 b 2399 514 2389 536 2399 528 z m 471 -32 l 532 -32 l 536 133 l 569 -32 l 617 -32 l 646 138 l 653 -32 l 710 -32 l 708 376 l 639 376 l 592 119 l 543 376 l 476 376 z m 763 -32 l 828 -32 l 828 168 l 899 -32 l 949 -32 l 949 376 l 885 376 l 885 181 l 815 376 l 763 376 z m 994 -32 l 1064 -32 l 1064 42 l 994 42 z m 1204 -37 b 1276 46 1251 -31 1272 10 b 1228 181 1281 99 1265 143 b 1157 265 1203 208 1169 231 b 1186 318 1151 281 1154 321 b 1211 239 1213 315 1211 272 l 1274 243 b 1221 372 1274 292 1269 350 b 1093 292 1164 400 1096 361 b 1149 164 1093 254 1100 224 b 1211 63 1171 138 1211 106 b 1194 29 1211 46 1207 32 b 1154 115 1167 17 1154 56 l 1089 111 b 1107 11 1089 76 1094 42 b 1204 -37 1124 -26 1165 -42 z m 1453 -19 l 1454 -32 l 1508 -32 l 1508 181 l 1403 181 l 1403 119 l 1443 119 b 1403 29 1443 99 1451 13 b 1379 115 1371 40 1379 93 l 1379 263 b 1417 318 1379 293 1385 322 b 1439 232 1435 310 1439 303 l 1504 232 b 1460 368 1504 276 1508 339 b 1369 376 1435 383 1399 383 b 1310 292 1333 361 1315 325 b 1308 174 1304 254 1308 213 b 1310 60 1308 133 1304 99 b 1351 -24 1314 29 1324 -8 b 1453 -19 1381 -40 1426 -42 z m 1531 -49 l 1569 -49 l 1686 393 l 1639 393 z m 1708 -35 l 1864 -35 l 1864 35 l 1779 35 l 1779 374 l 1708 374 z m 1874 -35 l 1943 -35 l 1957 63 l 2000 63 l 2014 -35 l 2082 -35 l 2013 374 l 1947 374 z m 1967 121 l 1978 203 l 1989 121 z m 2172 -39 b 2219 -32 2188 -42 2207 -39 b 2274 99 2267 -10 2274 49 l 2208 103 b 2182 24 2208 76 2213 29 b 2157 49 2171 22 2157 29 l 2157 289 b 2182 315 2157 310 2171 318 b 2208 238 2213 310 2208 264 l 2274 240 b 2219 369 2274 289 2267 349 b 2172 378 2207 378 2188 381 b 2090 292 2132 374 2090 343 l 2090 47 b 2172 -39 2090 -3 2132 -35 z m 2308 -35 l 2379 -35 l 2379 138 l 2440 138 l 2440 -35 l 2507 -35 l 2507 374 l 2440 374 l 2440 210 l 2379 210 l 2379 374 l 2308 374 z m 2542 -35 l 2700 -35 l 2700 35 l 2608 35 l 2608 143 l 2682 143 l 2682 215 l 2608 215 l 2608 304 l 2700 304 l 2700 374 l 2542 374 z m 2775 -35 l 2842 -35 l 2842 129 l 2911 374 l 2840 374 l 2811 210 l 2782 374 l 2713 374 l 2775 140 z m 2869 -35 l 2939 -35 l 2953 63 l 2997 63 l 3011 -35 l 3078 -35 l 3008 374 l 2944 374 z m 2964 121 l 2974 203 l 2986 121 z m 3096 -35 l 3163 -35 l 3163 143 l 3182 143 l 3217 -35 l 3285 -35 l 3240 154 b 3289 268 3276 181 3289 229 b 3214 374 3289 343 3244 374 l 3096 374 z m 3199 201 l 3163 201 l 3163 315 l 3185 315 b 3199 201 3225 315 3222 213 z m 3324 -35 l 3397 -35 b 3503 93 3471 -35 3503 4 l 3503 246 b 3388 374 3503 331 3471 374 l 3324 374 z m 3411 29 l 3388 29 l 3388 304 l 3411 304 b 3431 279 3422 304 3431 289 b 3433 222 3433 264 3433 240 l 3433 113 b 3431 51 3433 92 3433 71 b 3411 29 3431 42 3422 35 z "},"3":{"ha":4188,"x_min":0,"x_max":0,"o":"m 1386 867 l 1419 867 l 1419 956 l 1440 956 b 1515 1044 1500 956 1515 994 b 1440 1132 1515 1093 1500 1132 l 1386 1132 z m 1538 867 l 1642 867 l 1642 900 l 1571 900 l 1571 988 l 1629 988 l 1629 1019 l 1571 1019 l 1571 1099 l 1639 1099 l 1639 1132 l 1538 1132 z m 2529 581 l 2567 581 l 2567 619 l 2529 619 z m 2414 581 l 2453 581 l 2453 663 l 2510 846 l 2474 846 l 2435 704 l 2393 846 l 2357 846 l 2414 663 z m 2142 867 l 2175 867 l 2175 1035 l 2236 867 l 2272 867 l 2272 1132 l 2240 1132 l 2240 951 l 2175 1132 l 2142 1132 z m 2540 636 l 2553 636 l 2567 846 l 2529 846 z m 2290 867 l 2325 867 l 2338 929 l 2393 929 l 2404 867 l 2440 867 l 2383 1132 l 2349 1132 z m 2344 956 l 2367 1076 l 2388 956 z m 2461 867 l 2567 867 l 2567 900 l 2493 900 l 2493 1132 l 2461 1132 z m 1429 988 l 1419 988 l 1419 1100 l 1429 1100 b 1483 1044 1469 1100 1483 1086 b 1429 988 1483 1001 1469 988 z m 1665 867 l 1699 867 l 1699 976 l 1725 976 l 1760 867 l 1796 867 l 1757 985 b 1794 1056 1782 996 1794 1019 b 1719 1132 1794 1103 1768 1132 l 1665 1132 z m 1708 1008 l 1699 1008 l 1699 1100 l 1708 1100 b 1763 1056 1749 1100 1763 1086 b 1708 1008 1763 1024 1749 1008 z m 1918 1056 l 1951 1056 b 1883 1132 1951 1103 1925 1132 b 1817 1067 1843 1132 1817 1103 b 1878 993 1817 1029 1838 1010 b 1918 935 1911 976 1918 961 b 1883 900 1918 914 1908 900 b 1850 944 1863 900 1850 914 l 1817 944 b 1883 867 1817 896 1843 867 b 1951 935 1925 867 1951 896 b 1883 1025 1951 978 1939 1001 b 1850 1067 1865 1033 1850 1047 b 1883 1099 1850 1085 1863 1099 b 1918 1056 1908 1099 1918 1086 z m 2083 1063 l 2083 936 b 2046 899 2083 914 2069 899 b 2008 936 2021 899 2008 914 l 2008 1063 b 2046 1100 2008 1086 2021 1100 b 2083 1063 2069 1100 2083 1086 z m 1975 1063 l 1975 936 b 2046 867 1975 896 2001 867 b 2115 936 2089 867 2115 896 l 2115 1063 b 2046 1132 2115 1103 2089 1132 b 1975 1063 2001 1132 1975 1103 z m 1651 768 l 1683 768 b 1617 846 1683 817 1657 846 b 1550 781 1576 846 1550 817 b 1611 704 1550 742 1571 724 b 1651 647 1644 689 1651 675 b 1617 614 1651 626 1642 614 b 1583 657 1596 614 1583 626 l 1550 657 b 1617 581 1550 608 1576 581 b 1683 647 1657 581 1683 608 b 1617 739 1683 692 1672 714 b 1583 779 1599 746 1583 761 b 1617 813 1583 799 1596 813 b 1651 768 1642 813 1651 799 z m 1710 581 l 1815 581 l 1815 614 l 1743 614 l 1743 700 l 1801 700 l 1801 733 l 1743 733 l 1743 813 l 1811 813 l 1811 846 l 1710 846 z m 2107 581 l 2140 581 l 2140 747 l 2201 581 l 2238 581 l 2238 846 l 2204 846 l 2204 665 l 2140 846 l 2107 846 z m 2274 581 l 2379 581 l 2379 614 l 2307 614 l 2307 846 l 2274 846 z m 2039 776 l 2039 650 b 2001 613 2039 626 2025 613 b 1964 650 1978 613 1964 626 l 1964 776 b 2001 814 1964 799 1978 814 b 2039 776 2025 814 2039 799 z m 1931 776 l 1931 650 b 2001 581 1931 608 1957 581 b 2072 650 2046 581 2072 608 l 2072 776 b 2001 846 2072 817 2046 846 b 1931 776 1957 846 1931 817 z m 1526 650 l 1526 846 l 1494 846 l 1494 650 b 1457 613 1494 626 1481 613 b 1419 650 1432 613 1419 626 l 1419 846 l 1386 846 l 1386 650 b 1457 581 1386 608 1413 581 b 1526 650 1500 581 1526 608 z m 1386 410 l 1410 410 l 1410 468 l 1446 468 b 1496 514 1486 468 1496 494 b 1446 558 1496 532 1486 558 l 1386 558 z m 1725 410 l 1747 410 l 1763 451 l 1810 451 l 1825 410 l 1849 410 l 1799 558 l 1775 558 z m 1768 469 l 1788 531 l 1806 469 z m 1511 410 l 1604 410 l 1604 431 l 1533 431 l 1533 558 l 1511 558 z m 1438 490 l 1410 490 l 1410 536 l 1438 536 b 1474 514 1465 536 1474 528 b 1438 490 1474 500 1465 490 z m 1946 514 l 1968 514 b 1913 558 1968 539 1951 558 b 1857 519 1874 558 1857 540 b 1908 478 1857 493 1881 483 b 1946 454 1928 474 1946 469 b 1913 431 1946 442 1938 431 b 1878 454 1888 431 1878 440 l 1857 454 b 1913 410 1857 429 1874 410 b 1968 457 1949 410 1968 429 b 1915 500 1968 488 1940 494 b 1878 519 1894 504 1878 508 b 1913 536 1878 529 1888 536 b 1946 514 1938 536 1946 528 z m 1621 410 l 1714 410 l 1714 431 l 1643 431 l 1643 475 l 1704 475 l 1704 499 l 1643 499 l 1643 536 l 1711 536 l 1711 558 l 1621 558 z m 2235 558 l 2194 443 l 2158 558 l 2133 558 l 2183 410 l 2207 410 l 2257 558 z m 2269 410 l 2292 410 l 2292 558 l 2269 558 z m 2575 558 l 2476 558 l 2476 536 l 2514 536 l 2514 410 l 2536 410 l 2536 536 l 2575 536 z m 2436 410 l 2460 410 l 2460 558 l 2436 558 z m 1989 410 l 2083 410 l 2083 431 l 2013 431 l 2013 475 l 2074 475 l 2074 499 l 2013 499 l 2013 536 l 2081 536 l 2081 558 l 1989 558 z m 1474 -221 l 1499 -221 l 1499 -179 l 1522 -179 l 1543 -221 l 1569 -221 l 1543 -174 b 1568 -128 1560 -165 1568 -149 b 1513 -78 1568 -100 1549 -78 l 1474 -78 z m 1506 -156 l 1499 -156 l 1499 -101 l 1506 -101 b 1544 -128 1535 -101 1544 -111 b 1506 -156 1544 -146 1535 -156 z m 1269 -221 l 1294 -221 l 1294 -172 l 1338 -172 l 1338 -149 l 1294 -149 l 1294 -103 l 1344 -103 l 1344 -78 l 1269 -78 z m 1432 -128 l 1432 -169 b 1406 -196 1432 -186 1424 -196 b 1378 -169 1389 -196 1378 -186 l 1378 -128 b 1406 -101 1378 -111 1389 -101 b 1432 -128 1424 -101 1432 -111 z m 1354 -128 l 1354 -169 b 1406 -221 1354 -199 1374 -221 b 1457 -169 1438 -221 1457 -199 l 1457 -128 b 1406 -78 1457 -100 1438 -78 b 1354 -128 1374 -78 1354 -100 z m 1646 -221 l 1668 -221 l 1668 -103 l 1703 -103 l 1703 -78 l 1613 -78 l 1613 -103 l 1646 -103 z m 1715 -221 l 1738 -221 l 1738 -164 l 1786 -164 l 1786 -221 l 1810 -221 l 1810 -78 l 1786 -78 l 1786 -140 l 1738 -140 l 1738 -78 l 1715 -78 z m 1831 -221 l 1904 -221 l 1904 -196 l 1853 -196 l 1853 -164 l 1896 -164 l 1896 -140 l 1853 -140 l 1853 -103 l 1904 -103 l 1904 -78 l 1831 -78 z m 1968 -221 l 1990 -221 l 1990 -172 l 2033 -172 l 2033 -149 l 1990 -149 l 1990 -103 l 2042 -103 l 2042 -78 l 1968 -78 z m 2160 -169 l 2160 -78 l 2136 -78 l 2136 -169 b 2108 -196 2136 -186 2125 -196 b 2081 -169 2090 -196 2081 -186 l 2081 -78 l 2057 -78 l 2057 -169 b 2108 -221 2057 -199 2075 -221 b 2160 -169 2140 -221 2160 -199 z m 2178 -221 l 2256 -221 l 2256 -196 l 2203 -196 l 2203 -78 l 2178 -78 z m 2264 -221 l 2342 -221 l 2342 -196 l 2288 -196 l 2288 -78 l 2264 -78 z m 2376 -221 l 2400 -221 l 2411 -185 l 2450 -185 l 2460 -221 l 2486 -221 l 2442 -78 l 2419 -78 z m 2417 -165 l 2431 -118 l 2446 -165 z m 2494 -221 l 2519 -221 l 2519 -131 l 2563 -221 l 2589 -221 l 2589 -78 l 2567 -78 l 2567 -174 l 2519 -78 l 2494 -78 z m 2688 -137 l 2688 -158 b 2656 -196 2688 -178 2678 -196 l 2633 -196 l 2633 -101 l 2656 -101 b 2688 -137 2678 -101 2688 -119 z m 2608 -221 l 2656 -221 b 2711 -158 2693 -221 2711 -190 l 2711 -137 b 2656 -78 2711 -106 2693 -78 l 2608 -78 z m 1279 -294 l 1279 -335 b 1253 -362 1279 -351 1269 -362 b 1225 -335 1235 -362 1225 -351 l 1225 -294 b 1253 -267 1225 -276 1235 -267 b 1279 -294 1269 -267 1279 -276 z m 1200 -294 l 1200 -335 b 1253 -385 1200 -364 1221 -385 b 1304 -335 1285 -385 1304 -364 l 1304 -294 b 1253 -243 1304 -264 1285 -243 b 1200 -294 1221 -243 1200 -264 z m 1163 -294 l 1185 -294 b 1135 -243 1185 -264 1167 -243 b 1083 -294 1103 -243 1083 -264 l 1083 -335 b 1135 -385 1083 -364 1103 -385 b 1185 -335 1167 -385 1185 -364 l 1163 -335 b 1135 -362 1163 -351 1153 -362 b 1107 -335 1117 -362 1107 -351 l 1107 -294 b 1135 -267 1107 -276 1117 -267 b 1163 -294 1153 -267 1163 -276 z m 1321 -385 l 1343 -385 l 1343 -300 l 1374 -353 l 1381 -353 l 1410 -300 l 1410 -385 l 1435 -385 l 1435 -243 l 1419 -243 l 1378 -311 l 1336 -243 l 1321 -243 z m 1457 -385 l 1479 -385 l 1479 -300 l 1510 -353 l 1517 -353 l 1547 -300 l 1547 -385 l 1571 -385 l 1571 -243 l 1556 -243 l 1513 -311 l 1472 -243 l 1457 -243 z m 1589 -385 l 1665 -385 l 1665 -361 l 1613 -361 l 1613 -331 l 1656 -331 l 1656 -306 l 1613 -306 l 1613 -268 l 1663 -268 l 1663 -243 l 1589 -243 z m 1683 -385 l 1708 -385 l 1708 -344 l 1722 -344 l 1732 -343 l 1751 -385 l 1779 -385 l 1751 -339 b 1778 -294 1768 -331 1778 -315 b 1722 -243 1778 -264 1758 -243 l 1683 -243 z m 1715 -322 l 1708 -322 l 1708 -267 l 1715 -267 b 1754 -294 1744 -267 1754 -276 b 1715 -322 1754 -311 1744 -322 z m 1872 -294 l 1896 -294 b 1844 -243 1896 -264 1876 -243 b 1794 -294 1813 -243 1794 -264 l 1794 -335 b 1844 -385 1794 -364 1813 -385 b 1896 -335 1876 -385 1896 -364 l 1872 -335 b 1844 -362 1872 -351 1863 -362 b 1818 -335 1826 -362 1818 -351 l 1818 -294 b 1844 -267 1818 -276 1826 -267 b 1872 -294 1863 -267 1872 -276 z m 1915 -385 l 1939 -385 l 1939 -243 l 1915 -243 z m 1953 -385 l 1978 -385 l 1989 -351 l 2025 -351 l 2036 -385 l 2063 -385 l 2019 -243 l 1997 -243 z m 1993 -331 l 2007 -285 l 2022 -331 z m 2075 -385 l 2151 -385 l 2151 -361 l 2099 -361 l 2099 -243 l 2075 -243 z m 2299 -243 l 2275 -243 l 2246 -344 l 2217 -243 l 2190 -243 l 2233 -385 l 2257 -385 z m 2313 -385 l 2388 -385 l 2388 -361 l 2335 -361 l 2335 -331 l 2378 -331 l 2378 -306 l 2335 -306 l 2335 -268 l 2385 -268 l 2385 -243 l 2313 -243 z m 2408 -385 l 2432 -385 l 2432 -344 l 2447 -344 l 2456 -343 l 2478 -385 l 2504 -385 l 2478 -339 b 2503 -294 2493 -331 2503 -315 b 2447 -243 2503 -264 2483 -243 l 2408 -243 z m 2439 -322 l 2432 -322 l 2432 -267 l 2439 -267 b 2478 -294 2469 -267 2478 -276 b 2439 -322 2478 -311 2469 -322 z m 2585 -286 l 2608 -286 b 2563 -243 2608 -262 2593 -243 b 2517 -279 2532 -243 2517 -260 b 2561 -324 2517 -300 2526 -315 b 2585 -347 2581 -328 2585 -337 b 2563 -361 2585 -356 2578 -361 b 2540 -342 2547 -361 2540 -356 l 2517 -342 b 2563 -385 2517 -367 2532 -385 b 2608 -347 2593 -385 2608 -367 b 2565 -301 2608 -326 2601 -311 b 2540 -279 2546 -294 2540 -290 b 2563 -268 2540 -274 2547 -268 b 2585 -286 2578 -268 2585 -274 z m 2624 -385 l 2647 -385 l 2647 -243 l 2624 -243 z m 2743 -294 l 2743 -335 b 2715 -362 2743 -351 2733 -362 b 2688 -335 2699 -362 2688 -351 l 2688 -294 b 2715 -267 2688 -276 2699 -267 b 2743 -294 2733 -267 2743 -276 z m 2664 -294 l 2664 -335 b 2715 -385 2664 -364 2683 -385 b 2767 -335 2747 -385 2767 -364 l 2767 -294 b 2715 -243 2767 -264 2747 -243 b 2664 -294 2683 -243 2664 -264 z m 2782 -385 l 2807 -385 l 2807 -294 l 2850 -385 l 2878 -385 l 2878 -243 l 2854 -243 l 2854 -340 l 2807 -243 l 2782 -243 z m 2399 514 l 2419 514 b 2364 558 2419 539 2403 558 b 2308 519 2325 558 2308 540 b 2360 478 2308 493 2332 483 b 2399 454 2379 474 2399 469 b 2364 431 2399 442 2389 431 b 2331 454 2339 431 2331 440 l 2308 454 b 2364 410 2308 429 2325 410 b 2419 457 2400 410 2419 429 b 2367 500 2419 488 2392 494 b 2331 519 2346 504 2331 508 b 2364 536 2331 529 2339 536 b 2399 514 2389 536 2399 528 z m 471 -32 l 532 -32 l 536 133 l 569 -32 l 617 -32 l 646 138 l 653 -32 l 710 -32 l 708 376 l 639 376 l 592 119 l 543 376 l 476 376 z m 763 -32 l 828 -32 l 828 168 l 899 -32 l 949 -32 l 949 376 l 885 376 l 885 181 l 815 376 l 763 376 z m 994 -32 l 1064 -32 l 1064 42 l 994 42 z m 1204 -37 b 1276 46 1251 -31 1272 10 b 1228 181 1281 99 1265 143 b 1157 265 1203 208 1169 231 b 1186 318 1151 281 1154 321 b 1211 239 1213 315 1211 272 l 1274 243 b 1221 372 1274 292 1269 350 b 1093 292 1164 400 1096 361 b 1149 164 1093 254 1100 224 b 1211 63 1171 138 1211 106 b 1194 29 1211 46 1207 32 b 1154 115 1167 17 1154 56 l 1089 111 b 1107 11 1089 76 1094 42 b 1204 -37 1124 -26 1165 -42 z m 1453 -19 l 1454 -32 l 1508 -32 l 1508 181 l 1403 181 l 1403 119 l 1443 119 b 1403 29 1443 99 1451 13 b 1379 115 1371 40 1379 93 l 1379 263 b 1417 318 1379 293 1385 322 b 1439 232 1435 310 1439 303 l 1504 232 b 1460 368 1504 276 1508 339 b 1369 376 1435 383 1399 383 b 1310 292 1333 361 1315 325 b 1308 174 1304 254 1308 213 b 1310 60 1308 133 1304 99 b 1351 -24 1314 29 1324 -8 b 1453 -19 1381 -40 1426 -42 z m 1531 -49 l 1569 -49 l 1686 393 l 1639 393 z m 1708 -35 l 1864 -35 l 1864 35 l 1779 35 l 1779 374 l 1708 374 z m 1874 -35 l 1943 -35 l 1957 63 l 2000 63 l 2014 -35 l 2082 -35 l 2013 374 l 1947 374 z m 1967 121 l 1978 203 l 1989 121 z m 2172 -39 b 2219 -32 2188 -42 2207 -39 b 2274 99 2267 -10 2274 49 l 2208 103 b 2182 24 2208 76 2213 29 b 2157 49 2171 22 2157 29 l 2157 289 b 2182 315 2157 310 2171 318 b 2208 238 2213 310 2208 264 l 2274 240 b 2219 369 2274 289 2267 349 b 2172 378 2207 378 2188 381 b 2090 292 2132 374 2090 343 l 2090 47 b 2172 -39 2090 -3 2132 -35 z m 2308 -35 l 2379 -35 l 2379 138 l 2440 138 l 2440 -35 l 2507 -35 l 2507 374 l 2440 374 l 2440 210 l 2379 210 l 2379 374 l 2308 374 z m 2542 -35 l 2700 -35 l 2700 35 l 2608 35 l 2608 143 l 2682 143 l 2682 215 l 2608 215 l 2608 304 l 2700 304 l 2700 374 l 2542 374 z m 2775 -35 l 2842 -35 l 2842 129 l 2911 374 l 2840 374 l 2811 210 l 2782 374 l 2713 374 l 2775 140 z m 2869 -35 l 2939 -35 l 2953 63 l 2997 63 l 3011 -35 l 3078 -35 l 3008 374 l 2944 374 z m 2964 121 l 2974 203 l 2986 121 z m 3096 -35 l 3163 -35 l 3163 143 l 3182 143 l 3217 -35 l 3285 -35 l 3240 154 b 3289 268 3276 181 3289 229 b 3214 374 3289 343 3244 374 l 3096 374 z m 3199 201 l 3163 201 l 3163 315 l 3185 315 b 3199 201 3225 315 3222 213 z m 3324 -35 l 3397 -35 b 3503 93 3471 -35 3503 4 l 3503 246 b 3388 374 3503 331 3471 374 l 3324 374 z m 3411 29 l 3388 29 l 3388 304 l 3411 304 b 3431 279 3422 304 3431 289 b 3433 222 3433 264 3433 240 l 3433 113 b 3431 51 3433 92 3433 71 b 3411 29 3431 42 3422 35 z "},"4":{"ha":4188,"x_min":0,"x_max":0,"o":"m 1386 867 l 1419 867 l 1419 956 l 1440 956 b 1515 1044 1500 956 1515 994 b 1440 1132 1515 1093 1500 1132 l 1386 1132 z m 1538 867 l 1642 867 l 1642 900 l 1571 900 l 1571 988 l 1629 988 l 1629 1019 l 1571 1019 l 1571 1099 l 1639 1099 l 1639 1132 l 1538 1132 z m 2529 581 l 2567 581 l 2567 619 l 2529 619 z m 2414 581 l 2453 581 l 2453 663 l 2510 846 l 2474 846 l 2435 704 l 2393 846 l 2357 846 l 2414 663 z m 2142 867 l 2175 867 l 2175 1035 l 2236 867 l 2272 867 l 2272 1132 l 2240 1132 l 2240 951 l 2175 1132 l 2142 1132 z m 2540 636 l 2553 636 l 2567 846 l 2529 846 z m 2290 867 l 2325 867 l 2338 929 l 2393 929 l 2404 867 l 2440 867 l 2383 1132 l 2349 1132 z m 2344 956 l 2367 1076 l 2388 956 z m 2461 867 l 2567 867 l 2567 900 l 2493 900 l 2493 1132 l 2461 1132 z m 1429 988 l 1419 988 l 1419 1100 l 1429 1100 b 1483 1044 1469 1100 1483 1086 b 1429 988 1483 1001 1469 988 z m 1665 867 l 1699 867 l 1699 976 l 1725 976 l 1760 867 l 1796 867 l 1757 985 b 1794 1056 1782 996 1794 1019 b 1719 1132 1794 1103 1768 1132 l 1665 1132 z m 1708 1008 l 1699 1008 l 1699 1100 l 1708 1100 b 1763 1056 1749 1100 1763 1086 b 1708 1008 1763 1024 1749 1008 z m 1918 1056 l 1951 1056 b 1883 1132 1951 1103 1925 1132 b 1817 1067 1843 1132 1817 1103 b 1878 993 1817 1029 1838 1010 b 1918 935 1911 976 1918 961 b 1883 900 1918 914 1908 900 b 1850 944 1863 900 1850 914 l 1817 944 b 1883 867 1817 896 1843 867 b 1951 935 1925 867 1951 896 b 1883 1025 1951 978 1939 1001 b 1850 1067 1865 1033 1850 1047 b 1883 1099 1850 1085 1863 1099 b 1918 1056 1908 1099 1918 1086 z m 2083 1063 l 2083 936 b 2046 899 2083 914 2069 899 b 2008 936 2021 899 2008 914 l 2008 1063 b 2046 1100 2008 1086 2021 1100 b 2083 1063 2069 1100 2083 1086 z m 1975 1063 l 1975 936 b 2046 867 1975 896 2001 867 b 2115 936 2089 867 2115 896 l 2115 1063 b 2046 1132 2115 1103 2089 1132 b 1975 1063 2001 1132 1975 1103 z m 1651 768 l 1683 768 b 1617 846 1683 817 1657 846 b 1550 781 1576 846 1550 817 b 1611 704 1550 742 1571 724 b 1651 647 1644 689 1651 675 b 1617 614 1651 626 1642 614 b 1583 657 1596 614 1583 626 l 1550 657 b 1617 581 1550 608 1576 581 b 1683 647 1657 581 1683 608 b 1617 739 1683 692 1672 714 b 1583 779 1599 746 1583 761 b 1617 813 1583 799 1596 813 b 1651 768 1642 813 1651 799 z m 1710 581 l 1815 581 l 1815 614 l 1743 614 l 1743 700 l 1801 700 l 1801 733 l 1743 733 l 1743 813 l 1811 813 l 1811 846 l 1710 846 z m 2107 581 l 2140 581 l 2140 747 l 2201 581 l 2238 581 l 2238 846 l 2204 846 l 2204 665 l 2140 846 l 2107 846 z m 2274 581 l 2379 581 l 2379 614 l 2307 614 l 2307 846 l 2274 846 z m 2039 776 l 2039 650 b 2001 613 2039 626 2025 613 b 1964 650 1978 613 1964 626 l 1964 776 b 2001 814 1964 799 1978 814 b 2039 776 2025 814 2039 799 z m 1931 776 l 1931 650 b 2001 581 1931 608 1957 581 b 2072 650 2046 581 2072 608 l 2072 776 b 2001 846 2072 817 2046 846 b 1931 776 1957 846 1931 817 z m 1526 650 l 1526 846 l 1494 846 l 1494 650 b 1457 613 1494 626 1481 613 b 1419 650 1432 613 1419 626 l 1419 846 l 1386 846 l 1386 650 b 1457 581 1386 608 1413 581 b 1526 650 1500 581 1526 608 z m 1386 410 l 1410 410 l 1410 468 l 1446 468 b 1496 514 1486 468 1496 494 b 1446 558 1496 532 1486 558 l 1386 558 z m 1725 410 l 1747 410 l 1763 451 l 1810 451 l 1825 410 l 1849 410 l 1799 558 l 1775 558 z m 1768 469 l 1788 531 l 1806 469 z m 1511 410 l 1604 410 l 1604 431 l 1533 431 l 1533 558 l 1511 558 z m 1438 490 l 1410 490 l 1410 536 l 1438 536 b 1474 514 1465 536 1474 528 b 1438 490 1474 500 1465 490 z m 1946 514 l 1968 514 b 1913 558 1968 539 1951 558 b 1857 519 1874 558 1857 540 b 1908 478 1857 493 1881 483 b 1946 454 1928 474 1946 469 b 1913 431 1946 442 1938 431 b 1878 454 1888 431 1878 440 l 1857 454 b 1913 410 1857 429 1874 410 b 1968 457 1949 410 1968 429 b 1915 500 1968 488 1940 494 b 1878 519 1894 504 1878 508 b 1913 536 1878 529 1888 536 b 1946 514 1938 536 1946 528 z m 1621 410 l 1714 410 l 1714 431 l 1643 431 l 1643 475 l 1704 475 l 1704 499 l 1643 499 l 1643 536 l 1711 536 l 1711 558 l 1621 558 z m 2235 558 l 2194 443 l 2158 558 l 2133 558 l 2183 410 l 2207 410 l 2257 558 z m 2269 410 l 2292 410 l 2292 558 l 2269 558 z m 2575 558 l 2476 558 l 2476 536 l 2514 536 l 2514 410 l 2536 410 l 2536 536 l 2575 536 z m 2436 410 l 2460 410 l 2460 558 l 2436 558 z m 1989 410 l 2083 410 l 2083 431 l 2013 431 l 2013 475 l 2074 475 l 2074 499 l 2013 499 l 2013 536 l 2081 536 l 2081 558 l 1989 558 z m 1474 -221 l 1499 -221 l 1499 -179 l 1522 -179 l 1543 -221 l 1569 -221 l 1543 -174 b 1568 -128 1560 -165 1568 -149 b 1513 -78 1568 -100 1549 -78 l 1474 -78 z m 1506 -156 l 1499 -156 l 1499 -101 l 1506 -101 b 1544 -128 1535 -101 1544 -111 b 1506 -156 1544 -146 1535 -156 z m 1269 -221 l 1294 -221 l 1294 -172 l 1338 -172 l 1338 -149 l 1294 -149 l 1294 -103 l 1344 -103 l 1344 -78 l 1269 -78 z m 1432 -128 l 1432 -169 b 1406 -196 1432 -186 1424 -196 b 1378 -169 1389 -196 1378 -186 l 1378 -128 b 1406 -101 1378 -111 1389 -101 b 1432 -128 1424 -101 1432 -111 z m 1354 -128 l 1354 -169 b 1406 -221 1354 -199 1374 -221 b 1457 -169 1438 -221 1457 -199 l 1457 -128 b 1406 -78 1457 -100 1438 -78 b 1354 -128 1374 -78 1354 -100 z m 1646 -221 l 1668 -221 l 1668 -103 l 1703 -103 l 1703 -78 l 1613 -78 l 1613 -103 l 1646 -103 z m 1715 -221 l 1738 -221 l 1738 -164 l 1786 -164 l 1786 -221 l 1810 -221 l 1810 -78 l 1786 -78 l 1786 -140 l 1738 -140 l 1738 -78 l 1715 -78 z m 1831 -221 l 1904 -221 l 1904 -196 l 1853 -196 l 1853 -164 l 1896 -164 l 1896 -140 l 1853 -140 l 1853 -103 l 1904 -103 l 1904 -78 l 1831 -78 z m 1968 -221 l 1990 -221 l 1990 -172 l 2033 -172 l 2033 -149 l 1990 -149 l 1990 -103 l 2042 -103 l 2042 -78 l 1968 -78 z m 2160 -169 l 2160 -78 l 2136 -78 l 2136 -169 b 2108 -196 2136 -186 2125 -196 b 2081 -169 2090 -196 2081 -186 l 2081 -78 l 2057 -78 l 2057 -169 b 2108 -221 2057 -199 2075 -221 b 2160 -169 2140 -221 2160 -199 z m 2178 -221 l 2256 -221 l 2256 -196 l 2203 -196 l 2203 -78 l 2178 -78 z m 2264 -221 l 2342 -221 l 2342 -196 l 2288 -196 l 2288 -78 l 2264 -78 z m 2376 -221 l 2400 -221 l 2411 -185 l 2450 -185 l 2460 -221 l 2486 -221 l 2442 -78 l 2419 -78 z m 2417 -165 l 2431 -118 l 2446 -165 z m 2494 -221 l 2519 -221 l 2519 -131 l 2563 -221 l 2589 -221 l 2589 -78 l 2567 -78 l 2567 -174 l 2519 -78 l 2494 -78 z m 2688 -137 l 2688 -158 b 2656 -196 2688 -178 2678 -196 l 2633 -196 l 2633 -101 l 2656 -101 b 2688 -137 2678 -101 2688 -119 z m 2608 -221 l 2656 -221 b 2711 -158 2693 -221 2711 -190 l 2711 -137 b 2656 -78 2711 -106 2693 -78 l 2608 -78 z m 1279 -294 l 1279 -335 b 1253 -362 1279 -351 1269 -362 b 1225 -335 1235 -362 1225 -351 l 1225 -294 b 1253 -267 1225 -276 1235 -267 b 1279 -294 1269 -267 1279 -276 z m 1200 -294 l 1200 -335 b 1253 -385 1200 -364 1221 -385 b 1304 -335 1285 -385 1304 -364 l 1304 -294 b 1253 -243 1304 -264 1285 -243 b 1200 -294 1221 -243 1200 -264 z m 1163 -294 l 1185 -294 b 1135 -243 1185 -264 1167 -243 b 1083 -294 1103 -243 1083 -264 l 1083 -335 b 1135 -385 1083 -364 1103 -385 b 1185 -335 1167 -385 1185 -364 l 1163 -335 b 1135 -362 1163 -351 1153 -362 b 1107 -335 1117 -362 1107 -351 l 1107 -294 b 1135 -267 1107 -276 1117 -267 b 1163 -294 1153 -267 1163 -276 z m 1321 -385 l 1343 -385 l 1343 -300 l 1374 -353 l 1381 -353 l 1410 -300 l 1410 -385 l 1435 -385 l 1435 -243 l 1419 -243 l 1378 -311 l 1336 -243 l 1321 -243 z m 1457 -385 l 1479 -385 l 1479 -300 l 1510 -353 l 1517 -353 l 1547 -300 l 1547 -385 l 1571 -385 l 1571 -243 l 1556 -243 l 1513 -311 l 1472 -243 l 1457 -243 z m 1589 -385 l 1665 -385 l 1665 -361 l 1613 -361 l 1613 -331 l 1656 -331 l 1656 -306 l 1613 -306 l 1613 -268 l 1663 -268 l 1663 -243 l 1589 -243 z m 1683 -385 l 1708 -385 l 1708 -344 l 1722 -344 l 1732 -343 l 1751 -385 l 1779 -385 l 1751 -339 b 1778 -294 1768 -331 1778 -315 b 1722 -243 1778 -264 1758 -243 l 1683 -243 z m 1715 -322 l 1708 -322 l 1708 -267 l 1715 -267 b 1754 -294 1744 -267 1754 -276 b 1715 -322 1754 -311 1744 -322 z m 1872 -294 l 1896 -294 b 1844 -243 1896 -264 1876 -243 b 1794 -294 1813 -243 1794 -264 l 1794 -335 b 1844 -385 1794 -364 1813 -385 b 1896 -335 1876 -385 1896 -364 l 1872 -335 b 1844 -362 1872 -351 1863 -362 b 1818 -335 1826 -362 1818 -351 l 1818 -294 b 1844 -267 1818 -276 1826 -267 b 1872 -294 1863 -267 1872 -276 z m 1915 -385 l 1939 -385 l 1939 -243 l 1915 -243 z m 1953 -385 l 1978 -385 l 1989 -351 l 2025 -351 l 2036 -385 l 2063 -385 l 2019 -243 l 1997 -243 z m 1993 -331 l 2007 -285 l 2022 -331 z m 2075 -385 l 2151 -385 l 2151 -361 l 2099 -361 l 2099 -243 l 2075 -243 z m 2299 -243 l 2275 -243 l 2246 -344 l 2217 -243 l 2190 -243 l 2233 -385 l 2257 -385 z m 2313 -385 l 2388 -385 l 2388 -361 l 2335 -361 l 2335 -331 l 2378 -331 l 2378 -306 l 2335 -306 l 2335 -268 l 2385 -268 l 2385 -243 l 2313 -243 z m 2408 -385 l 2432 -385 l 2432 -344 l 2447 -344 l 2456 -343 l 2478 -385 l 2504 -385 l 2478 -339 b 2503 -294 2493 -331 2503 -315 b 2447 -243 2503 -264 2483 -243 l 2408 -243 z m 2439 -322 l 2432 -322 l 2432 -267 l 2439 -267 b 2478 -294 2469 -267 2478 -276 b 2439 -322 2478 -311 2469 -322 z m 2585 -286 l 2608 -286 b 2563 -243 2608 -262 2593 -243 b 2517 -279 2532 -243 2517 -260 b 2561 -324 2517 -300 2526 -315 b 2585 -347 2581 -328 2585 -337 b 2563 -361 2585 -356 2578 -361 b 2540 -342 2547 -361 2540 -356 l 2517 -342 b 2563 -385 2517 -367 2532 -385 b 2608 -347 2593 -385 2608 -367 b 2565 -301 2608 -326 2601 -311 b 2540 -279 2546 -294 2540 -290 b 2563 -268 2540 -274 2547 -268 b 2585 -286 2578 -268 2585 -274 z m 2624 -385 l 2647 -385 l 2647 -243 l 2624 -243 z m 2743 -294 l 2743 -335 b 2715 -362 2743 -351 2733 -362 b 2688 -335 2699 -362 2688 -351 l 2688 -294 b 2715 -267 2688 -276 2699 -267 b 2743 -294 2733 -267 2743 -276 z m 2664 -294 l 2664 -335 b 2715 -385 2664 -364 2683 -385 b 2767 -335 2747 -385 2767 -364 l 2767 -294 b 2715 -243 2767 -264 2747 -243 b 2664 -294 2683 -243 2664 -264 z m 2782 -385 l 2807 -385 l 2807 -294 l 2850 -385 l 2878 -385 l 2878 -243 l 2854 -243 l 2854 -340 l 2807 -243 l 2782 -243 z m 2399 514 l 2419 514 b 2364 558 2419 539 2403 558 b 2308 519 2325 558 2308 540 b 2360 478 2308 493 2332 483 b 2399 454 2379 474 2399 469 b 2364 431 2399 442 2389 431 b 2331 454 2339 431 2331 440 l 2308 454 b 2364 410 2308 429 2325 410 b 2419 457 2400 410 2419 429 b 2367 500 2419 488 2392 494 b 2331 519 2346 504 2331 508 b 2364 536 2331 529 2339 536 b 2399 514 2389 536 2399 528 z m 471 -32 l 532 -32 l 536 133 l 569 -32 l 617 -32 l 646 138 l 653 -32 l 710 -32 l 708 376 l 639 376 l 592 119 l 543 376 l 476 376 z m 763 -32 l 828 -32 l 828 168 l 899 -32 l 949 -32 l 949 376 l 885 376 l 885 181 l 815 376 l 763 376 z m 994 -32 l 1064 -32 l 1064 42 l 994 42 z m 1204 -37 b 1276 46 1251 -31 1272 10 b 1228 181 1281 99 1265 143 b 1157 265 1203 208 1169 231 b 1186 318 1151 281 1154 321 b 1211 239 1213 315 1211 272 l 1274 243 b 1221 372 1274 292 1269 350 b 1093 292 1164 400 1096 361 b 1149 164 1093 254 1100 224 b 1211 63 1171 138 1211 106 b 1194 29 1211 46 1207 32 b 1154 115 1167 17 1154 56 l 1089 111 b 1107 11 1089 76 1094 42 b 1204 -37 1124 -26 1165 -42 z m 1453 -19 l 1454 -32 l 1508 -32 l 1508 181 l 1403 181 l 1403 119 l 1443 119 b 1403 29 1443 99 1451 13 b 1379 115 1371 40 1379 93 l 1379 263 b 1417 318 1379 293 1385 322 b 1439 232 1435 310 1439 303 l 1504 232 b 1460 368 1504 276 1508 339 b 1369 376 1435 383 1399 383 b 1310 292 1333 361 1315 325 b 1308 174 1304 254 1308 213 b 1310 60 1308 133 1304 99 b 1351 -24 1314 29 1324 -8 b 1453 -19 1381 -40 1426 -42 z m 1531 -49 l 1569 -49 l 1686 393 l 1639 393 z m 1708 -35 l 1864 -35 l 1864 35 l 1779 35 l 1779 374 l 1708 374 z m 1874 -35 l 1943 -35 l 1957 63 l 2000 63 l 2014 -35 l 2082 -35 l 2013 374 l 1947 374 z m 1967 121 l 1978 203 l 1989 121 z m 2172 -39 b 2219 -32 2188 -42 2207 -39 b 2274 99 2267 -10 2274 49 l 2208 103 b 2182 24 2208 76 2213 29 b 2157 49 2171 22 2157 29 l 2157 289 b 2182 315 2157 310 2171 318 b 2208 238 2213 310 2208 264 l 2274 240 b 2219 369 2274 289 2267 349 b 2172 378 2207 378 2188 381 b 2090 292 2132 374 2090 343 l 2090 47 b 2172 -39 2090 -3 2132 -35 z m 2308 -35 l 2379 -35 l 2379 138 l 2440 138 l 2440 -35 l 2507 -35 l 2507 374 l 2440 374 l 2440 210 l 2379 210 l 2379 374 l 2308 374 z m 2542 -35 l 2700 -35 l 2700 35 l 2608 35 l 2608 143 l 2682 143 l 2682 215 l 2608 215 l 2608 304 l 2700 304 l 2700 374 l 2542 374 z m 2775 -35 l 2842 -35 l 2842 129 l 2911 374 l 2840 374 l 2811 210 l 2782 374 l 2713 374 l 2775 140 z m 2869 -35 l 2939 -35 l 2953 63 l 2997 63 l 3011 -35 l 3078 -35 l 3008 374 l 2944 374 z m 2964 121 l 2974 203 l 2986 121 z m 3096 -35 l 3163 -35 l 3163 143 l 3182 143 l 3217 -35 l 3285 -35 l 3240 154 b 3289 268 3276 181 3289 229 b 3214 374 3289 343 3244 374 l 3096 374 z m 3199 201 l 3163 201 l 3163 315 l 3185 315 b 3199 201 3225 315 3222 213 z m 3324 -35 l 3397 -35 b 3503 93 3471 -35 3503 4 l 3503 246 b 3388 374 3503 331 3471 374 l 3324 374 z m 3411 29 l 3388 29 l 3388 304 l 3411 304 b 3431 279 3422 304 3431 289 b 3433 222 3433 264 3433 240 l 3433 113 b 3431 51 3433 92 3433 71 b 3411 29 3431 42 3422 35 z "},"5":{"ha":4188,"x_min":0,"x_max":0,"o":"m 1386 867 l 1419 867 l 1419 956 l 1440 956 b 1515 1044 1500 956 1515 994 b 1440 1132 1515 1093 1500 1132 l 1386 1132 z m 1538 867 l 1642 867 l 1642 900 l 1571 900 l 1571 988 l 1629 988 l 1629 1019 l 1571 1019 l 1571 1099 l 1639 1099 l 1639 1132 l 1538 1132 z m 2529 581 l 2567 581 l 2567 619 l 2529 619 z m 2414 581 l 2453 581 l 2453 663 l 2510 846 l 2474 846 l 2435 704 l 2393 846 l 2357 846 l 2414 663 z m 2142 867 l 2175 867 l 2175 1035 l 2236 867 l 2272 867 l 2272 1132 l 2240 1132 l 2240 951 l 2175 1132 l 2142 1132 z m 2540 636 l 2553 636 l 2567 846 l 2529 846 z m 2290 867 l 2325 867 l 2338 929 l 2393 929 l 2404 867 l 2440 867 l 2383 1132 l 2349 1132 z m 2344 956 l 2367 1076 l 2388 956 z m 2461 867 l 2567 867 l 2567 900 l 2493 900 l 2493 1132 l 2461 1132 z m 1429 988 l 1419 988 l 1419 1100 l 1429 1100 b 1483 1044 1469 1100 1483 1086 b 1429 988 1483 1001 1469 988 z m 1665 867 l 1699 867 l 1699 976 l 1725 976 l 1760 867 l 1796 867 l 1757 985 b 1794 1056 1782 996 1794 1019 b 1719 1132 1794 1103 1768 1132 l 1665 1132 z m 1708 1008 l 1699 1008 l 1699 1100 l 1708 1100 b 1763 1056 1749 1100 1763 1086 b 1708 1008 1763 1024 1749 1008 z m 1918 1056 l 1951 1056 b 1883 1132 1951 1103 1925 1132 b 1817 1067 1843 1132 1817 1103 b 1878 993 1817 1029 1838 1010 b 1918 935 1911 976 1918 961 b 1883 900 1918 914 1908 900 b 1850 944 1863 900 1850 914 l 1817 944 b 1883 867 1817 896 1843 867 b 1951 935 1925 867 1951 896 b 1883 1025 1951 978 1939 1001 b 1850 1067 1865 1033 1850 1047 b 1883 1099 1850 1085 1863 1099 b 1918 1056 1908 1099 1918 1086 z m 2083 1063 l 2083 936 b 2046 899 2083 914 2069 899 b 2008 936 2021 899 2008 914 l 2008 1063 b 2046 1100 2008 1086 2021 1100 b 2083 1063 2069 1100 2083 1086 z m 1975 1063 l 1975 936 b 2046 867 1975 896 2001 867 b 2115 936 2089 867 2115 896 l 2115 1063 b 2046 1132 2115 1103 2089 1132 b 1975 1063 2001 1132 1975 1103 z m 1651 768 l 1683 768 b 1617 846 1683 817 1657 846 b 1550 781 1576 846 1550 817 b 1611 704 1550 742 1571 724 b 1651 647 1644 689 1651 675 b 1617 614 1651 626 1642 614 b 1583 657 1596 614 1583 626 l 1550 657 b 1617 581 1550 608 1576 581 b 1683 647 1657 581 1683 608 b 1617 739 1683 692 1672 714 b 1583 779 1599 746 1583 761 b 1617 813 1583 799 1596 813 b 1651 768 1642 813 1651 799 z m 1710 581 l 1815 581 l 1815 614 l 1743 614 l 1743 700 l 1801 700 l 1801 733 l 1743 733 l 1743 813 l 1811 813 l 1811 846 l 1710 846 z m 2107 581 l 2140 581 l 2140 747 l 2201 581 l 2238 581 l 2238 846 l 2204 846 l 2204 665 l 2140 846 l 2107 846 z m 2274 581 l 2379 581 l 2379 614 l 2307 614 l 2307 846 l 2274 846 z m 2039 776 l 2039 650 b 2001 613 2039 626 2025 613 b 1964 650 1978 613 1964 626 l 1964 776 b 2001 814 1964 799 1978 814 b 2039 776 2025 814 2039 799 z m 1931 776 l 1931 650 b 2001 581 1931 608 1957 581 b 2072 650 2046 581 2072 608 l 2072 776 b 2001 846 2072 817 2046 846 b 1931 776 1957 846 1931 817 z m 1526 650 l 1526 846 l 1494 846 l 1494 650 b 1457 613 1494 626 1481 613 b 1419 650 1432 613 1419 626 l 1419 846 l 1386 846 l 1386 650 b 1457 581 1386 608 1413 581 b 1526 650 1500 581 1526 608 z m 1386 410 l 1410 410 l 1410 468 l 1446 468 b 1496 514 1486 468 1496 494 b 1446 558 1496 532 1486 558 l 1386 558 z m 1725 410 l 1747 410 l 1763 451 l 1810 451 l 1825 410 l 1849 410 l 1799 558 l 1775 558 z m 1768 469 l 1788 531 l 1806 469 z m 1511 410 l 1604 410 l 1604 431 l 1533 431 l 1533 558 l 1511 558 z m 1438 490 l 1410 490 l 1410 536 l 1438 536 b 1474 514 1465 536 1474 528 b 1438 490 1474 500 1465 490 z m 1946 514 l 1968 514 b 1913 558 1968 539 1951 558 b 1857 519 1874 558 1857 540 b 1908 478 1857 493 1881 483 b 1946 454 1928 474 1946 469 b 1913 431 1946 442 1938 431 b 1878 454 1888 431 1878 440 l 1857 454 b 1913 410 1857 429 1874 410 b 1968 457 1949 410 1968 429 b 1915 500 1968 488 1940 494 b 1878 519 1894 504 1878 508 b 1913 536 1878 529 1888 536 b 1946 514 1938 536 1946 528 z m 1621 410 l 1714 410 l 1714 431 l 1643 431 l 1643 475 l 1704 475 l 1704 499 l 1643 499 l 1643 536 l 1711 536 l 1711 558 l 1621 558 z m 2235 558 l 2194 443 l 2158 558 l 2133 558 l 2183 410 l 2207 410 l 2257 558 z m 2269 410 l 2292 410 l 2292 558 l 2269 558 z m 2575 558 l 2476 558 l 2476 536 l 2514 536 l 2514 410 l 2536 410 l 2536 536 l 2575 536 z m 2436 410 l 2460 410 l 2460 558 l 2436 558 z m 1989 410 l 2083 410 l 2083 431 l 2013 431 l 2013 475 l 2074 475 l 2074 499 l 2013 499 l 2013 536 l 2081 536 l 2081 558 l 1989 558 z m 1474 -221 l 1499 -221 l 1499 -179 l 1522 -179 l 1543 -221 l 1569 -221 l 1543 -174 b 1568 -128 1560 -165 1568 -149 b 1513 -78 1568 -100 1549 -78 l 1474 -78 z m 1506 -156 l 1499 -156 l 1499 -101 l 1506 -101 b 1544 -128 1535 -101 1544 -111 b 1506 -156 1544 -146 1535 -156 z m 1269 -221 l 1294 -221 l 1294 -172 l 1338 -172 l 1338 -149 l 1294 -149 l 1294 -103 l 1344 -103 l 1344 -78 l 1269 -78 z m 1432 -128 l 1432 -169 b 1406 -196 1432 -186 1424 -196 b 1378 -169 1389 -196 1378 -186 l 1378 -128 b 1406 -101 1378 -111 1389 -101 b 1432 -128 1424 -101 1432 -111 z m 1354 -128 l 1354 -169 b 1406 -221 1354 -199 1374 -221 b 1457 -169 1438 -221 1457 -199 l 1457 -128 b 1406 -78 1457 -100 1438 -78 b 1354 -128 1374 -78 1354 -100 z m 1646 -221 l 1668 -221 l 1668 -103 l 1703 -103 l 1703 -78 l 1613 -78 l 1613 -103 l 1646 -103 z m 1715 -221 l 1738 -221 l 1738 -164 l 1786 -164 l 1786 -221 l 1810 -221 l 1810 -78 l 1786 -78 l 1786 -140 l 1738 -140 l 1738 -78 l 1715 -78 z m 1831 -221 l 1904 -221 l 1904 -196 l 1853 -196 l 1853 -164 l 1896 -164 l 1896 -140 l 1853 -140 l 1853 -103 l 1904 -103 l 1904 -78 l 1831 -78 z m 1968 -221 l 1990 -221 l 1990 -172 l 2033 -172 l 2033 -149 l 1990 -149 l 1990 -103 l 2042 -103 l 2042 -78 l 1968 -78 z m 2160 -169 l 2160 -78 l 2136 -78 l 2136 -169 b 2108 -196 2136 -186 2125 -196 b 2081 -169 2090 -196 2081 -186 l 2081 -78 l 2057 -78 l 2057 -169 b 2108 -221 2057 -199 2075 -221 b 2160 -169 2140 -221 2160 -199 z m 2178 -221 l 2256 -221 l 2256 -196 l 2203 -196 l 2203 -78 l 2178 -78 z m 2264 -221 l 2342 -221 l 2342 -196 l 2288 -196 l 2288 -78 l 2264 -78 z m 2376 -221 l 2400 -221 l 2411 -185 l 2450 -185 l 2460 -221 l 2486 -221 l 2442 -78 l 2419 -78 z m 2417 -165 l 2431 -118 l 2446 -165 z m 2494 -221 l 2519 -221 l 2519 -131 l 2563 -221 l 2589 -221 l 2589 -78 l 2567 -78 l 2567 -174 l 2519 -78 l 2494 -78 z m 2688 -137 l 2688 -158 b 2656 -196 2688 -178 2678 -196 l 2633 -196 l 2633 -101 l 2656 -101 b 2688 -137 2678 -101 2688 -119 z m 2608 -221 l 2656 -221 b 2711 -158 2693 -221 2711 -190 l 2711 -137 b 2656 -78 2711 -106 2693 -78 l 2608 -78 z m 1279 -294 l 1279 -335 b 1253 -362 1279 -351 1269 -362 b 1225 -335 1235 -362 1225 -351 l 1225 -294 b 1253 -267 1225 -276 1235 -267 b 1279 -294 1269 -267 1279 -276 z m 1200 -294 l 1200 -335 b 1253 -385 1200 -364 1221 -385 b 1304 -335 1285 -385 1304 -364 l 1304 -294 b 1253 -243 1304 -264 1285 -243 b 1200 -294 1221 -243 1200 -264 z m 1163 -294 l 1185 -294 b 1135 -243 1185 -264 1167 -243 b 1083 -294 1103 -243 1083 -264 l 1083 -335 b 1135 -385 1083 -364 1103 -385 b 1185 -335 1167 -385 1185 -364 l 1163 -335 b 1135 -362 1163 -351 1153 -362 b 1107 -335 1117 -362 1107 -351 l 1107 -294 b 1135 -267 1107 -276 1117 -267 b 1163 -294 1153 -267 1163 -276 z m 1321 -385 l 1343 -385 l 1343 -300 l 1374 -353 l 1381 -353 l 1410 -300 l 1410 -385 l 1435 -385 l 1435 -243 l 1419 -243 l 1378 -311 l 1336 -243 l 1321 -243 z m 1457 -385 l 1479 -385 l 1479 -300 l 1510 -353 l 1517 -353 l 1547 -300 l 1547 -385 l 1571 -385 l 1571 -243 l 1556 -243 l 1513 -311 l 1472 -243 l 1457 -243 z m 1589 -385 l 1665 -385 l 1665 -361 l 1613 -361 l 1613 -331 l 1656 -331 l 1656 -306 l 1613 -306 l 1613 -268 l 1663 -268 l 1663 -243 l 1589 -243 z m 1683 -385 l 1708 -385 l 1708 -344 l 1722 -344 l 1732 -343 l 1751 -385 l 1779 -385 l 1751 -339 b 1778 -294 1768 -331 1778 -315 b 1722 -243 1778 -264 1758 -243 l 1683 -243 z m 1715 -322 l 1708 -322 l 1708 -267 l 1715 -267 b 1754 -294 1744 -267 1754 -276 b 1715 -322 1754 -311 1744 -322 z m 1872 -294 l 1896 -294 b 1844 -243 1896 -264 1876 -243 b 1794 -294 1813 -243 1794 -264 l 1794 -335 b 1844 -385 1794 -364 1813 -385 b 1896 -335 1876 -385 1896 -364 l 1872 -335 b 1844 -362 1872 -351 1863 -362 b 1818 -335 1826 -362 1818 -351 l 1818 -294 b 1844 -267 1818 -276 1826 -267 b 1872 -294 1863 -267 1872 -276 z m 1915 -385 l 1939 -385 l 1939 -243 l 1915 -243 z m 1953 -385 l 1978 -385 l 1989 -351 l 2025 -351 l 2036 -385 l 2063 -385 l 2019 -243 l 1997 -243 z m 1993 -331 l 2007 -285 l 2022 -331 z m 2075 -385 l 2151 -385 l 2151 -361 l 2099 -361 l 2099 -243 l 2075 -243 z m 2299 -243 l 2275 -243 l 2246 -344 l 2217 -243 l 2190 -243 l 2233 -385 l 2257 -385 z m 2313 -385 l 2388 -385 l 2388 -361 l 2335 -361 l 2335 -331 l 2378 -331 l 2378 -306 l 2335 -306 l 2335 -268 l 2385 -268 l 2385 -243 l 2313 -243 z m 2408 -385 l 2432 -385 l 2432 -344 l 2447 -344 l 2456 -343 l 2478 -385 l 2504 -385 l 2478 -339 b 2503 -294 2493 -331 2503 -315 b 2447 -243 2503 -264 2483 -243 l 2408 -243 z m 2439 -322 l 2432 -322 l 2432 -267 l 2439 -267 b 2478 -294 2469 -267 2478 -276 b 2439 -322 2478 -311 2469 -322 z m 2585 -286 l 2608 -286 b 2563 -243 2608 -262 2593 -243 b 2517 -279 2532 -243 2517 -260 b 2561 -324 2517 -300 2526 -315 b 2585 -347 2581 -328 2585 -337 b 2563 -361 2585 -356 2578 -361 b 2540 -342 2547 -361 2540 -356 l 2517 -342 b 2563 -385 2517 -367 2532 -385 b 2608 -347 2593 -385 2608 -367 b 2565 -301 2608 -326 2601 -311 b 2540 -279 2546 -294 2540 -290 b 2563 -268 2540 -274 2547 -268 b 2585 -286 2578 -268 2585 -274 z m 2624 -385 l 2647 -385 l 2647 -243 l 2624 -243 z m 2743 -294 l 2743 -335 b 2715 -362 2743 -351 2733 -362 b 2688 -335 2699 -362 2688 -351 l 2688 -294 b 2715 -267 2688 -276 2699 -267 b 2743 -294 2733 -267 2743 -276 z m 2664 -294 l 2664 -335 b 2715 -385 2664 -364 2683 -385 b 2767 -335 2747 -385 2767 -364 l 2767 -294 b 2715 -243 2767 -264 2747 -243 b 2664 -294 2683 -243 2664 -264 z m 2782 -385 l 2807 -385 l 2807 -294 l 2850 -385 l 2878 -385 l 2878 -243 l 2854 -243 l 2854 -340 l 2807 -243 l 2782 -243 z m 2399 514 l 2419 514 b 2364 558 2419 539 2403 558 b 2308 519 2325 558 2308 540 b 2360 478 2308 493 2332 483 b 2399 454 2379 474 2399 469 b 2364 431 2399 442 2389 431 b 2331 454 2339 431 2331 440 l 2308 454 b 2364 410 2308 429 2325 410 b 2419 457 2400 410 2419 429 b 2367 500 2419 488 2392 494 b 2331 519 2346 504 2331 508 b 2364 536 2331 529 2339 536 b 2399 514 2389 536 2399 528 z m 471 -32 l 532 -32 l 536 133 l 569 -32 l 617 -32 l 646 138 l 653 -32 l 710 -32 l 708 376 l 639 376 l 592 119 l 543 376 l 476 376 z m 763 -32 l 828 -32 l 828 168 l 899 -32 l 949 -32 l 949 376 l 885 376 l 885 181 l 815 376 l 763 376 z m 994 -32 l 1064 -32 l 1064 42 l 994 42 z m 1204 -37 b 1276 46 1251 -31 1272 10 b 1228 181 1281 99 1265 143 b 1157 265 1203 208 1169 231 b 1186 318 1151 281 1154 321 b 1211 239 1213 315 1211 272 l 1274 243 b 1221 372 1274 292 1269 350 b 1093 292 1164 400 1096 361 b 1149 164 1093 254 1100 224 b 1211 63 1171 138 1211 106 b 1194 29 1211 46 1207 32 b 1154 115 1167 17 1154 56 l 1089 111 b 1107 11 1089 76 1094 42 b 1204 -37 1124 -26 1165 -42 z m 1453 -19 l 1454 -32 l 1508 -32 l 1508 181 l 1403 181 l 1403 119 l 1443 119 b 1403 29 1443 99 1451 13 b 1379 115 1371 40 1379 93 l 1379 263 b 1417 318 1379 293 1385 322 b 1439 232 1435 310 1439 303 l 1504 232 b 1460 368 1504 276 1508 339 b 1369 376 1435 383 1399 383 b 1310 292 1333 361 1315 325 b 1308 174 1304 254 1308 213 b 1310 60 1308 133 1304 99 b 1351 -24 1314 29 1324 -8 b 1453 -19 1381 -40 1426 -42 z m 1531 -49 l 1569 -49 l 1686 393 l 1639 393 z m 1708 -35 l 1864 -35 l 1864 35 l 1779 35 l 1779 374 l 1708 374 z m 1874 -35 l 1943 -35 l 1957 63 l 2000 63 l 2014 -35 l 2082 -35 l 2013 374 l 1947 374 z m 1967 121 l 1978 203 l 1989 121 z m 2172 -39 b 2219 -32 2188 -42 2207 -39 b 2274 99 2267 -10 2274 49 l 2208 103 b 2182 24 2208 76 2213 29 b 2157 49 2171 22 2157 29 l 2157 289 b 2182 315 2157 310 2171 318 b 2208 238 2213 310 2208 264 l 2274 240 b 2219 369 2274 289 2267 349 b 2172 378 2207 378 2188 381 b 2090 292 2132 374 2090 343 l 2090 47 b 2172 -39 2090 -3 2132 -35 z m 2308 -35 l 2379 -35 l 2379 138 l 2440 138 l 2440 -35 l 2507 -35 l 2507 374 l 2440 374 l 2440 210 l 2379 210 l 2379 374 l 2308 374 z m 2542 -35 l 2700 -35 l 2700 35 l 2608 35 l 2608 143 l 2682 143 l 2682 215 l 2608 215 l 2608 304 l 2700 304 l 2700 374 l 2542 374 z m 2775 -35 l 2842 -35 l 2842 129 l 2911 374 l 2840 374 l 2811 210 l 2782 374 l 2713 374 l 2775 140 z m 2869 -35 l 2939 -35 l 2953 63 l 2997 63 l 3011 -35 l 3078 -35 l 3008 374 l 2944 374 z m 2964 121 l 2974 203 l 2986 121 z m 3096 -35 l 3163 -35 l 3163 143 l 3182 143 l 3217 -35 l 3285 -35 l 3240 154 b 3289 268 3276 181 3289 229 b 3214 374 3289 343 3244 374 l 3096 374 z m 3199 201 l 3163 201 l 3163 315 l 3185 315 b 3199 201 3225 315 3222 213 z m 3324 -35 l 3397 -35 b 3503 93 3471 -35 3503 4 l 3503 246 b 3388 374 3503 331 3471 374 l 3324 374 z m 3411 29 l 3388 29 l 3388 304 l 3411 304 b 3431 279 3422 304 3431 289 b 3433 222 3433 264 3433 240 l 3433 113 b 3431 51 3433 92 3433 71 b 3411 29 3431 42 3422 35 z "},"6":{"ha":4188,"x_min":0,"x_max":0,"o":"m 1386 867 l 1419 867 l 1419 956 l 1440 956 b 1515 1044 1500 956 1515 994 b 1440 1132 1515 1093 1500 1132 l 1386 1132 z m 1538 867 l 1642 867 l 1642 900 l 1571 900 l 1571 988 l 1629 988 l 1629 1019 l 1571 1019 l 1571 1099 l 1639 1099 l 1639 1132 l 1538 1132 z m 2529 581 l 2567 581 l 2567 619 l 2529 619 z m 2414 581 l 2453 581 l 2453 663 l 2510 846 l 2474 846 l 2435 704 l 2393 846 l 2357 846 l 2414 663 z m 2142 867 l 2175 867 l 2175 1035 l 2236 867 l 2272 867 l 2272 1132 l 2240 1132 l 2240 951 l 2175 1132 l 2142 1132 z m 2540 636 l 2553 636 l 2567 846 l 2529 846 z m 2290 867 l 2325 867 l 2338 929 l 2393 929 l 2404 867 l 2440 867 l 2383 1132 l 2349 1132 z m 2344 956 l 2367 1076 l 2388 956 z m 2461 867 l 2567 867 l 2567 900 l 2493 900 l 2493 1132 l 2461 1132 z m 1429 988 l 1419 988 l 1419 1100 l 1429 1100 b 1483 1044 1469 1100 1483 1086 b 1429 988 1483 1001 1469 988 z m 1665 867 l 1699 867 l 1699 976 l 1725 976 l 1760 867 l 1796 867 l 1757 985 b 1794 1056 1782 996 1794 1019 b 1719 1132 1794 1103 1768 1132 l 1665 1132 z m 1708 1008 l 1699 1008 l 1699 1100 l 1708 1100 b 1763 1056 1749 1100 1763 1086 b 1708 1008 1763 1024 1749 1008 z m 1918 1056 l 1951 1056 b 1883 1132 1951 1103 1925 1132 b 1817 1067 1843 1132 1817 1103 b 1878 993 1817 1029 1838 1010 b 1918 935 1911 976 1918 961 b 1883 900 1918 914 1908 900 b 1850 944 1863 900 1850 914 l 1817 944 b 1883 867 1817 896 1843 867 b 1951 935 1925 867 1951 896 b 1883 1025 1951 978 1939 1001 b 1850 1067 1865 1033 1850 1047 b 1883 1099 1850 1085 1863 1099 b 1918 1056 1908 1099 1918 1086 z m 2083 1063 l 2083 936 b 2046 899 2083 914 2069 899 b 2008 936 2021 899 2008 914 l 2008 1063 b 2046 1100 2008 1086 2021 1100 b 2083 1063 2069 1100 2083 1086 z m 1975 1063 l 1975 936 b 2046 867 1975 896 2001 867 b 2115 936 2089 867 2115 896 l 2115 1063 b 2046 1132 2115 1103 2089 1132 b 1975 1063 2001 1132 1975 1103 z m 1651 768 l 1683 768 b 1617 846 1683 817 1657 846 b 1550 781 1576 846 1550 817 b 1611 704 1550 742 1571 724 b 1651 647 1644 689 1651 675 b 1617 614 1651 626 1642 614 b 1583 657 1596 614 1583 626 l 1550 657 b 1617 581 1550 608 1576 581 b 1683 647 1657 581 1683 608 b 1617 739 1683 692 1672 714 b 1583 779 1599 746 1583 761 b 1617 813 1583 799 1596 813 b 1651 768 1642 813 1651 799 z m 1710 581 l 1815 581 l 1815 614 l 1743 614 l 1743 700 l 1801 700 l 1801 733 l 1743 733 l 1743 813 l 1811 813 l 1811 846 l 1710 846 z m 2107 581 l 2140 581 l 2140 747 l 2201 581 l 2238 581 l 2238 846 l 2204 846 l 2204 665 l 2140 846 l 2107 846 z m 2274 581 l 2379 581 l 2379 614 l 2307 614 l 2307 846 l 2274 846 z m 2039 776 l 2039 650 b 2001 613 2039 626 2025 613 b 1964 650 1978 613 1964 626 l 1964 776 b 2001 814 1964 799 1978 814 b 2039 776 2025 814 2039 799 z m 1931 776 l 1931 650 b 2001 581 1931 608 1957 581 b 2072 650 2046 581 2072 608 l 2072 776 b 2001 846 2072 817 2046 846 b 1931 776 1957 846 1931 817 z m 1526 650 l 1526 846 l 1494 846 l 1494 650 b 1457 613 1494 626 1481 613 b 1419 650 1432 613 1419 626 l 1419 846 l 1386 846 l 1386 650 b 1457 581 1386 608 1413 581 b 1526 650 1500 581 1526 608 z m 1386 410 l 1410 410 l 1410 468 l 1446 468 b 1496 514 1486 468 1496 494 b 1446 558 1496 532 1486 558 l 1386 558 z m 1725 410 l 1747 410 l 1763 451 l 1810 451 l 1825 410 l 1849 410 l 1799 558 l 1775 558 z m 1768 469 l 1788 531 l 1806 469 z m 1511 410 l 1604 410 l 1604 431 l 1533 431 l 1533 558 l 1511 558 z m 1438 490 l 1410 490 l 1410 536 l 1438 536 b 1474 514 1465 536 1474 528 b 1438 490 1474 500 1465 490 z m 1946 514 l 1968 514 b 1913 558 1968 539 1951 558 b 1857 519 1874 558 1857 540 b 1908 478 1857 493 1881 483 b 1946 454 1928 474 1946 469 b 1913 431 1946 442 1938 431 b 1878 454 1888 431 1878 440 l 1857 454 b 1913 410 1857 429 1874 410 b 1968 457 1949 410 1968 429 b 1915 500 1968 488 1940 494 b 1878 519 1894 504 1878 508 b 1913 536 1878 529 1888 536 b 1946 514 1938 536 1946 528 z m 1621 410 l 1714 410 l 1714 431 l 1643 431 l 1643 475 l 1704 475 l 1704 499 l 1643 499 l 1643 536 l 1711 536 l 1711 558 l 1621 558 z m 2235 558 l 2194 443 l 2158 558 l 2133 558 l 2183 410 l 2207 410 l 2257 558 z m 2269 410 l 2292 410 l 2292 558 l 2269 558 z m 2575 558 l 2476 558 l 2476 536 l 2514 536 l 2514 410 l 2536 410 l 2536 536 l 2575 536 z m 2436 410 l 2460 410 l 2460 558 l 2436 558 z m 1989 410 l 2083 410 l 2083 431 l 2013 431 l 2013 475 l 2074 475 l 2074 499 l 2013 499 l 2013 536 l 2081 536 l 2081 558 l 1989 558 z m 1474 -221 l 1499 -221 l 1499 -179 l 1522 -179 l 1543 -221 l 1569 -221 l 1543 -174 b 1568 -128 1560 -165 1568 -149 b 1513 -78 1568 -100 1549 -78 l 1474 -78 z m 1506 -156 l 1499 -156 l 1499 -101 l 1506 -101 b 1544 -128 1535 -101 1544 -111 b 1506 -156 1544 -146 1535 -156 z m 1269 -221 l 1294 -221 l 1294 -172 l 1338 -172 l 1338 -149 l 1294 -149 l 1294 -103 l 1344 -103 l 1344 -78 l 1269 -78 z m 1432 -128 l 1432 -169 b 1406 -196 1432 -186 1424 -196 b 1378 -169 1389 -196 1378 -186 l 1378 -128 b 1406 -101 1378 -111 1389 -101 b 1432 -128 1424 -101 1432 -111 z m 1354 -128 l 1354 -169 b 1406 -221 1354 -199 1374 -221 b 1457 -169 1438 -221 1457 -199 l 1457 -128 b 1406 -78 1457 -100 1438 -78 b 1354 -128 1374 -78 1354 -100 z m 1646 -221 l 1668 -221 l 1668 -103 l 1703 -103 l 1703 -78 l 1613 -78 l 1613 -103 l 1646 -103 z m 1715 -221 l 1738 -221 l 1738 -164 l 1786 -164 l 1786 -221 l 1810 -221 l 1810 -78 l 1786 -78 l 1786 -140 l 1738 -140 l 1738 -78 l 1715 -78 z m 1831 -221 l 1904 -221 l 1904 -196 l 1853 -196 l 1853 -164 l 1896 -164 l 1896 -140 l 1853 -140 l 1853 -103 l 1904 -103 l 1904 -78 l 1831 -78 z m 1968 -221 l 1990 -221 l 1990 -172 l 2033 -172 l 2033 -149 l 1990 -149 l 1990 -103 l 2042 -103 l 2042 -78 l 1968 -78 z m 2160 -169 l 2160 -78 l 2136 -78 l 2136 -169 b 2108 -196 2136 -186 2125 -196 b 2081 -169 2090 -196 2081 -186 l 2081 -78 l 2057 -78 l 2057 -169 b 2108 -221 2057 -199 2075 -221 b 2160 -169 2140 -221 2160 -199 z m 2178 -221 l 2256 -221 l 2256 -196 l 2203 -196 l 2203 -78 l 2178 -78 z m 2264 -221 l 2342 -221 l 2342 -196 l 2288 -196 l 2288 -78 l 2264 -78 z m 2376 -221 l 2400 -221 l 2411 -185 l 2450 -185 l 2460 -221 l 2486 -221 l 2442 -78 l 2419 -78 z m 2417 -165 l 2431 -118 l 2446 -165 z m 2494 -221 l 2519 -221 l 2519 -131 l 2563 -221 l 2589 -221 l 2589 -78 l 2567 -78 l 2567 -174 l 2519 -78 l 2494 -78 z m 2688 -137 l 2688 -158 b 2656 -196 2688 -178 2678 -196 l 2633 -196 l 2633 -101 l 2656 -101 b 2688 -137 2678 -101 2688 -119 z m 2608 -221 l 2656 -221 b 2711 -158 2693 -221 2711 -190 l 2711 -137 b 2656 -78 2711 -106 2693 -78 l 2608 -78 z m 1279 -294 l 1279 -335 b 1253 -362 1279 -351 1269 -362 b 1225 -335 1235 -362 1225 -351 l 1225 -294 b 1253 -267 1225 -276 1235 -267 b 1279 -294 1269 -267 1279 -276 z m 1200 -294 l 1200 -335 b 1253 -385 1200 -364 1221 -385 b 1304 -335 1285 -385 1304 -364 l 1304 -294 b 1253 -243 1304 -264 1285 -243 b 1200 -294 1221 -243 1200 -264 z m 1163 -294 l 1185 -294 b 1135 -243 1185 -264 1167 -243 b 1083 -294 1103 -243 1083 -264 l 1083 -335 b 1135 -385 1083 -364 1103 -385 b 1185 -335 1167 -385 1185 -364 l 1163 -335 b 1135 -362 1163 -351 1153 -362 b 1107 -335 1117 -362 1107 -351 l 1107 -294 b 1135 -267 1107 -276 1117 -267 b 1163 -294 1153 -267 1163 -276 z m 1321 -385 l 1343 -385 l 1343 -300 l 1374 -353 l 1381 -353 l 1410 -300 l 1410 -385 l 1435 -385 l 1435 -243 l 1419 -243 l 1378 -311 l 1336 -243 l 1321 -243 z m 1457 -385 l 1479 -385 l 1479 -300 l 1510 -353 l 1517 -353 l 1547 -300 l 1547 -385 l 1571 -385 l 1571 -243 l 1556 -243 l 1513 -311 l 1472 -243 l 1457 -243 z m 1589 -385 l 1665 -385 l 1665 -361 l 1613 -361 l 1613 -331 l 1656 -331 l 1656 -306 l 1613 -306 l 1613 -268 l 1663 -268 l 1663 -243 l 1589 -243 z m 1683 -385 l 1708 -385 l 1708 -344 l 1722 -344 l 1732 -343 l 1751 -385 l 1779 -385 l 1751 -339 b 1778 -294 1768 -331 1778 -315 b 1722 -243 1778 -264 1758 -243 l 1683 -243 z m 1715 -322 l 1708 -322 l 1708 -267 l 1715 -267 b 1754 -294 1744 -267 1754 -276 b 1715 -322 1754 -311 1744 -322 z m 1872 -294 l 1896 -294 b 1844 -243 1896 -264 1876 -243 b 1794 -294 1813 -243 1794 -264 l 1794 -335 b 1844 -385 1794 -364 1813 -385 b 1896 -335 1876 -385 1896 -364 l 1872 -335 b 1844 -362 1872 -351 1863 -362 b 1818 -335 1826 -362 1818 -351 l 1818 -294 b 1844 -267 1818 -276 1826 -267 b 1872 -294 1863 -267 1872 -276 z m 1915 -385 l 1939 -385 l 1939 -243 l 1915 -243 z m 1953 -385 l 1978 -385 l 1989 -351 l 2025 -351 l 2036 -385 l 2063 -385 l 2019 -243 l 1997 -243 z m 1993 -331 l 2007 -285 l 2022 -331 z m 2075 -385 l 2151 -385 l 2151 -361 l 2099 -361 l 2099 -243 l 2075 -243 z m 2299 -243 l 2275 -243 l 2246 -344 l 2217 -243 l 2190 -243 l 2233 -385 l 2257 -385 z m 2313 -385 l 2388 -385 l 2388 -361 l 2335 -361 l 2335 -331 l 2378 -331 l 2378 -306 l 2335 -306 l 2335 -268 l 2385 -268 l 2385 -243 l 2313 -243 z m 2408 -385 l 2432 -385 l 2432 -344 l 2447 -344 l 2456 -343 l 2478 -385 l 2504 -385 l 2478 -339 b 2503 -294 2493 -331 2503 -315 b 2447 -243 2503 -264 2483 -243 l 2408 -243 z m 2439 -322 l 2432 -322 l 2432 -267 l 2439 -267 b 2478 -294 2469 -267 2478 -276 b 2439 -322 2478 -311 2469 -322 z m 2585 -286 l 2608 -286 b 2563 -243 2608 -262 2593 -243 b 2517 -279 2532 -243 2517 -260 b 2561 -324 2517 -300 2526 -315 b 2585 -347 2581 -328 2585 -337 b 2563 -361 2585 -356 2578 -361 b 2540 -342 2547 -361 2540 -356 l 2517 -342 b 2563 -385 2517 -367 2532 -385 b 2608 -347 2593 -385 2608 -367 b 2565 -301 2608 -326 2601 -311 b 2540 -279 2546 -294 2540 -290 b 2563 -268 2540 -274 2547 -268 b 2585 -286 2578 -268 2585 -274 z m 2624 -385 l 2647 -385 l 2647 -243 l 2624 -243 z m 2743 -294 l 2743 -335 b 2715 -362 2743 -351 2733 -362 b 2688 -335 2699 -362 2688 -351 l 2688 -294 b 2715 -267 2688 -276 2699 -267 b 2743 -294 2733 -267 2743 -276 z m 2664 -294 l 2664 -335 b 2715 -385 2664 -364 2683 -385 b 2767 -335 2747 -385 2767 -364 l 2767 -294 b 2715 -243 2767 -264 2747 -243 b 2664 -294 2683 -243 2664 -264 z m 2782 -385 l 2807 -385 l 2807 -294 l 2850 -385 l 2878 -385 l 2878 -243 l 2854 -243 l 2854 -340 l 2807 -243 l 2782 -243 z m 2399 514 l 2419 514 b 2364 558 2419 539 2403 558 b 2308 519 2325 558 2308 540 b 2360 478 2308 493 2332 483 b 2399 454 2379 474 2399 469 b 2364 431 2399 442 2389 431 b 2331 454 2339 431 2331 440 l 2308 454 b 2364 410 2308 429 2325 410 b 2419 457 2400 410 2419 429 b 2367 500 2419 488 2392 494 b 2331 519 2346 504 2331 508 b 2364 536 2331 529 2339 536 b 2399 514 2389 536 2399 528 z m 471 -32 l 532 -32 l 536 133 l 569 -32 l 617 -32 l 646 138 l 653 -32 l 710 -32 l 708 376 l 639 376 l 592 119 l 543 376 l 476 376 z m 763 -32 l 828 -32 l 828 168 l 899 -32 l 949 -32 l 949 376 l 885 376 l 885 181 l 815 376 l 763 376 z m 994 -32 l 1064 -32 l 1064 42 l 994 42 z m 1204 -37 b 1276 46 1251 -31 1272 10 b 1228 181 1281 99 1265 143 b 1157 265 1203 208 1169 231 b 1186 318 1151 281 1154 321 b 1211 239 1213 315 1211 272 l 1274 243 b 1221 372 1274 292 1269 350 b 1093 292 1164 400 1096 361 b 1149 164 1093 254 1100 224 b 1211 63 1171 138 1211 106 b 1194 29 1211 46 1207 32 b 1154 115 1167 17 1154 56 l 1089 111 b 1107 11 1089 76 1094 42 b 1204 -37 1124 -26 1165 -42 z m 1453 -19 l 1454 -32 l 1508 -32 l 1508 181 l 1403 181 l 1403 119 l 1443 119 b 1403 29 1443 99 1451 13 b 1379 115 1371 40 1379 93 l 1379 263 b 1417 318 1379 293 1385 322 b 1439 232 1435 310 1439 303 l 1504 232 b 1460 368 1504 276 1508 339 b 1369 376 1435 383 1399 383 b 1310 292 1333 361 1315 325 b 1308 174 1304 254 1308 213 b 1310 60 1308 133 1304 99 b 1351 -24 1314 29 1324 -8 b 1453 -19 1381 -40 1426 -42 z m 1531 -49 l 1569 -49 l 1686 393 l 1639 393 z m 1708 -35 l 1864 -35 l 1864 35 l 1779 35 l 1779 374 l 1708 374 z m 1874 -35 l 1943 -35 l 1957 63 l 2000 63 l 2014 -35 l 2082 -35 l 2013 374 l 1947 374 z m 1967 121 l 1978 203 l 1989 121 z m 2172 -39 b 2219 -32 2188 -42 2207 -39 b 2274 99 2267 -10 2274 49 l 2208 103 b 2182 24 2208 76 2213 29 b 2157 49 2171 22 2157 29 l 2157 289 b 2182 315 2157 310 2171 318 b 2208 238 2213 310 2208 264 l 2274 240 b 2219 369 2274 289 2267 349 b 2172 378 2207 378 2188 381 b 2090 292 2132 374 2090 343 l 2090 47 b 2172 -39 2090 -3 2132 -35 z m 2308 -35 l 2379 -35 l 2379 138 l 2440 138 l 2440 -35 l 2507 -35 l 2507 374 l 2440 374 l 2440 210 l 2379 210 l 2379 374 l 2308 374 z m 2542 -35 l 2700 -35 l 2700 35 l 2608 35 l 2608 143 l 2682 143 l 2682 215 l 2608 215 l 2608 304 l 2700 304 l 2700 374 l 2542 374 z m 2775 -35 l 2842 -35 l 2842 129 l 2911 374 l 2840 374 l 2811 210 l 2782 374 l 2713 374 l 2775 140 z m 2869 -35 l 2939 -35 l 2953 63 l 2997 63 l 3011 -35 l 3078 -35 l 3008 374 l 2944 374 z m 2964 121 l 2974 203 l 2986 121 z m 3096 -35 l 3163 -35 l 3163 143 l 3182 143 l 3217 -35 l 3285 -35 l 3240 154 b 3289 268 3276 181 3289 229 b 3214 374 3289 343 3244 374 l 3096 374 z m 3199 201 l 3163 201 l 3163 315 l 3185 315 b 3199 201 3225 315 3222 213 z m 3324 -35 l 3397 -35 b 3503 93 3471 -35 3503 4 l 3503 246 b 3388 374 3503 331 3471 374 l 3324 374 z m 3411 29 l 3388 29 l 3388 304 l 3411 304 b 3431 279 3422 304 3431 289 b 3433 222 3433 264 3433 240 l 3433 113 b 3431 51 3433 92 3433 71 b 3411 29 3431 42 3422 35 z "},"7":{"ha":4188,"x_min":0,"x_max":0,"o":"m 1386 867 l 1419 867 l 1419 956 l 1440 956 b 1515 1044 1500 956 1515 994 b 1440 1132 1515 1093 1500 1132 l 1386 1132 z m 1538 867 l 1642 867 l 1642 900 l 1571 900 l 1571 988 l 1629 988 l 1629 1019 l 1571 1019 l 1571 1099 l 1639 1099 l 1639 1132 l 1538 1132 z m 2529 581 l 2567 581 l 2567 619 l 2529 619 z m 2414 581 l 2453 581 l 2453 663 l 2510 846 l 2474 846 l 2435 704 l 2393 846 l 2357 846 l 2414 663 z m 2142 867 l 2175 867 l 2175 1035 l 2236 867 l 2272 867 l 2272 1132 l 2240 1132 l 2240 951 l 2175 1132 l 2142 1132 z m 2540 636 l 2553 636 l 2567 846 l 2529 846 z m 2290 867 l 2325 867 l 2338 929 l 2393 929 l 2404 867 l 2440 867 l 2383 1132 l 2349 1132 z m 2344 956 l 2367 1076 l 2388 956 z m 2461 867 l 2567 867 l 2567 900 l 2493 900 l 2493 1132 l 2461 1132 z m 1429 988 l 1419 988 l 1419 1100 l 1429 1100 b 1483 1044 1469 1100 1483 1086 b 1429 988 1483 1001 1469 988 z m 1665 867 l 1699 867 l 1699 976 l 1725 976 l 1760 867 l 1796 867 l 1757 985 b 1794 1056 1782 996 1794 1019 b 1719 1132 1794 1103 1768 1132 l 1665 1132 z m 1708 1008 l 1699 1008 l 1699 1100 l 1708 1100 b 1763 1056 1749 1100 1763 1086 b 1708 1008 1763 1024 1749 1008 z m 1918 1056 l 1951 1056 b 1883 1132 1951 1103 1925 1132 b 1817 1067 1843 1132 1817 1103 b 1878 993 1817 1029 1838 1010 b 1918 935 1911 976 1918 961 b 1883 900 1918 914 1908 900 b 1850 944 1863 900 1850 914 l 1817 944 b 1883 867 1817 896 1843 867 b 1951 935 1925 867 1951 896 b 1883 1025 1951 978 1939 1001 b 1850 1067 1865 1033 1850 1047 b 1883 1099 1850 1085 1863 1099 b 1918 1056 1908 1099 1918 1086 z m 2083 1063 l 2083 936 b 2046 899 2083 914 2069 899 b 2008 936 2021 899 2008 914 l 2008 1063 b 2046 1100 2008 1086 2021 1100 b 2083 1063 2069 1100 2083 1086 z m 1975 1063 l 1975 936 b 2046 867 1975 896 2001 867 b 2115 936 2089 867 2115 896 l 2115 1063 b 2046 1132 2115 1103 2089 1132 b 1975 1063 2001 1132 1975 1103 z m 1651 768 l 1683 768 b 1617 846 1683 817 1657 846 b 1550 781 1576 846 1550 817 b 1611 704 1550 742 1571 724 b 1651 647 1644 689 1651 675 b 1617 614 1651 626 1642 614 b 1583 657 1596 614 1583 626 l 1550 657 b 1617 581 1550 608 1576 581 b 1683 647 1657 581 1683 608 b 1617 739 1683 692 1672 714 b 1583 779 1599 746 1583 761 b 1617 813 1583 799 1596 813 b 1651 768 1642 813 1651 799 z m 1710 581 l 1815 581 l 1815 614 l 1743 614 l 1743 700 l 1801 700 l 1801 733 l 1743 733 l 1743 813 l 1811 813 l 1811 846 l 1710 846 z m 2107 581 l 2140 581 l 2140 747 l 2201 581 l 2238 581 l 2238 846 l 2204 846 l 2204 665 l 2140 846 l 2107 846 z m 2274 581 l 2379 581 l 2379 614 l 2307 614 l 2307 846 l 2274 846 z m 2039 776 l 2039 650 b 2001 613 2039 626 2025 613 b 1964 650 1978 613 1964 626 l 1964 776 b 2001 814 1964 799 1978 814 b 2039 776 2025 814 2039 799 z m 1931 776 l 1931 650 b 2001 581 1931 608 1957 581 b 2072 650 2046 581 2072 608 l 2072 776 b 2001 846 2072 817 2046 846 b 1931 776 1957 846 1931 817 z m 1526 650 l 1526 846 l 1494 846 l 1494 650 b 1457 613 1494 626 1481 613 b 1419 650 1432 613 1419 626 l 1419 846 l 1386 846 l 1386 650 b 1457 581 1386 608 1413 581 b 1526 650 1500 581 1526 608 z m 1386 410 l 1410 410 l 1410 468 l 1446 468 b 1496 514 1486 468 1496 494 b 1446 558 1496 532 1486 558 l 1386 558 z m 1725 410 l 1747 410 l 1763 451 l 1810 451 l 1825 410 l 1849 410 l 1799 558 l 1775 558 z m 1768 469 l 1788 531 l 1806 469 z m 1511 410 l 1604 410 l 1604 431 l 1533 431 l 1533 558 l 1511 558 z m 1438 490 l 1410 490 l 1410 536 l 1438 536 b 1474 514 1465 536 1474 528 b 1438 490 1474 500 1465 490 z m 1946 514 l 1968 514 b 1913 558 1968 539 1951 558 b 1857 519 1874 558 1857 540 b 1908 478 1857 493 1881 483 b 1946 454 1928 474 1946 469 b 1913 431 1946 442 1938 431 b 1878 454 1888 431 1878 440 l 1857 454 b 1913 410 1857 429 1874 410 b 1968 457 1949 410 1968 429 b 1915 500 1968 488 1940 494 b 1878 519 1894 504 1878 508 b 1913 536 1878 529 1888 536 b 1946 514 1938 536 1946 528 z m 1621 410 l 1714 410 l 1714 431 l 1643 431 l 1643 475 l 1704 475 l 1704 499 l 1643 499 l 1643 536 l 1711 536 l 1711 558 l 1621 558 z m 2235 558 l 2194 443 l 2158 558 l 2133 558 l 2183 410 l 2207 410 l 2257 558 z m 2269 410 l 2292 410 l 2292 558 l 2269 558 z m 2575 558 l 2476 558 l 2476 536 l 2514 536 l 2514 410 l 2536 410 l 2536 536 l 2575 536 z m 2436 410 l 2460 410 l 2460 558 l 2436 558 z m 1989 410 l 2083 410 l 2083 431 l 2013 431 l 2013 475 l 2074 475 l 2074 499 l 2013 499 l 2013 536 l 2081 536 l 2081 558 l 1989 558 z m 1474 -221 l 1499 -221 l 1499 -179 l 1522 -179 l 1543 -221 l 1569 -221 l 1543 -174 b 1568 -128 1560 -165 1568 -149 b 1513 -78 1568 -100 1549 -78 l 1474 -78 z m 1506 -156 l 1499 -156 l 1499 -101 l 1506 -101 b 1544 -128 1535 -101 1544 -111 b 1506 -156 1544 -146 1535 -156 z m 1269 -221 l 1294 -221 l 1294 -172 l 1338 -172 l 1338 -149 l 1294 -149 l 1294 -103 l 1344 -103 l 1344 -78 l 1269 -78 z m 1432 -128 l 1432 -169 b 1406 -196 1432 -186 1424 -196 b 1378 -169 1389 -196 1378 -186 l 1378 -128 b 1406 -101 1378 -111 1389 -101 b 1432 -128 1424 -101 1432 -111 z m 1354 -128 l 1354 -169 b 1406 -221 1354 -199 1374 -221 b 1457 -169 1438 -221 1457 -199 l 1457 -128 b 1406 -78 1457 -100 1438 -78 b 1354 -128 1374 -78 1354 -100 z m 1646 -221 l 1668 -221 l 1668 -103 l 1703 -103 l 1703 -78 l 1613 -78 l 1613 -103 l 1646 -103 z m 1715 -221 l 1738 -221 l 1738 -164 l 1786 -164 l 1786 -221 l 1810 -221 l 1810 -78 l 1786 -78 l 1786 -140 l 1738 -140 l 1738 -78 l 1715 -78 z m 1831 -221 l 1904 -221 l 1904 -196 l 1853 -196 l 1853 -164 l 1896 -164 l 1896 -140 l 1853 -140 l 1853 -103 l 1904 -103 l 1904 -78 l 1831 -78 z m 1968 -221 l 1990 -221 l 1990 -172 l 2033 -172 l 2033 -149 l 1990 -149 l 1990 -103 l 2042 -103 l 2042 -78 l 1968 -78 z m 2160 -169 l 2160 -78 l 2136 -78 l 2136 -169 b 2108 -196 2136 -186 2125 -196 b 2081 -169 2090 -196 2081 -186 l 2081 -78 l 2057 -78 l 2057 -169 b 2108 -221 2057 -199 2075 -221 b 2160 -169 2140 -221 2160 -199 z m 2178 -221 l 2256 -221 l 2256 -196 l 2203 -196 l 2203 -78 l 2178 -78 z m 2264 -221 l 2342 -221 l 2342 -196 l 2288 -196 l 2288 -78 l 2264 -78 z m 2376 -221 l 2400 -221 l 2411 -185 l 2450 -185 l 2460 -221 l 2486 -221 l 2442 -78 l 2419 -78 z m 2417 -165 l 2431 -118 l 2446 -165 z m 2494 -221 l 2519 -221 l 2519 -131 l 2563 -221 l 2589 -221 l 2589 -78 l 2567 -78 l 2567 -174 l 2519 -78 l 2494 -78 z m 2688 -137 l 2688 -158 b 2656 -196 2688 -178 2678 -196 l 2633 -196 l 2633 -101 l 2656 -101 b 2688 -137 2678 -101 2688 -119 z m 2608 -221 l 2656 -221 b 2711 -158 2693 -221 2711 -190 l 2711 -137 b 2656 -78 2711 -106 2693 -78 l 2608 -78 z m 1279 -294 l 1279 -335 b 1253 -362 1279 -351 1269 -362 b 1225 -335 1235 -362 1225 -351 l 1225 -294 b 1253 -267 1225 -276 1235 -267 b 1279 -294 1269 -267 1279 -276 z m 1200 -294 l 1200 -335 b 1253 -385 1200 -364 1221 -385 b 1304 -335 1285 -385 1304 -364 l 1304 -294 b 1253 -243 1304 -264 1285 -243 b 1200 -294 1221 -243 1200 -264 z m 1163 -294 l 1185 -294 b 1135 -243 1185 -264 1167 -243 b 1083 -294 1103 -243 1083 -264 l 1083 -335 b 1135 -385 1083 -364 1103 -385 b 1185 -335 1167 -385 1185 -364 l 1163 -335 b 1135 -362 1163 -351 1153 -362 b 1107 -335 1117 -362 1107 -351 l 1107 -294 b 1135 -267 1107 -276 1117 -267 b 1163 -294 1153 -267 1163 -276 z m 1321 -385 l 1343 -385 l 1343 -300 l 1374 -353 l 1381 -353 l 1410 -300 l 1410 -385 l 1435 -385 l 1435 -243 l 1419 -243 l 1378 -311 l 1336 -243 l 1321 -243 z m 1457 -385 l 1479 -385 l 1479 -300 l 1510 -353 l 1517 -353 l 1547 -300 l 1547 -385 l 1571 -385 l 1571 -243 l 1556 -243 l 1513 -311 l 1472 -243 l 1457 -243 z m 1589 -385 l 1665 -385 l 1665 -361 l 1613 -361 l 1613 -331 l 1656 -331 l 1656 -306 l 1613 -306 l 1613 -268 l 1663 -268 l 1663 -243 l 1589 -243 z m 1683 -385 l 1708 -385 l 1708 -344 l 1722 -344 l 1732 -343 l 1751 -385 l 1779 -385 l 1751 -339 b 1778 -294 1768 -331 1778 -315 b 1722 -243 1778 -264 1758 -243 l 1683 -243 z m 1715 -322 l 1708 -322 l 1708 -267 l 1715 -267 b 1754 -294 1744 -267 1754 -276 b 1715 -322 1754 -311 1744 -322 z m 1872 -294 l 1896 -294 b 1844 -243 1896 -264 1876 -243 b 1794 -294 1813 -243 1794 -264 l 1794 -335 b 1844 -385 1794 -364 1813 -385 b 1896 -335 1876 -385 1896 -364 l 1872 -335 b 1844 -362 1872 -351 1863 -362 b 1818 -335 1826 -362 1818 -351 l 1818 -294 b 1844 -267 1818 -276 1826 -267 b 1872 -294 1863 -267 1872 -276 z m 1915 -385 l 1939 -385 l 1939 -243 l 1915 -243 z m 1953 -385 l 1978 -385 l 1989 -351 l 2025 -351 l 2036 -385 l 2063 -385 l 2019 -243 l 1997 -243 z m 1993 -331 l 2007 -285 l 2022 -331 z m 2075 -385 l 2151 -385 l 2151 -361 l 2099 -361 l 2099 -243 l 2075 -243 z m 2299 -243 l 2275 -243 l 2246 -344 l 2217 -243 l 2190 -243 l 2233 -385 l 2257 -385 z m 2313 -385 l 2388 -385 l 2388 -361 l 2335 -361 l 2335 -331 l 2378 -331 l 2378 -306 l 2335 -306 l 2335 -268 l 2385 -268 l 2385 -243 l 2313 -243 z m 2408 -385 l 2432 -385 l 2432 -344 l 2447 -344 l 2456 -343 l 2478 -385 l 2504 -385 l 2478 -339 b 2503 -294 2493 -331 2503 -315 b 2447 -243 2503 -264 2483 -243 l 2408 -243 z m 2439 -322 l 2432 -322 l 2432 -267 l 2439 -267 b 2478 -294 2469 -267 2478 -276 b 2439 -322 2478 -311 2469 -322 z m 2585 -286 l 2608 -286 b 2563 -243 2608 -262 2593 -243 b 2517 -279 2532 -243 2517 -260 b 2561 -324 2517 -300 2526 -315 b 2585 -347 2581 -328 2585 -337 b 2563 -361 2585 -356 2578 -361 b 2540 -342 2547 -361 2540 -356 l 2517 -342 b 2563 -385 2517 -367 2532 -385 b 2608 -347 2593 -385 2608 -367 b 2565 -301 2608 -326 2601 -311 b 2540 -279 2546 -294 2540 -290 b 2563 -268 2540 -274 2547 -268 b 2585 -286 2578 -268 2585 -274 z m 2624 -385 l 2647 -385 l 2647 -243 l 2624 -243 z m 2743 -294 l 2743 -335 b 2715 -362 2743 -351 2733 -362 b 2688 -335 2699 -362 2688 -351 l 2688 -294 b 2715 -267 2688 -276 2699 -267 b 2743 -294 2733 -267 2743 -276 z m 2664 -294 l 2664 -335 b 2715 -385 2664 -364 2683 -385 b 2767 -335 2747 -385 2767 -364 l 2767 -294 b 2715 -243 2767 -264 2747 -243 b 2664 -294 2683 -243 2664 -264 z m 2782 -385 l 2807 -385 l 2807 -294 l 2850 -385 l 2878 -385 l 2878 -243 l 2854 -243 l 2854 -340 l 2807 -243 l 2782 -243 z m 2399 514 l 2419 514 b 2364 558 2419 539 2403 558 b 2308 519 2325 558 2308 540 b 2360 478 2308 493 2332 483 b 2399 454 2379 474 2399 469 b 2364 431 2399 442 2389 431 b 2331 454 2339 431 2331 440 l 2308 454 b 2364 410 2308 429 2325 410 b 2419 457 2400 410 2419 429 b 2367 500 2419 488 2392 494 b 2331 519 2346 504 2331 508 b 2364 536 2331 529 2339 536 b 2399 514 2389 536 2399 528 z m 471 -32 l 532 -32 l 536 133 l 569 -32 l 617 -32 l 646 138 l 653 -32 l 710 -32 l 708 376 l 639 376 l 592 119 l 543 376 l 476 376 z m 763 -32 l 828 -32 l 828 168 l 899 -32 l 949 -32 l 949 376 l 885 376 l 885 181 l 815 376 l 763 376 z m 994 -32 l 1064 -32 l 1064 42 l 994 42 z m 1204 -37 b 1276 46 1251 -31 1272 10 b 1228 181 1281 99 1265 143 b 1157 265 1203 208 1169 231 b 1186 318 1151 281 1154 321 b 1211 239 1213 315 1211 272 l 1274 243 b 1221 372 1274 292 1269 350 b 1093 292 1164 400 1096 361 b 1149 164 1093 254 1100 224 b 1211 63 1171 138 1211 106 b 1194 29 1211 46 1207 32 b 1154 115 1167 17 1154 56 l 1089 111 b 1107 11 1089 76 1094 42 b 1204 -37 1124 -26 1165 -42 z m 1453 -19 l 1454 -32 l 1508 -32 l 1508 181 l 1403 181 l 1403 119 l 1443 119 b 1403 29 1443 99 1451 13 b 1379 115 1371 40 1379 93 l 1379 263 b 1417 318 1379 293 1385 322 b 1439 232 1435 310 1439 303 l 1504 232 b 1460 368 1504 276 1508 339 b 1369 376 1435 383 1399 383 b 1310 292 1333 361 1315 325 b 1308 174 1304 254 1308 213 b 1310 60 1308 133 1304 99 b 1351 -24 1314 29 1324 -8 b 1453 -19 1381 -40 1426 -42 z m 1531 -49 l 1569 -49 l 1686 393 l 1639 393 z m 1708 -35 l 1864 -35 l 1864 35 l 1779 35 l 1779 374 l 1708 374 z m 1874 -35 l 1943 -35 l 1957 63 l 2000 63 l 2014 -35 l 2082 -35 l 2013 374 l 1947 374 z m 1967 121 l 1978 203 l 1989 121 z m 2172 -39 b 2219 -32 2188 -42 2207 -39 b 2274 99 2267 -10 2274 49 l 2208 103 b 2182 24 2208 76 2213 29 b 2157 49 2171 22 2157 29 l 2157 289 b 2182 315 2157 310 2171 318 b 2208 238 2213 310 2208 264 l 2274 240 b 2219 369 2274 289 2267 349 b 2172 378 2207 378 2188 381 b 2090 292 2132 374 2090 343 l 2090 47 b 2172 -39 2090 -3 2132 -35 z m 2308 -35 l 2379 -35 l 2379 138 l 2440 138 l 2440 -35 l 2507 -35 l 2507 374 l 2440 374 l 2440 210 l 2379 210 l 2379 374 l 2308 374 z m 2542 -35 l 2700 -35 l 2700 35 l 2608 35 l 2608 143 l 2682 143 l 2682 215 l 2608 215 l 2608 304 l 2700 304 l 2700 374 l 2542 374 z m 2775 -35 l 2842 -35 l 2842 129 l 2911 374 l 2840 374 l 2811 210 l 2782 374 l 2713 374 l 2775 140 z m 2869 -35 l 2939 -35 l 2953 63 l 2997 63 l 3011 -35 l 3078 -35 l 3008 374 l 2944 374 z m 2964 121 l 2974 203 l 2986 121 z m 3096 -35 l 3163 -35 l 3163 143 l 3182 143 l 3217 -35 l 3285 -35 l 3240 154 b 3289 268 3276 181 3289 229 b 3214 374 3289 343 3244 374 l 3096 374 z m 3199 201 l 3163 201 l 3163 315 l 3185 315 b 3199 201 3225 315 3222 213 z m 3324 -35 l 3397 -35 b 3503 93 3471 -35 3503 4 l 3503 246 b 3388 374 3503 331 3471 374 l 3324 374 z m 3411 29 l 3388 29 l 3388 304 l 3411 304 b 3431 279 3422 304 3431 289 b 3433 222 3433 264 3433 240 l 3433 113 b 3431 51 3433 92 3433 71 b 3411 29 3431 42 3422 35 z "},"8":{"ha":4188,"x_min":0,"x_max":0,"o":"m 1386 867 l 1419 867 l 1419 956 l 1440 956 b 1515 1044 1500 956 1515 994 b 1440 1132 1515 1093 1500 1132 l 1386 1132 z m 1538 867 l 1642 867 l 1642 900 l 1571 900 l 1571 988 l 1629 988 l 1629 1019 l 1571 1019 l 1571 1099 l 1639 1099 l 1639 1132 l 1538 1132 z m 2529 581 l 2567 581 l 2567 619 l 2529 619 z m 2414 581 l 2453 581 l 2453 663 l 2510 846 l 2474 846 l 2435 704 l 2393 846 l 2357 846 l 2414 663 z m 2142 867 l 2175 867 l 2175 1035 l 2236 867 l 2272 867 l 2272 1132 l 2240 1132 l 2240 951 l 2175 1132 l 2142 1132 z m 2540 636 l 2553 636 l 2567 846 l 2529 846 z m 2290 867 l 2325 867 l 2338 929 l 2393 929 l 2404 867 l 2440 867 l 2383 1132 l 2349 1132 z m 2344 956 l 2367 1076 l 2388 956 z m 2461 867 l 2567 867 l 2567 900 l 2493 900 l 2493 1132 l 2461 1132 z m 1429 988 l 1419 988 l 1419 1100 l 1429 1100 b 1483 1044 1469 1100 1483 1086 b 1429 988 1483 1001 1469 988 z m 1665 867 l 1699 867 l 1699 976 l 1725 976 l 1760 867 l 1796 867 l 1757 985 b 1794 1056 1782 996 1794 1019 b 1719 1132 1794 1103 1768 1132 l 1665 1132 z m 1708 1008 l 1699 1008 l 1699 1100 l 1708 1100 b 1763 1056 1749 1100 1763 1086 b 1708 1008 1763 1024 1749 1008 z m 1918 1056 l 1951 1056 b 1883 1132 1951 1103 1925 1132 b 1817 1067 1843 1132 1817 1103 b 1878 993 1817 1029 1838 1010 b 1918 935 1911 976 1918 961 b 1883 900 1918 914 1908 900 b 1850 944 1863 900 1850 914 l 1817 944 b 1883 867 1817 896 1843 867 b 1951 935 1925 867 1951 896 b 1883 1025 1951 978 1939 1001 b 1850 1067 1865 1033 1850 1047 b 1883 1099 1850 1085 1863 1099 b 1918 1056 1908 1099 1918 1086 z m 2083 1063 l 2083 936 b 2046 899 2083 914 2069 899 b 2008 936 2021 899 2008 914 l 2008 1063 b 2046 1100 2008 1086 2021 1100 b 2083 1063 2069 1100 2083 1086 z m 1975 1063 l 1975 936 b 2046 867 1975 896 2001 867 b 2115 936 2089 867 2115 896 l 2115 1063 b 2046 1132 2115 1103 2089 1132 b 1975 1063 2001 1132 1975 1103 z m 1651 768 l 1683 768 b 1617 846 1683 817 1657 846 b 1550 781 1576 846 1550 817 b 1611 704 1550 742 1571 724 b 1651 647 1644 689 1651 675 b 1617 614 1651 626 1642 614 b 1583 657 1596 614 1583 626 l 1550 657 b 1617 581 1550 608 1576 581 b 1683 647 1657 581 1683 608 b 1617 739 1683 692 1672 714 b 1583 779 1599 746 1583 761 b 1617 813 1583 799 1596 813 b 1651 768 1642 813 1651 799 z m 1710 581 l 1815 581 l 1815 614 l 1743 614 l 1743 700 l 1801 700 l 1801 733 l 1743 733 l 1743 813 l 1811 813 l 1811 846 l 1710 846 z m 2107 581 l 2140 581 l 2140 747 l 2201 581 l 2238 581 l 2238 846 l 2204 846 l 2204 665 l 2140 846 l 2107 846 z m 2274 581 l 2379 581 l 2379 614 l 2307 614 l 2307 846 l 2274 846 z m 2039 776 l 2039 650 b 2001 613 2039 626 2025 613 b 1964 650 1978 613 1964 626 l 1964 776 b 2001 814 1964 799 1978 814 b 2039 776 2025 814 2039 799 z m 1931 776 l 1931 650 b 2001 581 1931 608 1957 581 b 2072 650 2046 581 2072 608 l 2072 776 b 2001 846 2072 817 2046 846 b 1931 776 1957 846 1931 817 z m 1526 650 l 1526 846 l 1494 846 l 1494 650 b 1457 613 1494 626 1481 613 b 1419 650 1432 613 1419 626 l 1419 846 l 1386 846 l 1386 650 b 1457 581 1386 608 1413 581 b 1526 650 1500 581 1526 608 z m 1386 410 l 1410 410 l 1410 468 l 1446 468 b 1496 514 1486 468 1496 494 b 1446 558 1496 532 1486 558 l 1386 558 z m 1725 410 l 1747 410 l 1763 451 l 1810 451 l 1825 410 l 1849 410 l 1799 558 l 1775 558 z m 1768 469 l 1788 531 l 1806 469 z m 1511 410 l 1604 410 l 1604 431 l 1533 431 l 1533 558 l 1511 558 z m 1438 490 l 1410 490 l 1410 536 l 1438 536 b 1474 514 1465 536 1474 528 b 1438 490 1474 500 1465 490 z m 1946 514 l 1968 514 b 1913 558 1968 539 1951 558 b 1857 519 1874 558 1857 540 b 1908 478 1857 493 1881 483 b 1946 454 1928 474 1946 469 b 1913 431 1946 442 1938 431 b 1878 454 1888 431 1878 440 l 1857 454 b 1913 410 1857 429 1874 410 b 1968 457 1949 410 1968 429 b 1915 500 1968 488 1940 494 b 1878 519 1894 504 1878 508 b 1913 536 1878 529 1888 536 b 1946 514 1938 536 1946 528 z m 1621 410 l 1714 410 l 1714 431 l 1643 431 l 1643 475 l 1704 475 l 1704 499 l 1643 499 l 1643 536 l 1711 536 l 1711 558 l 1621 558 z m 2235 558 l 2194 443 l 2158 558 l 2133 558 l 2183 410 l 2207 410 l 2257 558 z m 2269 410 l 2292 410 l 2292 558 l 2269 558 z m 2575 558 l 2476 558 l 2476 536 l 2514 536 l 2514 410 l 2536 410 l 2536 536 l 2575 536 z m 2436 410 l 2460 410 l 2460 558 l 2436 558 z m 1989 410 l 2083 410 l 2083 431 l 2013 431 l 2013 475 l 2074 475 l 2074 499 l 2013 499 l 2013 536 l 2081 536 l 2081 558 l 1989 558 z m 1474 -221 l 1499 -221 l 1499 -179 l 1522 -179 l 1543 -221 l 1569 -221 l 1543 -174 b 1568 -128 1560 -165 1568 -149 b 1513 -78 1568 -100 1549 -78 l 1474 -78 z m 1506 -156 l 1499 -156 l 1499 -101 l 1506 -101 b 1544 -128 1535 -101 1544 -111 b 1506 -156 1544 -146 1535 -156 z m 1269 -221 l 1294 -221 l 1294 -172 l 1338 -172 l 1338 -149 l 1294 -149 l 1294 -103 l 1344 -103 l 1344 -78 l 1269 -78 z m 1432 -128 l 1432 -169 b 1406 -196 1432 -186 1424 -196 b 1378 -169 1389 -196 1378 -186 l 1378 -128 b 1406 -101 1378 -111 1389 -101 b 1432 -128 1424 -101 1432 -111 z m 1354 -128 l 1354 -169 b 1406 -221 1354 -199 1374 -221 b 1457 -169 1438 -221 1457 -199 l 1457 -128 b 1406 -78 1457 -100 1438 -78 b 1354 -128 1374 -78 1354 -100 z m 1646 -221 l 1668 -221 l 1668 -103 l 1703 -103 l 1703 -78 l 1613 -78 l 1613 -103 l 1646 -103 z m 1715 -221 l 1738 -221 l 1738 -164 l 1786 -164 l 1786 -221 l 1810 -221 l 1810 -78 l 1786 -78 l 1786 -140 l 1738 -140 l 1738 -78 l 1715 -78 z m 1831 -221 l 1904 -221 l 1904 -196 l 1853 -196 l 1853 -164 l 1896 -164 l 1896 -140 l 1853 -140 l 1853 -103 l 1904 -103 l 1904 -78 l 1831 -78 z m 1968 -221 l 1990 -221 l 1990 -172 l 2033 -172 l 2033 -149 l 1990 -149 l 1990 -103 l 2042 -103 l 2042 -78 l 1968 -78 z m 2160 -169 l 2160 -78 l 2136 -78 l 2136 -169 b 2108 -196 2136 -186 2125 -196 b 2081 -169 2090 -196 2081 -186 l 2081 -78 l 2057 -78 l 2057 -169 b 2108 -221 2057 -199 2075 -221 b 2160 -169 2140 -221 2160 -199 z m 2178 -221 l 2256 -221 l 2256 -196 l 2203 -196 l 2203 -78 l 2178 -78 z m 2264 -221 l 2342 -221 l 2342 -196 l 2288 -196 l 2288 -78 l 2264 -78 z m 2376 -221 l 2400 -221 l 2411 -185 l 2450 -185 l 2460 -221 l 2486 -221 l 2442 -78 l 2419 -78 z m 2417 -165 l 2431 -118 l 2446 -165 z m 2494 -221 l 2519 -221 l 2519 -131 l 2563 -221 l 2589 -221 l 2589 -78 l 2567 -78 l 2567 -174 l 2519 -78 l 2494 -78 z m 2688 -137 l 2688 -158 b 2656 -196 2688 -178 2678 -196 l 2633 -196 l 2633 -101 l 2656 -101 b 2688 -137 2678 -101 2688 -119 z m 2608 -221 l 2656 -221 b 2711 -158 2693 -221 2711 -190 l 2711 -137 b 2656 -78 2711 -106 2693 -78 l 2608 -78 z m 1279 -294 l 1279 -335 b 1253 -362 1279 -351 1269 -362 b 1225 -335 1235 -362 1225 -351 l 1225 -294 b 1253 -267 1225 -276 1235 -267 b 1279 -294 1269 -267 1279 -276 z m 1200 -294 l 1200 -335 b 1253 -385 1200 -364 1221 -385 b 1304 -335 1285 -385 1304 -364 l 1304 -294 b 1253 -243 1304 -264 1285 -243 b 1200 -294 1221 -243 1200 -264 z m 1163 -294 l 1185 -294 b 1135 -243 1185 -264 1167 -243 b 1083 -294 1103 -243 1083 -264 l 1083 -335 b 1135 -385 1083 -364 1103 -385 b 1185 -335 1167 -385 1185 -364 l 1163 -335 b 1135 -362 1163 -351 1153 -362 b 1107 -335 1117 -362 1107 -351 l 1107 -294 b 1135 -267 1107 -276 1117 -267 b 1163 -294 1153 -267 1163 -276 z m 1321 -385 l 1343 -385 l 1343 -300 l 1374 -353 l 1381 -353 l 1410 -300 l 1410 -385 l 1435 -385 l 1435 -243 l 1419 -243 l 1378 -311 l 1336 -243 l 1321 -243 z m 1457 -385 l 1479 -385 l 1479 -300 l 1510 -353 l 1517 -353 l 1547 -300 l 1547 -385 l 1571 -385 l 1571 -243 l 1556 -243 l 1513 -311 l 1472 -243 l 1457 -243 z m 1589 -385 l 1665 -385 l 1665 -361 l 1613 -361 l 1613 -331 l 1656 -331 l 1656 -306 l 1613 -306 l 1613 -268 l 1663 -268 l 1663 -243 l 1589 -243 z m 1683 -385 l 1708 -385 l 1708 -344 l 1722 -344 l 1732 -343 l 1751 -385 l 1779 -385 l 1751 -339 b 1778 -294 1768 -331 1778 -315 b 1722 -243 1778 -264 1758 -243 l 1683 -243 z m 1715 -322 l 1708 -322 l 1708 -267 l 1715 -267 b 1754 -294 1744 -267 1754 -276 b 1715 -322 1754 -311 1744 -322 z m 1872 -294 l 1896 -294 b 1844 -243 1896 -264 1876 -243 b 1794 -294 1813 -243 1794 -264 l 1794 -335 b 1844 -385 1794 -364 1813 -385 b 1896 -335 1876 -385 1896 -364 l 1872 -335 b 1844 -362 1872 -351 1863 -362 b 1818 -335 1826 -362 1818 -351 l 1818 -294 b 1844 -267 1818 -276 1826 -267 b 1872 -294 1863 -267 1872 -276 z m 1915 -385 l 1939 -385 l 1939 -243 l 1915 -243 z m 1953 -385 l 1978 -385 l 1989 -351 l 2025 -351 l 2036 -385 l 2063 -385 l 2019 -243 l 1997 -243 z m 1993 -331 l 2007 -285 l 2022 -331 z m 2075 -385 l 2151 -385 l 2151 -361 l 2099 -361 l 2099 -243 l 2075 -243 z m 2299 -243 l 2275 -243 l 2246 -344 l 2217 -243 l 2190 -243 l 2233 -385 l 2257 -385 z m 2313 -385 l 2388 -385 l 2388 -361 l 2335 -361 l 2335 -331 l 2378 -331 l 2378 -306 l 2335 -306 l 2335 -268 l 2385 -268 l 2385 -243 l 2313 -243 z m 2408 -385 l 2432 -385 l 2432 -344 l 2447 -344 l 2456 -343 l 2478 -385 l 2504 -385 l 2478 -339 b 2503 -294 2493 -331 2503 -315 b 2447 -243 2503 -264 2483 -243 l 2408 -243 z m 2439 -322 l 2432 -322 l 2432 -267 l 2439 -267 b 2478 -294 2469 -267 2478 -276 b 2439 -322 2478 -311 2469 -322 z m 2585 -286 l 2608 -286 b 2563 -243 2608 -262 2593 -243 b 2517 -279 2532 -243 2517 -260 b 2561 -324 2517 -300 2526 -315 b 2585 -347 2581 -328 2585 -337 b 2563 -361 2585 -356 2578 -361 b 2540 -342 2547 -361 2540 -356 l 2517 -342 b 2563 -385 2517 -367 2532 -385 b 2608 -347 2593 -385 2608 -367 b 2565 -301 2608 -326 2601 -311 b 2540 -279 2546 -294 2540 -290 b 2563 -268 2540 -274 2547 -268 b 2585 -286 2578 -268 2585 -274 z m 2624 -385 l 2647 -385 l 2647 -243 l 2624 -243 z m 2743 -294 l 2743 -335 b 2715 -362 2743 -351 2733 -362 b 2688 -335 2699 -362 2688 -351 l 2688 -294 b 2715 -267 2688 -276 2699 -267 b 2743 -294 2733 -267 2743 -276 z m 2664 -294 l 2664 -335 b 2715 -385 2664 -364 2683 -385 b 2767 -335 2747 -385 2767 -364 l 2767 -294 b 2715 -243 2767 -264 2747 -243 b 2664 -294 2683 -243 2664 -264 z m 2782 -385 l 2807 -385 l 2807 -294 l 2850 -385 l 2878 -385 l 2878 -243 l 2854 -243 l 2854 -340 l 2807 -243 l 2782 -243 z m 2399 514 l 2419 514 b 2364 558 2419 539 2403 558 b 2308 519 2325 558 2308 540 b 2360 478 2308 493 2332 483 b 2399 454 2379 474 2399 469 b 2364 431 2399 442 2389 431 b 2331 454 2339 431 2331 440 l 2308 454 b 2364 410 2308 429 2325 410 b 2419 457 2400 410 2419 429 b 2367 500 2419 488 2392 494 b 2331 519 2346 504 2331 508 b 2364 536 2331 529 2339 536 b 2399 514 2389 536 2399 528 z m 471 -32 l 532 -32 l 536 133 l 569 -32 l 617 -32 l 646 138 l 653 -32 l 710 -32 l 708 376 l 639 376 l 592 119 l 543 376 l 476 376 z m 763 -32 l 828 -32 l 828 168 l 899 -32 l 949 -32 l 949 376 l 885 376 l 885 181 l 815 376 l 763 376 z m 994 -32 l 1064 -32 l 1064 42 l 994 42 z m 1204 -37 b 1276 46 1251 -31 1272 10 b 1228 181 1281 99 1265 143 b 1157 265 1203 208 1169 231 b 1186 318 1151 281 1154 321 b 1211 239 1213 315 1211 272 l 1274 243 b 1221 372 1274 292 1269 350 b 1093 292 1164 400 1096 361 b 1149 164 1093 254 1100 224 b 1211 63 1171 138 1211 106 b 1194 29 1211 46 1207 32 b 1154 115 1167 17 1154 56 l 1089 111 b 1107 11 1089 76 1094 42 b 1204 -37 1124 -26 1165 -42 z m 1453 -19 l 1454 -32 l 1508 -32 l 1508 181 l 1403 181 l 1403 119 l 1443 119 b 1403 29 1443 99 1451 13 b 1379 115 1371 40 1379 93 l 1379 263 b 1417 318 1379 293 1385 322 b 1439 232 1435 310 1439 303 l 1504 232 b 1460 368 1504 276 1508 339 b 1369 376 1435 383 1399 383 b 1310 292 1333 361 1315 325 b 1308 174 1304 254 1308 213 b 1310 60 1308 133 1304 99 b 1351 -24 1314 29 1324 -8 b 1453 -19 1381 -40 1426 -42 z m 1531 -49 l 1569 -49 l 1686 393 l 1639 393 z m 1708 -35 l 1864 -35 l 1864 35 l 1779 35 l 1779 374 l 1708 374 z m 1874 -35 l 1943 -35 l 1957 63 l 2000 63 l 2014 -35 l 2082 -35 l 2013 374 l 1947 374 z m 1967 121 l 1978 203 l 1989 121 z m 2172 -39 b 2219 -32 2188 -42 2207 -39 b 2274 99 2267 -10 2274 49 l 2208 103 b 2182 24 2208 76 2213 29 b 2157 49 2171 22 2157 29 l 2157 289 b 2182 315 2157 310 2171 318 b 2208 238 2213 310 2208 264 l 2274 240 b 2219 369 2274 289 2267 349 b 2172 378 2207 378 2188 381 b 2090 292 2132 374 2090 343 l 2090 47 b 2172 -39 2090 -3 2132 -35 z m 2308 -35 l 2379 -35 l 2379 138 l 2440 138 l 2440 -35 l 2507 -35 l 2507 374 l 2440 374 l 2440 210 l 2379 210 l 2379 374 l 2308 374 z m 2542 -35 l 2700 -35 l 2700 35 l 2608 35 l 2608 143 l 2682 143 l 2682 215 l 2608 215 l 2608 304 l 2700 304 l 2700 374 l 2542 374 z m 2775 -35 l 2842 -35 l 2842 129 l 2911 374 l 2840 374 l 2811 210 l 2782 374 l 2713 374 l 2775 140 z m 2869 -35 l 2939 -35 l 2953 63 l 2997 63 l 3011 -35 l 3078 -35 l 3008 374 l 2944 374 z m 2964 121 l 2974 203 l 2986 121 z m 3096 -35 l 3163 -35 l 3163 143 l 3182 143 l 3217 -35 l 3285 -35 l 3240 154 b 3289 268 3276 181 3289 229 b 3214 374 3289 343 3244 374 l 3096 374 z m 3199 201 l 3163 201 l 3163 315 l 3185 315 b 3199 201 3225 315 3222 213 z m 3324 -35 l 3397 -35 b 3503 93 3471 -35 3503 4 l 3503 246 b 3388 374 3503 331 3471 374 l 3324 374 z m 3411 29 l 3388 29 l 3388 304 l 3411 304 b 3431 279 3422 304 3431 289 b 3433 222 3433 264 3433 240 l 3433 113 b 3431 51 3433 92 3433 71 b 3411 29 3431 42 3422 35 z "},"9":{"ha":4188,"x_min":0,"x_max":0,"o":"m 1386 867 l 1419 867 l 1419 956 l 1440 956 b 1515 1044 1500 956 1515 994 b 1440 1132 1515 1093 1500 1132 l 1386 1132 z m 1538 867 l 1642 867 l 1642 900 l 1571 900 l 1571 988 l 1629 988 l 1629 1019 l 1571 1019 l 1571 1099 l 1639 1099 l 1639 1132 l 1538 1132 z m 2529 581 l 2567 581 l 2567 619 l 2529 619 z m 2414 581 l 2453 581 l 2453 663 l 2510 846 l 2474 846 l 2435 704 l 2393 846 l 2357 846 l 2414 663 z m 2142 867 l 2175 867 l 2175 1035 l 2236 867 l 2272 867 l 2272 1132 l 2240 1132 l 2240 951 l 2175 1132 l 2142 1132 z m 2540 636 l 2553 636 l 2567 846 l 2529 846 z m 2290 867 l 2325 867 l 2338 929 l 2393 929 l 2404 867 l 2440 867 l 2383 1132 l 2349 1132 z m 2344 956 l 2367 1076 l 2388 956 z m 2461 867 l 2567 867 l 2567 900 l 2493 900 l 2493 1132 l 2461 1132 z m 1429 988 l 1419 988 l 1419 1100 l 1429 1100 b 1483 1044 1469 1100 1483 1086 b 1429 988 1483 1001 1469 988 z m 1665 867 l 1699 867 l 1699 976 l 1725 976 l 1760 867 l 1796 867 l 1757 985 b 1794 1056 1782 996 1794 1019 b 1719 1132 1794 1103 1768 1132 l 1665 1132 z m 1708 1008 l 1699 1008 l 1699 1100 l 1708 1100 b 1763 1056 1749 1100 1763 1086 b 1708 1008 1763 1024 1749 1008 z m 1918 1056 l 1951 1056 b 1883 1132 1951 1103 1925 1132 b 1817 1067 1843 1132 1817 1103 b 1878 993 1817 1029 1838 1010 b 1918 935 1911 976 1918 961 b 1883 900 1918 914 1908 900 b 1850 944 1863 900 1850 914 l 1817 944 b 1883 867 1817 896 1843 867 b 1951 935 1925 867 1951 896 b 1883 1025 1951 978 1939 1001 b 1850 1067 1865 1033 1850 1047 b 1883 1099 1850 1085 1863 1099 b 1918 1056 1908 1099 1918 1086 z m 2083 1063 l 2083 936 b 2046 899 2083 914 2069 899 b 2008 936 2021 899 2008 914 l 2008 1063 b 2046 1100 2008 1086 2021 1100 b 2083 1063 2069 1100 2083 1086 z m 1975 1063 l 1975 936 b 2046 867 1975 896 2001 867 b 2115 936 2089 867 2115 896 l 2115 1063 b 2046 1132 2115 1103 2089 1132 b 1975 1063 2001 1132 1975 1103 z m 1651 768 l 1683 768 b 1617 846 1683 817 1657 846 b 1550 781 1576 846 1550 817 b 1611 704 1550 742 1571 724 b 1651 647 1644 689 1651 675 b 1617 614 1651 626 1642 614 b 1583 657 1596 614 1583 626 l 1550 657 b 1617 581 1550 608 1576 581 b 1683 647 1657 581 1683 608 b 1617 739 1683 692 1672 714 b 1583 779 1599 746 1583 761 b 1617 813 1583 799 1596 813 b 1651 768 1642 813 1651 799 z m 1710 581 l 1815 581 l 1815 614 l 1743 614 l 1743 700 l 1801 700 l 1801 733 l 1743 733 l 1743 813 l 1811 813 l 1811 846 l 1710 846 z m 2107 581 l 2140 581 l 2140 747 l 2201 581 l 2238 581 l 2238 846 l 2204 846 l 2204 665 l 2140 846 l 2107 846 z m 2274 581 l 2379 581 l 2379 614 l 2307 614 l 2307 846 l 2274 846 z m 2039 776 l 2039 650 b 2001 613 2039 626 2025 613 b 1964 650 1978 613 1964 626 l 1964 776 b 2001 814 1964 799 1978 814 b 2039 776 2025 814 2039 799 z m 1931 776 l 1931 650 b 2001 581 1931 608 1957 581 b 2072 650 2046 581 2072 608 l 2072 776 b 2001 846 2072 817 2046 846 b 1931 776 1957 846 1931 817 z m 1526 650 l 1526 846 l 1494 846 l 1494 650 b 1457 613 1494 626 1481 613 b 1419 650 1432 613 1419 626 l 1419 846 l 1386 846 l 1386 650 b 1457 581 1386 608 1413 581 b 1526 650 1500 581 1526 608 z m 1386 410 l 1410 410 l 1410 468 l 1446 468 b 1496 514 1486 468 1496 494 b 1446 558 1496 532 1486 558 l 1386 558 z m 1725 410 l 1747 410 l 1763 451 l 1810 451 l 1825 410 l 1849 410 l 1799 558 l 1775 558 z m 1768 469 l 1788 531 l 1806 469 z m 1511 410 l 1604 410 l 1604 431 l 1533 431 l 1533 558 l 1511 558 z m 1438 490 l 1410 490 l 1410 536 l 1438 536 b 1474 514 1465 536 1474 528 b 1438 490 1474 500 1465 490 z m 1946 514 l 1968 514 b 1913 558 1968 539 1951 558 b 1857 519 1874 558 1857 540 b 1908 478 1857 493 1881 483 b 1946 454 1928 474 1946 469 b 1913 431 1946 442 1938 431 b 1878 454 1888 431 1878 440 l 1857 454 b 1913 410 1857 429 1874 410 b 1968 457 1949 410 1968 429 b 1915 500 1968 488 1940 494 b 1878 519 1894 504 1878 508 b 1913 536 1878 529 1888 536 b 1946 514 1938 536 1946 528 z m 1621 410 l 1714 410 l 1714 431 l 1643 431 l 1643 475 l 1704 475 l 1704 499 l 1643 499 l 1643 536 l 1711 536 l 1711 558 l 1621 558 z m 2235 558 l 2194 443 l 2158 558 l 2133 558 l 2183 410 l 2207 410 l 2257 558 z m 2269 410 l 2292 410 l 2292 558 l 2269 558 z m 2575 558 l 2476 558 l 2476 536 l 2514 536 l 2514 410 l 2536 410 l 2536 536 l 2575 536 z m 2436 410 l 2460 410 l 2460 558 l 2436 558 z m 1989 410 l 2083 410 l 2083 431 l 2013 431 l 2013 475 l 2074 475 l 2074 499 l 2013 499 l 2013 536 l 2081 536 l 2081 558 l 1989 558 z m 1474 -221 l 1499 -221 l 1499 -179 l 1522 -179 l 1543 -221 l 1569 -221 l 1543 -174 b 1568 -128 1560 -165 1568 -149 b 1513 -78 1568 -100 1549 -78 l 1474 -78 z m 1506 -156 l 1499 -156 l 1499 -101 l 1506 -101 b 1544 -128 1535 -101 1544 -111 b 1506 -156 1544 -146 1535 -156 z m 1269 -221 l 1294 -221 l 1294 -172 l 1338 -172 l 1338 -149 l 1294 -149 l 1294 -103 l 1344 -103 l 1344 -78 l 1269 -78 z m 1432 -128 l 1432 -169 b 1406 -196 1432 -186 1424 -196 b 1378 -169 1389 -196 1378 -186 l 1378 -128 b 1406 -101 1378 -111 1389 -101 b 1432 -128 1424 -101 1432 -111 z m 1354 -128 l 1354 -169 b 1406 -221 1354 -199 1374 -221 b 1457 -169 1438 -221 1457 -199 l 1457 -128 b 1406 -78 1457 -100 1438 -78 b 1354 -128 1374 -78 1354 -100 z m 1646 -221 l 1668 -221 l 1668 -103 l 1703 -103 l 1703 -78 l 1613 -78 l 1613 -103 l 1646 -103 z m 1715 -221 l 1738 -221 l 1738 -164 l 1786 -164 l 1786 -221 l 1810 -221 l 1810 -78 l 1786 -78 l 1786 -140 l 1738 -140 l 1738 -78 l 1715 -78 z m 1831 -221 l 1904 -221 l 1904 -196 l 1853 -196 l 1853 -164 l 1896 -164 l 1896 -140 l 1853 -140 l 1853 -103 l 1904 -103 l 1904 -78 l 1831 -78 z m 1968 -221 l 1990 -221 l 1990 -172 l 2033 -172 l 2033 -149 l 1990 -149 l 1990 -103 l 2042 -103 l 2042 -78 l 1968 -78 z m 2160 -169 l 2160 -78 l 2136 -78 l 2136 -169 b 2108 -196 2136 -186 2125 -196 b 2081 -169 2090 -196 2081 -186 l 2081 -78 l 2057 -78 l 2057 -169 b 2108 -221 2057 -199 2075 -221 b 2160 -169 2140 -221 2160 -199 z m 2178 -221 l 2256 -221 l 2256 -196 l 2203 -196 l 2203 -78 l 2178 -78 z m 2264 -221 l 2342 -221 l 2342 -196 l 2288 -196 l 2288 -78 l 2264 -78 z m 2376 -221 l 2400 -221 l 2411 -185 l 2450 -185 l 2460 -221 l 2486 -221 l 2442 -78 l 2419 -78 z m 2417 -165 l 2431 -118 l 2446 -165 z m 2494 -221 l 2519 -221 l 2519 -131 l 2563 -221 l 2589 -221 l 2589 -78 l 2567 -78 l 2567 -174 l 2519 -78 l 2494 -78 z m 2688 -137 l 2688 -158 b 2656 -196 2688 -178 2678 -196 l 2633 -196 l 2633 -101 l 2656 -101 b 2688 -137 2678 -101 2688 -119 z m 2608 -221 l 2656 -221 b 2711 -158 2693 -221 2711 -190 l 2711 -137 b 2656 -78 2711 -106 2693 -78 l 2608 -78 z m 1279 -294 l 1279 -335 b 1253 -362 1279 -351 1269 -362 b 1225 -335 1235 -362 1225 -351 l 1225 -294 b 1253 -267 1225 -276 1235 -267 b 1279 -294 1269 -267 1279 -276 z m 1200 -294 l 1200 -335 b 1253 -385 1200 -364 1221 -385 b 1304 -335 1285 -385 1304 -364 l 1304 -294 b 1253 -243 1304 -264 1285 -243 b 1200 -294 1221 -243 1200 -264 z m 1163 -294 l 1185 -294 b 1135 -243 1185 -264 1167 -243 b 1083 -294 1103 -243 1083 -264 l 1083 -335 b 1135 -385 1083 -364 1103 -385 b 1185 -335 1167 -385 1185 -364 l 1163 -335 b 1135 -362 1163 -351 1153 -362 b 1107 -335 1117 -362 1107 -351 l 1107 -294 b 1135 -267 1107 -276 1117 -267 b 1163 -294 1153 -267 1163 -276 z m 1321 -385 l 1343 -385 l 1343 -300 l 1374 -353 l 1381 -353 l 1410 -300 l 1410 -385 l 1435 -385 l 1435 -243 l 1419 -243 l 1378 -311 l 1336 -243 l 1321 -243 z m 1457 -385 l 1479 -385 l 1479 -300 l 1510 -353 l 1517 -353 l 1547 -300 l 1547 -385 l 1571 -385 l 1571 -243 l 1556 -243 l 1513 -311 l 1472 -243 l 1457 -243 z m 1589 -385 l 1665 -385 l 1665 -361 l 1613 -361 l 1613 -331 l 1656 -331 l 1656 -306 l 1613 -306 l 1613 -268 l 1663 -268 l 1663 -243 l 1589 -243 z m 1683 -385 l 1708 -385 l 1708 -344 l 1722 -344 l 1732 -343 l 1751 -385 l 1779 -385 l 1751 -339 b 1778 -294 1768 -331 1778 -315 b 1722 -243 1778 -264 1758 -243 l 1683 -243 z m 1715 -322 l 1708 -322 l 1708 -267 l 1715 -267 b 1754 -294 1744 -267 1754 -276 b 1715 -322 1754 -311 1744 -322 z m 1872 -294 l 1896 -294 b 1844 -243 1896 -264 1876 -243 b 1794 -294 1813 -243 1794 -264 l 1794 -335 b 1844 -385 1794 -364 1813 -385 b 1896 -335 1876 -385 1896 -364 l 1872 -335 b 1844 -362 1872 -351 1863 -362 b 1818 -335 1826 -362 1818 -351 l 1818 -294 b 1844 -267 1818 -276 1826 -267 b 1872 -294 1863 -267 1872 -276 z m 1915 -385 l 1939 -385 l 1939 -243 l 1915 -243 z m 1953 -385 l 1978 -385 l 1989 -351 l 2025 -351 l 2036 -385 l 2063 -385 l 2019 -243 l 1997 -243 z m 1993 -331 l 2007 -285 l 2022 -331 z m 2075 -385 l 2151 -385 l 2151 -361 l 2099 -361 l 2099 -243 l 2075 -243 z m 2299 -243 l 2275 -243 l 2246 -344 l 2217 -243 l 2190 -243 l 2233 -385 l 2257 -385 z m 2313 -385 l 2388 -385 l 2388 -361 l 2335 -361 l 2335 -331 l 2378 -331 l 2378 -306 l 2335 -306 l 2335 -268 l 2385 -268 l 2385 -243 l 2313 -243 z m 2408 -385 l 2432 -385 l 2432 -344 l 2447 -344 l 2456 -343 l 2478 -385 l 2504 -385 l 2478 -339 b 2503 -294 2493 -331 2503 -315 b 2447 -243 2503 -264 2483 -243 l 2408 -243 z m 2439 -322 l 2432 -322 l 2432 -267 l 2439 -267 b 2478 -294 2469 -267 2478 -276 b 2439 -322 2478 -311 2469 -322 z m 2585 -286 l 2608 -286 b 2563 -243 2608 -262 2593 -243 b 2517 -279 2532 -243 2517 -260 b 2561 -324 2517 -300 2526 -315 b 2585 -347 2581 -328 2585 -337 b 2563 -361 2585 -356 2578 -361 b 2540 -342 2547 -361 2540 -356 l 2517 -342 b 2563 -385 2517 -367 2532 -385 b 2608 -347 2593 -385 2608 -367 b 2565 -301 2608 -326 2601 -311 b 2540 -279 2546 -294 2540 -290 b 2563 -268 2540 -274 2547 -268 b 2585 -286 2578 -268 2585 -274 z m 2624 -385 l 2647 -385 l 2647 -243 l 2624 -243 z m 2743 -294 l 2743 -335 b 2715 -362 2743 -351 2733 -362 b 2688 -335 2699 -362 2688 -351 l 2688 -294 b 2715 -267 2688 -276 2699 -267 b 2743 -294 2733 -267 2743 -276 z m 2664 -294 l 2664 -335 b 2715 -385 2664 -364 2683 -385 b 2767 -335 2747 -385 2767 -364 l 2767 -294 b 2715 -243 2767 -264 2747 -243 b 2664 -294 2683 -243 2664 -264 z m 2782 -385 l 2807 -385 l 2807 -294 l 2850 -385 l 2878 -385 l 2878 -243 l 2854 -243 l 2854 -340 l 2807 -243 l 2782 -243 z m 2399 514 l 2419 514 b 2364 558 2419 539 2403 558 b 2308 519 2325 558 2308 540 b 2360 478 2308 493 2332 483 b 2399 454 2379 474 2399 469 b 2364 431 2399 442 2389 431 b 2331 454 2339 431 2331 440 l 2308 454 b 2364 410 2308 429 2325 410 b 2419 457 2400 410 2419 429 b 2367 500 2419 488 2392 494 b 2331 519 2346 504 2331 508 b 2364 536 2331 529 2339 536 b 2399 514 2389 536 2399 528 z m 471 -32 l 532 -32 l 536 133 l 569 -32 l 617 -32 l 646 138 l 653 -32 l 710 -32 l 708 376 l 639 376 l 592 119 l 543 376 l 476 376 z m 763 -32 l 828 -32 l 828 168 l 899 -32 l 949 -32 l 949 376 l 885 376 l 885 181 l 815 376 l 763 376 z m 994 -32 l 1064 -32 l 1064 42 l 994 42 z m 1204 -37 b 1276 46 1251 -31 1272 10 b 1228 181 1281 99 1265 143 b 1157 265 1203 208 1169 231 b 1186 318 1151 281 1154 321 b 1211 239 1213 315 1211 272 l 1274 243 b 1221 372 1274 292 1269 350 b 1093 292 1164 400 1096 361 b 1149 164 1093 254 1100 224 b 1211 63 1171 138 1211 106 b 1194 29 1211 46 1207 32 b 1154 115 1167 17 1154 56 l 1089 111 b 1107 11 1089 76 1094 42 b 1204 -37 1124 -26 1165 -42 z m 1453 -19 l 1454 -32 l 1508 -32 l 1508 181 l 1403 181 l 1403 119 l 1443 119 b 1403 29 1443 99 1451 13 b 1379 115 1371 40 1379 93 l 1379 263 b 1417 318 1379 293 1385 322 b 1439 232 1435 310 1439 303 l 1504 232 b 1460 368 1504 276 1508 339 b 1369 376 1435 383 1399 383 b 1310 292 1333 361 1315 325 b 1308 174 1304 254 1308 213 b 1310 60 1308 133 1304 99 b 1351 -24 1314 29 1324 -8 b 1453 -19 1381 -40 1426 -42 z m 1531 -49 l 1569 -49 l 1686 393 l 1639 393 z m 1708 -35 l 1864 -35 l 1864 35 l 1779 35 l 1779 374 l 1708 374 z m 1874 -35 l 1943 -35 l 1957 63 l 2000 63 l 2014 -35 l 2082 -35 l 2013 374 l 1947 374 z m 1967 121 l 1978 203 l 1989 121 z m 2172 -39 b 2219 -32 2188 -42 2207 -39 b 2274 99 2267 -10 2274 49 l 2208 103 b 2182 24 2208 76 2213 29 b 2157 49 2171 22 2157 29 l 2157 289 b 2182 315 2157 310 2171 318 b 2208 238 2213 310 2208 264 l 2274 240 b 2219 369 2274 289 2267 349 b 2172 378 2207 378 2188 381 b 2090 292 2132 374 2090 343 l 2090 47 b 2172 -39 2090 -3 2132 -35 z m 2308 -35 l 2379 -35 l 2379 138 l 2440 138 l 2440 -35 l 2507 -35 l 2507 374 l 2440 374 l 2440 210 l 2379 210 l 2379 374 l 2308 374 z m 2542 -35 l 2700 -35 l 2700 35 l 2608 35 l 2608 143 l 2682 143 l 2682 215 l 2608 215 l 2608 304 l 2700 304 l 2700 374 l 2542 374 z m 2775 -35 l 2842 -35 l 2842 129 l 2911 374 l 2840 374 l 2811 210 l 2782 374 l 2713 374 l 2775 140 z m 2869 -35 l 2939 -35 l 2953 63 l 2997 63 l 3011 -35 l 3078 -35 l 3008 374 l 2944 374 z m 2964 121 l 2974 203 l 2986 121 z m 3096 -35 l 3163 -35 l 3163 143 l 3182 143 l 3217 -35 l 3285 -35 l 3240 154 b 3289 268 3276 181 3289 229 b 3214 374 3289 343 3244 374 l 3096 374 z m 3199 201 l 3163 201 l 3163 315 l 3185 315 b 3199 201 3225 315 3222 213 z m 3324 -35 l 3397 -35 b 3503 93 3471 -35 3503 4 l 3503 246 b 3388 374 3503 331 3471 374 l 3324 374 z m 3411 29 l 3388 29 l 3388 304 l 3411 304 b 3431 279 3422 304 3431 289 b 3433 222 3433 264 3433 240 l 3433 113 b 3431 51 3433 92 3433 71 b 3411 29 3431 42 3422 35 z "},"\u0000":{"ha":0,"x_min":0,"x_max":0,"o":""},"\r":{"ha":346,"x_min":0,"x_max":0,"o":""}," ":{"ha":346,"x_min":0,"x_max":0,"o":""},"A":{"ha":1372,"x_min":0,"x_max":0,"o":"m 1640 1026 b 1047 657 1433 1010 1240 854 b 554 907 938 825 736 907 b 444 418 90 907 47 443 b 758 607 571 410 708 481 l 674 672 b 446 438 663 542 576 428 b 554 885 203 461 210 874 b 1032 643 731 890 926 807 b 546 122 872 478 713 285 b 276 258 490 199 372 254 b 261 -81 4 271 -49 -58 b 597 11 376 -90 504 -47 b 543 -201 621 -71 554 -183 l 642 -161 b 613 21 647 -92 635 -32 b 1093 504 796 139 949 325 b 1108 290 1111 440 1117 369 b 1113 -115 1050 179 918 -69 b 1222 -93 1149 -124 1204 -112 l 1210 -28 b 1118 -99 1189 -69 1144 -106 b 1211 228 1044 -79 1190 183 b 1656 1003 1356 529 1589 999 b 1708 935 1679 1004 1694 979 l 1753 1014 b 1640 1026 1721 1029 1668 1029 z m 264 -50 b 294 186 31 -50 35 179 b 532 110 379 189 472 167 b 264 -50 463 38 374 -50 z m 1131 335 b 1110 524 1133 404 1126 467 b 1625 1008 1276 731 1436 929 b 1131 335 1540 969 1285 628 z "},"Á":{"ha":1372,"x_min":0,"x_max":0,"o":"m 1640 1026 b 1047 657 1433 1010 1240 854 b 554 907 938 825 736 907 b 444 418 90 907 47 443 b 758 607 571 410 708 481 l 674 672 b 446 438 663 542 576 428 b 554 885 203 461 210 874 b 1032 643 731 890 926 807 b 546 122 872 478 713 285 b 276 258 490 199 372 254 b 261 -81 4 271 -49 -58 b 597 11 376 -90 504 -47 b 543 -201 621 -71 554 -183 l 642 -161 b 613 21 647 -92 635 -32 b 1093 504 796 139 949 325 b 1108 290 1111 440 1117 369 b 1113 -115 1050 179 918 -69 b 1222 -93 1149 -124 1204 -112 l 1210 -28 b 1118 -99 1189 -69 1144 -106 b 1211 228 1044 -79 1190 183 b 1656 1003 1356 529 1589 999 b 1708 935 1679 1004 1694 979 l 1753 1014 b 1640 1026 1721 1029 1668 1029 z m 264 -50 b 294 186 31 -50 35 179 b 532 110 379 189 472 167 b 264 -50 463 38 374 -50 z m 1131 335 b 1110 524 1133 404 1126 467 b 1625 1008 1276 731 1436 929 b 1131 335 1540 969 1285 628 z m 1867 1217 l 1781 1313 b 1506 1075 1753 1250 1604 1104 l 1514 1058 b 1867 1217 1653 1086 1797 1146 z "},"Ă":{"ha":1372,"x_min":0,"x_max":0,"o":"m 1640 1026 b 1047 657 1433 1010 1240 854 b 554 907 938 825 736 907 b 444 418 90 907 47 443 b 758 607 571 410 708 481 l 674 672 b 446 438 663 542 576 428 b 554 885 203 461 210 874 b 1032 643 731 890 926 807 b 546 122 872 478 713 285 b 276 258 490 199 372 254 b 261 -81 4 271 -49 -58 b 597 11 376 -90 504 -47 b 543 -201 621 -71 554 -183 l 642 -161 b 613 21 647 -92 635 -32 b 1093 504 796 139 949 325 b 1108 290 1111 440 1117 369 b 1113 -115 1050 179 918 -69 b 1222 -93 1149 -124 1204 -112 l 1210 -28 b 1118 -99 1189 -69 1144 -106 b 1211 228 1044 -79 1190 183 b 1656 1003 1356 529 1589 999 b 1708 935 1679 1004 1694 979 l 1753 1014 b 1640 1026 1721 1029 1668 1029 z m 264 -50 b 294 186 31 -50 35 179 b 532 110 379 189 472 167 b 264 -50 463 38 374 -50 z m 1131 335 b 1110 524 1133 404 1126 467 b 1625 1008 1276 731 1436 929 b 1131 335 1540 969 1285 628 z m 1638 1175 b 1554 1276 1533 1175 1513 1214 l 1528 1276 b 1593 1064 1421 1150 1475 1064 b 1932 1272 1744 1064 1839 1136 l 1904 1272 b 1638 1175 1824 1196 1729 1175 z "},"Ắ":{"ha":1372,"x_min":0,"x_max":0,"o":"m 1640 1026 b 1047 657 1433 1010 1240 854 b 554 907 938 825 736 907 b 444 418 90 907 47 443 b 758 607 571 410 708 481 l 674 672 b 446 438 663 542 576 428 b 554 885 203 461 210 874 b 1032 643 731 890 926 807 b 546 122 872 478 713 285 b 276 258 490 199 372 254 b 261 -81 4 271 -49 -58 b 597 11 376 -90 504 -47 b 543 -201 621 -71 554 -183 l 642 -161 b 613 21 647 -92 635 -32 b 1093 504 796 139 949 325 b 1108 290 1111 440 1117 369 b 1113 -115 1050 179 918 -69 b 1222 -93 1149 -124 1204 -112 l 1210 -28 b 1118 -99 1189 -69 1144 -106 b 1211 228 1044 -79 1190 183 b 1656 1003 1356 529 1589 999 b 1708 935 1679 1004 1694 979 l 1753 1014 b 1640 1026 1721 1029 1668 1029 z m 264 -50 b 294 186 31 -50 35 179 b 532 110 379 189 472 167 b 264 -50 463 38 374 -50 z m 1131 335 b 1110 524 1133 404 1126 467 b 1625 1008 1276 731 1436 929 b 1131 335 1540 969 1285 628 z m 1638 1175 b 1554 1276 1533 1175 1513 1214 l 1528 1276 b 1593 1064 1421 1150 1475 1064 b 1932 1272 1744 1064 1839 1136 l 1904 1272 b 1638 1175 1824 1196 1729 1175 z m 2036 1521 l 1950 1617 b 1675 1379 1922 1554 1774 1408 l 1683 1363 b 2036 1521 1822 1390 1967 1450 z "},"Ặ":{"ha":1372,"x_min":0,"x_max":0,"o":"m 1640 1026 b 1047 657 1433 1010 1240 854 b 554 907 938 825 736 907 b 444 418 90 907 47 443 b 758 607 571 410 708 481 l 674 672 b 446 438 663 542 576 428 b 554 885 203 461 210 874 b 1032 643 731 890 926 807 b 546 122 872 478 713 285 b 276 258 490 199 372 254 b 261 -81 4 271 -49 -58 b 597 11 376 -90 504 -47 b 543 -201 621 -71 554 -183 l 642 -161 b 613 21 647 -92 635 -32 b 1093 504 796 139 949 325 b 1108 290 1111 440 1117 369 b 1113 -115 1050 179 918 -69 b 1222 -93 1149 -124 1204 -112 l 1210 -28 b 1118 -99 1189 -69 1144 -106 b 1211 228 1044 -79 1190 183 b 1656 1003 1356 529 1589 999 b 1708 935 1679 1004 1694 979 l 1753 1014 b 1640 1026 1721 1029 1668 1029 z m 264 -50 b 294 186 31 -50 35 179 b 532 110 379 189 472 167 b 264 -50 463 38 374 -50 z m 1131 335 b 1110 524 1133 404 1126 467 b 1625 1008 1276 731 1436 929 b 1131 335 1540 969 1285 628 z m 753 -72 b 661 -162 701 -72 661 -112 b 753 -254 661 -214 701 -254 b 842 -162 803 -254 842 -214 b 753 -72 842 -112 803 -72 z m 1638 1175 b 1554 1276 1533 1175 1513 1214 l 1528 1276 b 1593 1064 1421 1150 1475 1064 b 1932 1272 1744 1064 1839 1136 l 1904 1272 b 1638 1175 1824 1196 1729 1175 z "},"Ằ":{"ha":1372,"x_min":0,"x_max":0,"o":"m 1640 1026 b 1047 657 1433 1010 1240 854 b 554 907 938 825 736 907 b 444 418 90 907 47 443 b 758 607 571 410 708 481 l 674 672 b 446 438 663 542 576 428 b 554 885 203 461 210 874 b 1032 643 731 890 926 807 b 546 122 872 478 713 285 b 276 258 490 199 372 254 b 261 -81 4 271 -49 -58 b 597 11 376 -90 504 -47 b 543 -201 621 -71 554 -183 l 642 -161 b 613 21 647 -92 635 -32 b 1093 504 796 139 949 325 b 1108 290 1111 440 1117 369 b 1113 -115 1050 179 918 -69 b 1222 -93 1149 -124 1204 -112 l 1210 -28 b 1118 -99 1189 -69 1144 -106 b 1211 228 1044 -79 1190 183 b 1656 1003 1356 529 1589 999 b 1708 935 1679 1004 1694 979 l 1753 1014 b 1640 1026 1721 1029 1668 1029 z m 264 -50 b 294 186 31 -50 35 179 b 532 110 379 189 472 167 b 264 -50 463 38 374 -50 z m 1131 335 b 1110 524 1133 404 1126 467 b 1625 1008 1276 731 1436 929 b 1131 335 1540 969 1285 628 z m 1638 1175 b 1554 1276 1533 1175 1513 1214 l 1528 1276 b 1593 1064 1421 1150 1475 1064 b 1932 1272 1744 1064 1839 1136 l 1904 1272 b 1638 1175 1824 1196 1729 1175 z m 1774 1617 l 1632 1590 b 1846 1363 1701 1450 1790 1390 l 1854 1379 b 1774 1617 1811 1408 1774 1554 z "},"Ẳ":{"ha":1372,"x_min":0,"x_max":0,"o":"m 1640 1026 b 1047 657 1433 1010 1240 854 b 554 907 938 825 736 907 b 444 418 90 907 47 443 b 758 607 571 410 708 481 l 674 672 b 446 438 663 542 576 428 b 554 885 203 461 210 874 b 1032 643 731 890 926 807 b 546 122 872 478 713 285 b 276 258 490 199 372 254 b 261 -81 4 271 -49 -58 b 597 11 376 -90 504 -47 b 543 -201 621 -71 554 -183 l 642 -161 b 613 21 647 -92 635 -32 b 1093 504 796 139 949 325 b 1108 290 1111 440 1117 369 b 1113 -115 1050 179 918 -69 b 1222 -93 1149 -124 1204 -112 l 1210 -28 b 1118 -99 1189 -69 1144 -106 b 1211 228 1044 -79 1190 183 b 1656 1003 1356 529 1589 999 b 1708 935 1679 1004 1694 979 l 1753 1014 b 1640 1026 1721 1029 1668 1029 z m 264 -50 b 294 186 31 -50 35 179 b 532 110 379 189 472 167 b 264 -50 463 38 374 -50 z m 1131 335 b 1110 524 1133 404 1126 467 b 1625 1008 1276 731 1436 929 b 1131 335 1540 969 1285 628 z m 1638 1175 b 1554 1276 1533 1175 1513 1214 l 1528 1276 b 1593 1064 1421 1150 1475 1064 b 1932 1272 1744 1064 1839 1136 l 1904 1272 b 1638 1175 1824 1196 1729 1175 z m 1713 1394 l 1722 1381 b 2060 1615 1946 1449 2043 1521 b 1875 1786 2082 1708 1993 1779 l 1869 1765 b 1938 1606 1942 1751 1951 1661 b 1713 1394 1915 1525 1861 1465 z "},"Ẵ":{"ha":1372,"x_min":0,"x_max":0,"o":"m 1640 1026 b 1047 657 1433 1010 1240 854 b 554 907 938 825 736 907 b 444 418 90 907 47 443 b 758 607 571 410 708 481 l 674 672 b 446 438 663 542 576 428 b 554 885 203 461 210 874 b 1032 643 731 890 926 807 b 546 122 872 478 713 285 b 276 258 490 199 372 254 b 261 -81 4 271 -49 -58 b 597 11 376 -90 504 -47 b 543 -201 621 -71 554 -183 l 642 -161 b 613 21 647 -92 635 -32 b 1093 504 796 139 949 325 b 1108 290 1111 440 1117 369 b 1113 -115 1050 179 918 -69 b 1222 -93 1149 -124 1204 -112 l 1210 -28 b 1118 -99 1189 -69 1144 -106 b 1211 228 1044 -79 1190 183 b 1656 1003 1356 529 1589 999 b 1708 935 1679 1004 1694 979 l 1753 1014 b 1640 1026 1721 1029 1668 1029 z m 264 -50 b 294 186 31 -50 35 179 b 532 110 379 189 472 167 b 264 -50 463 38 374 -50 z m 1131 335 b 1110 524 1133 404 1126 467 b 1625 1008 1276 731 1436 929 b 1131 335 1540 969 1285 628 z m 1638 1175 b 1554 1276 1533 1175 1513 1214 l 1528 1276 b 1593 1064 1421 1150 1475 1064 b 1932 1272 1744 1064 1839 1136 l 1904 1272 b 1638 1175 1824 1196 1729 1175 z m 1572 1378 l 1590 1364 b 1692 1415 1617 1407 1646 1415 b 1861 1383 1735 1415 1799 1383 b 2029 1532 1926 1383 1986 1436 l 2011 1544 b 1913 1482 1974 1489 1958 1482 b 1743 1513 1883 1482 1790 1513 b 1572 1378 1667 1513 1601 1463 z "},"Ǎ":{"ha":1372,"x_min":0,"x_max":0,"o":"m 1640 1026 b 1047 657 1433 1010 1240 854 b 554 907 938 825 736 907 b 444 418 90 907 47 443 b 758 607 571 410 708 481 l 674 672 b 446 438 663 542 576 428 b 554 885 203 461 210 874 b 1032 643 731 890 926 807 b 546 122 872 478 713 285 b 276 258 490 199 372 254 b 261 -81 4 271 -49 -58 b 597 11 376 -90 504 -47 b 543 -201 621 -71 554 -183 l 642 -161 b 613 21 647 -92 635 -32 b 1093 504 796 139 949 325 b 1108 290 1111 440 1117 369 b 1113 -115 1050 179 918 -69 b 1222 -93 1149 -124 1204 -112 l 1210 -28 b 1118 -99 1189 -69 1144 -106 b 1211 228 1044 -79 1190 183 b 1656 1003 1356 529 1589 999 b 1708 935 1679 1004 1694 979 l 1753 1014 b 1640 1026 1721 1029 1668 1029 z m 264 -50 b 294 186 31 -50 35 179 b 532 110 379 189 472 167 b 264 -50 463 38 374 -50 z m 1131 335 b 1110 524 1133 404 1126 467 b 1625 1008 1276 731 1436 929 b 1131 335 1540 969 1285 628 z m 1839 1160 l 1901 1293 b 1599 1100 1822 1293 1696 1231 b 1510 1290 1625 1182 1596 1276 l 1447 1182 b 1567 1053 1524 1182 1599 1149 l 1606 1053 b 1839 1160 1665 1131 1772 1181 z "},"Â":{"ha":1372,"x_min":0,"x_max":0,"o":"m 1640 1026 b 1047 657 1433 1010 1240 854 b 554 907 938 825 736 907 b 444 418 90 907 47 443 b 758 607 571 410 708 481 l 674 672 b 446 438 663 542 576 428 b 554 885 203 461 210 874 b 1032 643 731 890 926 807 b 546 122 872 478 713 285 b 276 258 490 199 372 254 b 261 -81 4 271 -49 -58 b 597 11 376 -90 504 -47 b 543 -201 621 -71 554 -183 l 642 -161 b 613 21 647 -92 635 -32 b 1093 504 796 139 949 325 b 1108 290 1111 440 1117 369 b 1113 -115 1050 179 918 -69 b 1222 -93 1149 -124 1204 -112 l 1210 -28 b 1118 -99 1189 -69 1144 -106 b 1211 228 1044 -79 1190 183 b 1656 1003 1356 529 1589 999 b 1708 935 1679 1004 1694 979 l 1753 1014 b 1640 1026 1721 1029 1668 1029 z m 264 -50 b 294 186 31 -50 35 179 b 532 110 379 189 472 167 b 264 -50 463 38 374 -50 z m 1131 335 b 1110 524 1133 404 1126 467 b 1625 1008 1276 731 1436 929 b 1131 335 1540 969 1285 628 z m 1425 1176 l 1363 1043 b 1665 1236 1442 1043 1568 1106 b 1754 1046 1639 1154 1668 1060 l 1817 1154 b 1697 1283 1740 1154 1665 1188 l 1658 1283 b 1425 1176 1599 1206 1492 1156 z "},"Ấ":{"ha":1372,"x_min":0,"x_max":0,"o":"m 1640 1026 b 1047 657 1433 1010 1240 854 b 554 907 938 825 736 907 b 444 418 90 907 47 443 b 758 607 571 410 708 481 l 674 672 b 446 438 663 542 576 428 b 554 885 203 461 210 874 b 1032 643 731 890 926 807 b 546 122 872 478 713 285 b 276 258 490 199 372 254 b 261 -81 4 271 -49 -58 b 597 11 376 -90 504 -47 b 543 -201 621 -71 554 -183 l 642 -161 b 613 21 647 -92 635 -32 b 1093 504 796 139 949 325 b 1108 290 1111 440 1117 369 b 1113 -115 1050 179 918 -69 b 1222 -93 1149 -124 1204 -112 l 1210 -28 b 1118 -99 1189 -69 1144 -106 b 1211 228 1044 -79 1190 183 b 1656 1003 1356 529 1589 999 b 1708 935 1679 1004 1694 979 l 1753 1014 b 1640 1026 1721 1029 1668 1029 z m 264 -50 b 294 186 31 -50 35 179 b 532 110 379 189 472 167 b 264 -50 463 38 374 -50 z m 1131 335 b 1110 524 1133 404 1126 467 b 1625 1008 1276 731 1436 929 b 1131 335 1540 969 1285 628 z m 1425 1176 l 1363 1043 b 1665 1236 1442 1043 1568 1106 b 1754 1046 1639 1154 1668 1060 l 1817 1154 b 1697 1283 1740 1154 1665 1188 l 1658 1283 b 1425 1176 1599 1206 1492 1156 z m 2019 1513 l 1933 1608 b 1658 1371 1906 1546 1757 1400 l 1667 1354 b 2019 1513 1806 1382 1950 1442 z "},"Ậ":{"ha":1372,"x_min":0,"x_max":0,"o":"m 1640 1026 b 1047 657 1433 1010 1240 854 b 554 907 938 825 736 907 b 444 418 90 907 47 443 b 758 607 571 410 708 481 l 674 672 b 446 438 663 542 576 428 b 554 885 203 461 210 874 b 1032 643 731 890 926 807 b 546 122 872 478 713 285 b 276 258 490 199 372 254 b 261 -81 4 271 -49 -58 b 597 11 376 -90 504 -47 b 543 -201 621 -71 554 -183 l 642 -161 b 613 21 647 -92 635 -32 b 1093 504 796 139 949 325 b 1108 290 1111 440 1117 369 b 1113 -115 1050 179 918 -69 b 1222 -93 1149 -124 1204 -112 l 1210 -28 b 1118 -99 1189 -69 1144 -106 b 1211 228 1044 -79 1190 183 b 1656 1003 1356 529 1589 999 b 1708 935 1679 1004 1694 979 l 1753 1014 b 1640 1026 1721 1029 1668 1029 z m 264 -50 b 294 186 31 -50 35 179 b 532 110 379 189 472 167 b 264 -50 463 38 374 -50 z m 1131 335 b 1110 524 1133 404 1126 467 b 1625 1008 1276 731 1436 929 b 1131 335 1540 969 1285 628 z m 753 -72 b 661 -162 701 -72 661 -112 b 753 -254 661 -214 701 -254 b 842 -162 803 -254 842 -214 b 753 -72 842 -112 803 -72 z m 1425 1176 l 1363 1043 b 1665 1236 1442 1043 1568 1106 b 1754 1046 1639 1154 1668 1060 l 1817 1154 b 1697 1283 1740 1154 1665 1188 l 1658 1283 b 1425 1176 1599 1206 1492 1156 z "},"Ầ":{"ha":1372,"x_min":0,"x_max":0,"o":"m 1640 1026 b 1047 657 1433 1010 1240 854 b 554 907 938 825 736 907 b 444 418 90 907 47 443 b 758 607 571 410 708 481 l 674 672 b 446 438 663 542 576 428 b 554 885 203 461 210 874 b 1032 643 731 890 926 807 b 546 122 872 478 713 285 b 276 258 490 199 372 254 b 261 -81 4 271 -49 -58 b 597 11 376 -90 504 -47 b 543 -201 621 -71 554 -183 l 642 -161 b 613 21 647 -92 635 -32 b 1093 504 796 139 949 325 b 1108 290 1111 440 1117 369 b 1113 -115 1050 179 918 -69 b 1222 -93 1149 -124 1204 -112 l 1210 -28 b 1118 -99 1189 -69 1144 -106 b 1211 228 1044 -79 1190 183 b 1656 1003 1356 529 1589 999 b 1708 935 1679 1004 1694 979 l 1753 1014 b 1640 1026 1721 1029 1668 1029 z m 264 -50 b 294 186 31 -50 35 179 b 532 110 379 189 472 167 b 264 -50 463 38 374 -50 z m 1131 335 b 1110 524 1133 404 1126 467 b 1625 1008 1276 731 1436 929 b 1131 335 1540 969 1285 628 z m 1425 1176 l 1363 1043 b 1665 1236 1442 1043 1568 1106 b 1754 1046 1639 1154 1668 1060 l 1817 1154 b 1697 1283 1740 1154 1665 1188 l 1658 1283 b 1425 1176 1599 1206 1492 1156 z m 1757 1608 l 1615 1582 b 1829 1354 1685 1442 1774 1382 l 1838 1371 b 1757 1608 1794 1400 1757 1546 z "},"Ẩ":{"ha":1372,"x_min":0,"x_max":0,"o":"m 1640 1026 b 1047 657 1433 1010 1240 854 b 554 907 938 825 736 907 b 444 418 90 907 47 443 b 758 607 571 410 708 481 l 674 672 b 446 438 663 542 576 428 b 554 885 203 461 210 874 b 1032 643 731 890 926 807 b 546 122 872 478 713 285 b 276 258 490 199 372 254 b 261 -81 4 271 -49 -58 b 597 11 376 -90 504 -47 b 543 -201 621 -71 554 -183 l 642 -161 b 613 21 647 -92 635 -32 b 1093 504 796 139 949 325 b 1108 290 1111 440 1117 369 b 1113 -115 1050 179 918 -69 b 1222 -93 1149 -124 1204 -112 l 1210 -28 b 1118 -99 1189 -69 1144 -106 b 1211 228 1044 -79 1190 183 b 1656 1003 1356 529 1589 999 b 1708 935 1679 1004 1694 979 l 1753 1014 b 1640 1026 1721 1029 1668 1029 z m 264 -50 b 294 186 31 -50 35 179 b 532 110 379 189 472 167 b 264 -50 463 38 374 -50 z m 1131 335 b 1110 524 1133 404 1126 467 b 1625 1008 1276 731 1436 929 b 1131 335 1540 969 1285 628 z m 1425 1176 l 1363 1043 b 1665 1236 1442 1043 1568 1106 b 1754 1046 1639 1154 1668 1060 l 1817 1154 b 1697 1283 1740 1154 1665 1188 l 1658 1283 b 1425 1176 1599 1206 1492 1156 z m 1696 1386 l 1706 1372 b 2043 1607 1929 1440 2026 1513 b 1858 1778 2065 1700 1976 1771 l 1853 1757 b 1921 1597 1925 1743 1935 1653 b 1696 1386 1899 1517 1844 1457 z "},"Ẫ":{"ha":1372,"x_min":0,"x_max":0,"o":"m 1640 1026 b 1047 657 1433 1010 1240 854 b 554 907 938 825 736 907 b 444 418 90 907 47 443 b 758 607 571 410 708 481 l 674 672 b 446 438 663 542 576 428 b 554 885 203 461 210 874 b 1032 643 731 890 926 807 b 546 122 872 478 713 285 b 276 258 490 199 372 254 b 261 -81 4 271 -49 -58 b 597 11 376 -90 504 -47 b 543 -201 621 -71 554 -183 l 642 -161 b 613 21 647 -92 635 -32 b 1093 504 796 139 949 325 b 1108 290 1111 440 1117 369 b 1113 -115 1050 179 918 -69 b 1222 -93 1149 -124 1204 -112 l 1210 -28 b 1118 -99 1189 -69 1144 -106 b 1211 228 1044 -79 1190 183 b 1656 1003 1356 529 1589 999 b 1708 935 1679 1004 1694 979 l 1753 1014 b 1640 1026 1721 1029 1668 1029 z m 264 -50 b 294 186 31 -50 35 179 b 532 110 379 189 472 167 b 264 -50 463 38 374 -50 z m 1131 335 b 1110 524 1133 404 1126 467 b 1625 1008 1276 731 1436 929 b 1131 335 1540 969 1285 628 z m 1425 1176 l 1363 1043 b 1665 1236 1442 1043 1568 1106 b 1754 1046 1639 1154 1668 1060 l 1817 1154 b 1697 1283 1740 1154 1665 1188 l 1658 1283 b 1425 1176 1599 1206 1492 1156 z m 1556 1369 l 1574 1356 b 1675 1407 1600 1399 1629 1407 b 1844 1375 1718 1407 1782 1375 b 2013 1524 1910 1375 1969 1428 l 1994 1536 b 1896 1474 1957 1481 1942 1474 b 1726 1504 1867 1474 1774 1504 b 1556 1369 1650 1504 1585 1454 z "},"Ä":{"ha":1372,"x_min":0,"x_max":0,"o":"m 1640 1026 b 1047 657 1433 1010 1240 854 b 554 907 938 825 736 907 b 444 418 90 907 47 443 b 758 607 571 410 708 481 l 674 672 b 446 438 663 542 576 428 b 554 885 203 461 210 874 b 1032 643 731 890 926 807 b 546 122 872 478 713 285 b 276 258 490 199 372 254 b 261 -81 4 271 -49 -58 b 597 11 376 -90 504 -47 b 543 -201 621 -71 554 -183 l 642 -161 b 613 21 647 -92 635 -32 b 1093 504 796 139 949 325 b 1108 290 1111 440 1117 369 b 1113 -115 1050 179 918 -69 b 1222 -93 1149 -124 1204 -112 l 1210 -28 b 1118 -99 1189 -69 1144 -106 b 1211 228 1044 -79 1190 183 b 1656 1003 1356 529 1589 999 b 1708 935 1679 1004 1694 979 l 1753 1014 b 1640 1026 1721 1029 1668 1029 z m 264 -50 b 294 186 31 -50 35 179 b 532 110 379 189 472 167 b 264 -50 463 38 374 -50 z m 1131 335 b 1110 524 1133 404 1126 467 b 1625 1008 1276 731 1436 929 b 1131 335 1540 969 1285 628 z m 1539 1057 b 1631 1147 1590 1057 1631 1097 b 1539 1239 1631 1199 1590 1239 b 1450 1147 1489 1239 1450 1199 b 1539 1057 1450 1097 1489 1057 z m 1761 1057 b 1853 1147 1813 1057 1853 1097 b 1761 1239 1853 1199 1813 1239 b 1672 1147 1711 1239 1672 1199 b 1761 1057 1672 1097 1711 1057 z "},"Ǟ":{"ha":1372,"x_min":0,"x_max":0,"o":"m 1640 1026 b 1047 657 1433 1010 1240 854 b 554 907 938 825 736 907 b 444 418 90 907 47 443 b 758 607 571 410 708 481 l 674 672 b 446 438 663 542 576 428 b 554 885 203 461 210 874 b 1032 643 731 890 926 807 b 546 122 872 478 713 285 b 276 258 490 199 372 254 b 261 -81 4 271 -49 -58 b 597 11 376 -90 504 -47 b 543 -201 621 -71 554 -183 l 642 -161 b 613 21 647 -92 635 -32 b 1093 504 796 139 949 325 b 1108 290 1111 440 1117 369 b 1113 -115 1050 179 918 -69 b 1222 -93 1149 -124 1204 -112 l 1210 -28 b 1118 -99 1189 -69 1144 -106 b 1211 228 1044 -79 1190 183 b 1656 1003 1356 529 1589 999 b 1708 935 1679 1004 1694 979 l 1753 1014 b 1640 1026 1721 1029 1668 1029 z m 264 -50 b 294 186 31 -50 35 179 b 532 110 379 189 472 167 b 264 -50 463 38 374 -50 z m 1131 335 b 1110 524 1133 404 1126 467 b 1625 1008 1276 731 1436 929 b 1131 335 1540 969 1285 628 z m 1539 1057 b 1631 1147 1590 1057 1631 1097 b 1539 1239 1631 1199 1590 1239 b 1450 1147 1489 1239 1450 1199 b 1539 1057 1450 1097 1489 1057 z m 1761 1057 b 1853 1147 1813 1057 1853 1097 b 1761 1239 1853 1199 1813 1239 b 1672 1147 1711 1239 1672 1199 b 1761 1057 1672 1097 1711 1057 z m 1983 1375 l 1526 1375 l 1511 1331 l 1968 1329 z "},"Ạ":{"ha":1372,"x_min":0,"x_max":0,"o":"m 1640 1026 b 1047 657 1433 1010 1240 854 b 554 907 938 825 736 907 b 444 418 90 907 47 443 b 758 607 571 410 708 481 l 674 672 b 446 438 663 542 576 428 b 554 885 203 461 210 874 b 1032 643 731 890 926 807 b 546 122 872 478 713 285 b 276 258 490 199 372 254 b 261 -81 4 271 -49 -58 b 597 11 376 -90 504 -47 b 543 -201 621 -71 554 -183 l 642 -161 b 613 21 647 -92 635 -32 b 1093 504 796 139 949 325 b 1108 290 1111 440 1117 369 b 1113 -115 1050 179 918 -69 b 1222 -93 1149 -124 1204 -112 l 1210 -28 b 1118 -99 1189 -69 1144 -106 b 1211 228 1044 -79 1190 183 b 1656 1003 1356 529 1589 999 b 1708 935 1679 1004 1694 979 l 1753 1014 b 1640 1026 1721 1029 1668 1029 z m 264 -50 b 294 186 31 -50 35 179 b 532 110 379 189 472 167 b 264 -50 463 38 374 -50 z m 1131 335 b 1110 524 1133 404 1126 467 b 1625 1008 1276 731 1436 929 b 1131 335 1540 969 1285 628 z m 753 -72 b 661 -162 701 -72 661 -112 b 753 -254 661 -214 701 -254 b 842 -162 803 -254 842 -214 b 753 -72 842 -112 803 -72 z "},"À":{"ha":1372,"x_min":0,"x_max":0,"o":"m 1640 1026 b 1047 657 1433 1010 1240 854 b 554 907 938 825 736 907 b 444 418 90 907 47 443 b 758 607 571 410 708 481 l 674 672 b 446 438 663 542 576 428 b 554 885 203 461 210 874 b 1032 643 731 890 926 807 b 546 122 872 478 713 285 b 276 258 490 199 372 254 b 261 -81 4 271 -49 -58 b 597 11 376 -90 504 -47 b 543 -201 621 -71 554 -183 l 642 -161 b 613 21 647 -92 635 -32 b 1093 504 796 139 949 325 b 1108 290 1111 440 1117 369 b 1113 -115 1050 179 918 -69 b 1222 -93 1149 -124 1204 -112 l 1210 -28 b 1118 -99 1189 -69 1144 -106 b 1211 228 1044 -79 1190 183 b 1656 1003 1356 529 1589 999 b 1708 935 1679 1004 1694 979 l 1753 1014 b 1640 1026 1721 1029 1668 1029 z m 264 -50 b 294 186 31 -50 35 179 b 532 110 379 189 472 167 b 264 -50 463 38 374 -50 z m 1131 335 b 1110 524 1133 404 1126 467 b 1625 1008 1276 731 1436 929 b 1131 335 1540 969 1285 628 z m 1604 1313 l 1463 1286 b 1676 1058 1532 1146 1621 1086 l 1685 1075 b 1604 1313 1642 1104 1604 1250 z "},"Ả":{"ha":1372,"x_min":0,"x_max":0,"o":"m 1640 1026 b 1047 657 1433 1010 1240 854 b 554 907 938 825 736 907 b 444 418 90 907 47 443 b 758 607 571 410 708 481 l 674 672 b 446 438 663 542 576 428 b 554 885 203 461 210 874 b 1032 643 731 890 926 807 b 546 122 872 478 713 285 b 276 258 490 199 372 254 b 261 -81 4 271 -49 -58 b 597 11 376 -90 504 -47 b 543 -201 621 -71 554 -183 l 642 -161 b 613 21 647 -92 635 -32 b 1093 504 796 139 949 325 b 1108 290 1111 440 1117 369 b 1113 -115 1050 179 918 -69 b 1222 -93 1149 -124 1204 -112 l 1210 -28 b 1118 -99 1189 -69 1144 -106 b 1211 228 1044 -79 1190 183 b 1656 1003 1356 529 1589 999 b 1708 935 1679 1004 1694 979 l 1753 1014 b 1640 1026 1721 1029 1668 1029 z m 264 -50 b 294 186 31 -50 35 179 b 532 110 379 189 472 167 b 264 -50 463 38 374 -50 z m 1131 335 b 1110 524 1133 404 1126 467 b 1625 1008 1276 731 1436 929 b 1131 335 1540 969 1285 628 z m 1543 1090 l 1553 1076 b 1890 1311 1776 1144 1874 1217 b 1706 1482 1913 1404 1824 1475 l 1700 1461 b 1768 1301 1772 1447 1782 1357 b 1543 1090 1746 1221 1692 1161 z "},"Ȃ":{"ha":1372,"x_min":0,"x_max":0,"o":"m 1640 1026 b 1047 657 1433 1010 1240 854 b 554 907 938 825 736 907 b 444 418 90 907 47 443 b 758 607 571 410 708 481 l 674 672 b 446 438 663 542 576 428 b 554 885 203 461 210 874 b 1032 643 731 890 926 807 b 546 122 872 478 713 285 b 276 258 490 199 372 254 b 261 -81 4 271 -49 -58 b 597 11 376 -90 504 -47 b 543 -201 621 -71 554 -183 l 642 -161 b 613 21 647 -92 635 -32 b 1093 504 796 139 949 325 b 1108 290 1111 440 1117 369 b 1113 -115 1050 179 918 -69 b 1222 -93 1149 -124 1204 -112 l 1210 -28 b 1118 -99 1189 -69 1144 -106 b 1211 228 1044 -79 1190 183 b 1656 1003 1356 529 1589 999 b 1708 935 1679 1004 1694 979 l 1753 1014 b 1640 1026 1721 1029 1668 1029 z m 264 -50 b 294 186 31 -50 35 179 b 532 110 379 189 472 167 b 264 -50 463 38 374 -50 z m 1131 335 b 1110 524 1133 404 1126 467 b 1625 1008 1276 731 1436 929 b 1131 335 1540 969 1285 628 z m 1871 1539 b 1954 1438 1975 1539 1996 1500 l 1981 1438 b 1915 1650 2088 1564 2033 1650 b 1576 1442 1764 1650 1669 1578 l 1604 1442 b 1871 1539 1685 1518 1779 1539 z "},"Ɑ":{"ha":1797,"x_min":0,"x_max":0,"o":"m 622 115 b 982 408 764 113 914 304 b 956 139 943 326 908 217 b 1354 28 1022 29 1243 18 b 1582 606 1982 83 1968 585 b 1279 394 1463 613 1325 549 l 1374 333 b 1582 588 1382 463 1456 596 b 1350 47 1840 572 1794 86 b 1031 157 1279 40 1022 42 b 1247 604 1038 279 1206 535 b 1563 1064 1365 803 1510 1003 b 1843 929 1628 992 1739 931 b 1856 1257 2096 926 2149 1231 b 1517 1161 1739 1267 1614 1229 b 1551 1356 1494 1231 1538 1324 l 1460 1318 b 1500 1151 1456 1261 1476 1200 b 964 433 1265 978 1088 625 b 639 146 872 289 731 143 b 1144 1244 325 157 667 1304 b 1179 968 1385 1214 1344 983 b 1001 1168 1074 958 1006 1061 l 925 1074 b 1179 946 967 993 1078 935 b 1150 1272 1379 968 1407 1239 b 622 115 449 1363 143 125 z m 1856 1236 b 1839 997 2063 1224 2050 1008 b 1576 1078 1744 993 1642 1022 b 1856 1236 1647 1163 1740 1243 z "},"Ā":{"ha":1372,"x_min":0,"x_max":0,"o":"m 1640 1026 b 1047 657 1433 1010 1240 854 b 554 907 938 825 736 907 b 444 418 90 907 47 443 b 758 607 571 410 708 481 l 674 672 b 446 438 663 542 576 428 b 554 885 203 461 210 874 b 1032 643 731 890 926 807 b 546 122 872 478 713 285 b 276 258 490 199 372 254 b 261 -81 4 271 -49 -58 b 597 11 376 -90 504 -47 b 543 -201 621 -71 554 -183 l 642 -161 b 613 21 647 -92 635 -32 b 1093 504 796 139 949 325 b 1108 290 1111 440 1117 369 b 1113 -115 1050 179 918 -69 b 1222 -93 1149 -124 1204 -112 l 1210 -28 b 1118 -99 1189 -69 1144 -106 b 1211 228 1044 -79 1190 183 b 1656 1003 1356 529 1589 999 b 1708 935 1679 1004 1694 979 l 1753 1014 b 1640 1026 1721 1029 1668 1029 z m 264 -50 b 294 186 31 -50 35 179 b 532 110 379 189 472 167 b 264 -50 463 38 374 -50 z m 1131 335 b 1110 524 1133 404 1126 467 b 1625 1008 1276 731 1436 929 b 1131 335 1540 969 1285 628 z m 1853 1139 l 1396 1139 l 1381 1094 l 1838 1093 z "},"Ą":{"ha":1372,"x_min":0,"x_max":0,"o":"m 1640 1026 b 1047 657 1433 1010 1240 854 b 554 907 938 825 736 907 b 444 418 90 907 47 443 b 758 607 571 410 708 481 l 674 672 b 446 438 663 542 576 428 b 554 885 203 461 210 874 b 1032 643 731 890 926 807 b 546 122 872 478 713 285 b 276 258 490 199 372 254 b 261 -81 4 271 -49 -58 b 597 11 376 -90 504 -47 b 543 -201 621 -71 554 -183 l 642 -161 b 613 21 647 -92 635 -32 b 1093 504 796 139 949 325 b 1108 290 1111 440 1117 369 b 1100 -112 1051 182 922 -58 b 833 -324 928 -174 849 -239 b 1018 -494 811 -417 900 -487 l 1024 -474 b 956 -314 951 -460 942 -369 b 1150 -118 976 -239 1025 -182 b 1222 -93 1181 -115 1210 -107 l 1210 -28 b 1118 -99 1189 -69 1144 -106 b 1211 228 1044 -79 1190 183 b 1656 1003 1356 529 1589 999 b 1708 935 1679 1004 1694 979 l 1753 1014 b 1640 1026 1721 1029 1668 1029 z m 264 -50 b 294 186 31 -50 35 179 b 532 110 379 189 472 167 b 264 -50 463 38 374 -50 z m 1131 335 b 1110 524 1133 404 1126 467 b 1625 1008 1276 731 1436 929 b 1131 335 1540 969 1285 628 z "},"Å":{"ha":1372,"x_min":0,"x_max":0,"o":"m 1640 1026 b 1047 657 1433 1010 1240 854 b 554 907 938 825 736 907 b 444 418 90 907 47 443 b 758 607 571 410 708 481 l 674 672 b 446 438 663 542 576 428 b 554 885 203 461 210 874 b 1032 643 731 890 926 807 b 546 122 872 478 713 285 b 276 258 490 199 372 254 b 261 -81 4 271 -49 -58 b 597 11 376 -90 504 -47 b 543 -201 621 -71 554 -183 l 642 -161 b 613 21 647 -92 635 -32 b 1093 504 796 139 949 325 b 1108 290 1111 440 1117 369 b 1113 -115 1050 179 918 -69 b 1222 -93 1149 -124 1204 -112 l 1210 -28 b 1118 -99 1189 -69 1144 -106 b 1211 228 1044 -79 1190 183 b 1656 1003 1356 529 1589 999 b 1708 935 1679 1004 1694 979 l 1753 1014 b 1640 1026 1721 1029 1668 1029 z m 264 -50 b 294 186 31 -50 35 179 b 532 110 379 189 472 167 b 264 -50 463 38 374 -50 z m 1131 335 b 1110 524 1133 404 1126 467 b 1625 1008 1276 731 1436 929 b 1131 335 1540 969 1285 628 z m 1681 1071 b 1836 1225 1765 1071 1836 1140 b 1681 1381 1836 1310 1765 1381 b 1526 1225 1596 1381 1526 1310 b 1681 1071 1526 1140 1596 1071 z m 1682 1115 b 1571 1226 1619 1115 1571 1164 b 1682 1336 1571 1288 1619 1336 b 1792 1226 1743 1336 1792 1288 b 1682 1115 1792 1164 1743 1115 z "},"Ã":{"ha":1372,"x_min":0,"x_max":0,"o":"m 1640 1026 b 1047 657 1433 1010 1240 854 b 554 907 938 825 736 907 b 444 418 90 907 47 443 b 758 607 571 410 708 481 l 674 672 b 446 438 663 542 576 428 b 554 885 203 461 210 874 b 1032 643 731 890 926 807 b 546 122 872 478 713 285 b 276 258 490 199 372 254 b 261 -81 4 271 -49 -58 b 597 11 376 -90 504 -47 b 543 -201 621 -71 554 -183 l 642 -161 b 613 21 647 -92 635 -32 b 1093 504 796 139 949 325 b 1108 290 1111 440 1117 369 b 1113 -115 1050 179 918 -69 b 1222 -93 1149 -124 1204 -112 l 1210 -28 b 1118 -99 1189 -69 1144 -106 b 1211 228 1044 -79 1190 183 b 1656 1003 1356 529 1589 999 b 1708 935 1679 1004 1694 979 l 1753 1014 b 1640 1026 1721 1029 1668 1029 z m 264 -50 b 294 186 31 -50 35 179 b 532 110 379 189 472 167 b 264 -50 463 38 374 -50 z m 1131 335 b 1110 524 1133 404 1126 467 b 1625 1008 1276 731 1436 929 b 1131 335 1540 969 1285 628 z m 1403 1074 l 1421 1060 b 1522 1111 1447 1103 1476 1111 b 1692 1079 1565 1111 1629 1079 b 1860 1228 1757 1079 1817 1132 l 1842 1240 b 1743 1178 1804 1185 1789 1178 b 1574 1208 1714 1178 1621 1208 b 1403 1074 1497 1208 1432 1158 z "},"Æ":{"ha":1793,"x_min":0,"x_max":0,"o":"m 264 -50 b 294 186 31 -50 35 179 b 532 110 379 189 472 167 b 264 -50 463 38 374 -50 z m 1565 981 b 1706 992 1624 1003 1674 1004 b 1664 603 1568 913 1518 743 b 1215 331 1485 615 1279 506 b 1131 550 1203 406 1179 469 b 1565 981 1276 731 1429 929 z m 2017 1011 b 1731 1004 1910 1049 1808 1040 b 1604 1024 1693 1026 1650 1028 b 1047 657 1433 1010 1240 854 b 554 907 938 825 736 907 b 444 418 90 907 47 443 b 758 607 571 410 708 481 l 674 672 b 446 438 663 542 576 428 b 554 885 203 461 210 874 b 1032 643 731 890 926 807 b 546 122 872 478 713 285 b 276 258 490 199 372 254 b 261 -81 4 271 -49 -58 b 597 11 376 -90 504 -47 b 543 -201 621 -71 554 -183 l 642 -161 b 613 21 647 -92 635 -32 b 1115 533 796 139 950 328 b 1199 269 1175 431 1185 365 b 1199 169 1194 239 1193 206 b 1571 -114 1218 33 1333 -118 b 1864 151 1776 -111 1875 29 b 1696 321 1857 233 1796 308 b 1504 274 1635 329 1558 317 l 1539 142 b 1704 281 1582 236 1639 282 b 1843 146 1786 279 1838 217 b 1575 -75 1851 39 1761 -90 b 1685 579 1225 -47 1324 539 b 1726 617 1833 389 1975 614 b 1781 913 1682 717 1700 825 b 1999 772 1822 849 1915 786 b 2017 1011 2163 744 2214 943 z m 2003 790 b 1799 928 1922 803 1836 864 b 2000 978 1825 956 1913 990 b 2003 790 2183 953 2150 767 z "},"Ǣ":{"ha":1793,"x_min":0,"x_max":0,"o":"m 264 -50 b 294 186 31 -50 35 179 b 532 110 379 189 472 167 b 264 -50 463 38 374 -50 z m 1565 981 b 1706 992 1624 1003 1674 1004 b 1664 603 1568 913 1518 743 b 1215 331 1485 615 1279 506 b 1131 550 1203 406 1179 469 b 1565 981 1276 731 1429 929 z m 2017 1011 b 1731 1004 1910 1049 1808 1040 b 1604 1024 1693 1026 1650 1028 b 1047 657 1433 1010 1240 854 b 554 907 938 825 736 907 b 444 418 90 907 47 443 b 758 607 571 410 708 481 l 674 672 b 446 438 663 542 576 428 b 554 885 203 461 210 874 b 1032 643 731 890 926 807 b 546 122 872 478 713 285 b 276 258 490 199 372 254 b 261 -81 4 271 -49 -58 b 597 11 376 -90 504 -47 b 543 -201 621 -71 554 -183 l 642 -161 b 613 21 647 -92 635 -32 b 1115 533 796 139 950 328 b 1199 269 1175 431 1185 365 b 1199 169 1194 239 1193 206 b 1571 -114 1218 33 1333 -118 b 1864 151 1776 -111 1875 29 b 1696 321 1857 233 1796 308 b 1504 274 1635 329 1558 317 l 1539 142 b 1704 281 1582 236 1639 282 b 1843 146 1786 279 1838 217 b 1575 -75 1851 39 1761 -90 b 1685 579 1225 -47 1324 539 b 1726 617 1833 389 1975 614 b 1781 913 1682 717 1700 825 b 1999 772 1822 849 1915 786 b 2017 1011 2163 744 2214 943 z m 2003 790 b 1799 928 1922 803 1836 864 b 2000 978 1825 956 1913 990 b 2003 790 2183 953 2150 767 z m 2054 1153 l 1597 1153 l 1582 1108 l 2039 1107 z "},"B":{"ha":1588,"x_min":0,"x_max":0,"o":"m 1429 1029 b 1108 731 1324 1028 1203 876 b 1135 1000 1147 813 1181 922 b 736 1111 1068 1110 847 1121 b 507 533 108 1056 122 554 b 811 744 628 526 764 590 l 717 806 b 508 551 708 676 635 543 b 740 1092 250 567 296 1053 b 1060 982 811 1099 1067 1097 b 843 535 1053 860 885 604 b 528 75 725 336 581 136 b 247 210 463 147 351 208 b 233 -118 -6 213 -58 -92 b 572 -22 351 -128 476 -90 b 539 -217 596 -92 553 -185 l 631 -179 b 589 -12 633 -122 614 -61 b 1125 706 825 161 968 457 b 1435 1001 1217 850 1329 996 b 1303 536 1581 1008 1500 586 b 1292 497 1074 739 956 443 b 1285 142 1354 426 1325 246 b 971 -75 1231 1 1113 -92 b 974 199 713 -43 779 219 b 1114 8 1060 190 1108 114 l 1188 89 b 976 222 1149 171 1065 218 b 964 -111 740 236 682 -69 b 1424 96 1176 -143 1353 -51 b 1339 511 1488 231 1474 421 b 1429 1029 1742 563 1721 1033 z m 235 -97 b 250 142 28 -85 40 131 b 514 61 346 146 449 117 b 235 -97 443 -24 350 -104 z "},"Ḅ":{"ha":1588,"x_min":0,"x_max":0,"o":"m 1429 1029 b 1108 731 1324 1028 1203 876 b 1135 1000 1147 813 1181 922 b 736 1111 1068 1110 847 1121 b 507 533 108 1056 122 554 b 811 744 628 526 764 590 l 717 806 b 508 551 708 676 635 543 b 740 1092 250 567 296 1053 b 1060 982 811 1099 1067 1097 b 843 535 1053 860 885 604 b 528 75 725 336 581 136 b 247 210 463 147 351 208 b 233 -118 -6 213 -58 -92 b 572 -22 351 -128 476 -90 b 539 -217 596 -92 553 -185 l 597 -193 b 590 -226 593 -203 590 -215 b 682 -318 590 -278 631 -318 b 771 -226 732 -318 771 -278 b 682 -136 771 -176 732 -136 b 631 -151 663 -136 644 -142 b 589 -12 626 -101 610 -53 b 1125 706 825 161 968 457 b 1435 1001 1217 850 1329 996 b 1303 536 1581 1008 1500 586 b 1292 497 1074 739 956 443 b 1285 142 1354 426 1325 246 b 971 -75 1231 1 1113 -92 b 974 199 713 -43 779 219 b 1114 8 1060 190 1108 114 l 1188 89 b 976 222 1149 171 1065 218 b 964 -111 740 236 682 -69 b 1424 96 1176 -143 1353 -51 b 1339 511 1488 231 1474 421 b 1429 1029 1742 563 1721 1033 z m 235 -97 b 250 142 28 -85 40 131 b 514 61 346 146 449 117 b 235 -97 443 -24 350 -104 z "},"Ƀ":{"ha":1588,"x_min":0,"x_max":0,"o":"m 1429 1029 b 1108 731 1324 1028 1203 876 b 1135 1000 1147 813 1181 922 b 736 1111 1068 1110 847 1121 b 507 533 108 1056 122 554 b 811 744 628 526 764 590 l 717 806 b 508 551 708 676 635 543 b 740 1092 250 567 296 1053 b 1060 982 811 1099 1067 1097 b 843 535 1053 860 885 604 b 732 358 808 476 769 415 l 474 358 l 450 314 l 703 314 b 528 75 628 203 561 114 b 247 210 463 147 351 208 b 233 -118 -6 213 -58 -92 b 572 -22 351 -128 476 -90 b 539 -217 596 -92 553 -185 l 631 -179 b 589 -12 633 -122 614 -61 b 883 313 704 72 800 189 l 1149 313 l 1172 358 l 913 358 b 1125 706 986 472 1056 596 b 1435 1001 1217 850 1329 996 b 1303 536 1581 1008 1500 586 b 1292 497 1074 739 956 443 b 1285 142 1354 426 1325 246 b 971 -75 1231 1 1113 -92 b 974 199 713 -43 779 219 b 1114 8 1060 190 1108 114 l 1188 89 b 976 222 1149 171 1065 218 b 964 -111 740 236 682 -69 b 1424 96 1176 -143 1353 -51 b 1339 511 1488 231 1474 421 b 1429 1029 1742 563 1721 1033 z m 235 -97 b 250 142 28 -85 40 131 b 514 61 346 146 449 117 b 235 -97 443 -24 350 -104 z "},"C":{"ha":1501,"x_min":0,"x_max":0,"o":"m 1482 997 b 1011 943 1354 1049 1150 1036 b 515 1049 858 1006 710 1058 b 351 478 -46 1022 -18 496 b 653 682 472 469 593 525 l 564 749 b 353 496 556 619 478 486 b 518 1003 110 510 139 939 b 986 928 679 1029 835 986 b 675 83 665 694 542 310 b 1276 -18 786 -104 1117 -183 b 1250 371 1389 97 1389 293 b 946 356 1158 422 1029 422 l 982 206 b 1236 342 1033 314 1135 383 b 1260 4 1363 290 1363 110 b 783 119 1117 -143 844 -106 b 1082 878 718 364 879 724 b 1422 775 1164 844 1333 776 b 1482 997 1604 769 1625 940 z m 1421 801 b 1104 899 1328 806 1190 863 b 1469 975 1200 978 1358 1017 b 1421 801 1592 929 1586 794 z "},"Ć":{"ha":1501,"x_min":0,"x_max":0,"o":"m 1482 997 b 1011 943 1354 1049 1150 1036 b 515 1049 858 1006 710 1058 b 351 478 -46 1022 -18 496 b 653 682 472 469 593 525 l 564 749 b 353 496 556 619 478 486 b 518 1003 110 510 139 939 b 986 928 679 1029 835 986 b 675 83 665 694 542 310 b 1276 -18 786 -104 1117 -183 b 1250 371 1389 97 1389 293 b 946 356 1158 422 1029 422 l 982 206 b 1236 342 1033 314 1135 383 b 1260 4 1363 290 1363 110 b 783 119 1117 -143 844 -106 b 1082 878 718 364 879 724 b 1422 775 1164 844 1333 776 b 1482 997 1604 769 1625 940 z m 1421 801 b 1104 899 1328 806 1190 863 b 1469 975 1200 978 1358 1017 b 1421 801 1592 929 1586 794 z m 1636 1221 l 1550 1317 b 1275 1079 1522 1254 1374 1108 l 1283 1063 b 1636 1221 1422 1090 1567 1150 z "},"Č":{"ha":1501,"x_min":0,"x_max":0,"o":"m 1482 997 b 1011 943 1354 1049 1150 1036 b 515 1049 858 1006 710 1058 b 351 478 -46 1022 -18 496 b 653 682 472 469 593 525 l 564 749 b 353 496 556 619 478 486 b 518 1003 110 510 139 939 b 986 928 679 1029 835 986 b 675 83 665 694 542 310 b 1276 -18 786 -104 1117 -183 b 1250 371 1389 97 1389 293 b 946 356 1158 422 1029 422 l 982 206 b 1236 342 1033 314 1135 383 b 1260 4 1363 290 1363 110 b 783 119 1117 -143 844 -106 b 1082 878 718 364 879 724 b 1422 775 1164 844 1333 776 b 1482 997 1604 769 1625 940 z m 1421 801 b 1104 899 1328 806 1190 863 b 1469 975 1200 978 1358 1017 b 1421 801 1592 929 1586 794 z m 1608 1164 l 1671 1297 b 1368 1104 1592 1297 1465 1235 b 1279 1294 1394 1186 1365 1281 l 1217 1186 b 1336 1057 1293 1186 1368 1153 l 1375 1057 b 1608 1164 1435 1135 1542 1185 z "},"Ç":{"ha":1501,"x_min":0,"x_max":0,"o":"m 1482 997 b 1011 943 1354 1049 1150 1036 b 515 1049 858 1006 710 1058 b 351 478 -46 1022 -18 496 b 653 682 472 469 593 525 l 564 749 b 353 496 556 619 478 486 b 518 1003 110 510 139 939 b 986 928 679 1029 835 986 b 675 83 665 694 542 310 b 919 -90 724 1 817 -61 l 797 -211 l 801 -231 b 900 -289 861 -214 915 -232 b 717 -399 885 -343 822 -399 l 703 -417 b 1022 -279 821 -437 1001 -385 b 842 -201 1033 -221 981 -167 l 944 -97 b 1276 -18 1064 -124 1194 -103 b 1250 371 1389 97 1389 293 b 946 356 1158 422 1029 422 l 982 206 b 1236 342 1033 314 1135 383 b 1260 4 1363 290 1363 110 b 783 119 1117 -143 844 -106 b 1082 878 718 364 879 724 b 1422 775 1164 844 1333 776 b 1482 997 1604 769 1625 940 z m 1421 801 b 1104 899 1328 806 1190 863 b 1469 975 1200 978 1358 1017 b 1421 801 1592 929 1586 794 z "},"Ĉ":{"ha":1501,"x_min":0,"x_max":0,"o":"m 1482 997 b 1011 943 1354 1049 1150 1036 b 515 1049 858 1006 710 1058 b 351 478 -46 1022 -18 496 b 653 682 472 469 593 525 l 564 749 b 353 496 556 619 478 486 b 518 1003 110 510 139 939 b 986 928 679 1029 835 986 b 675 83 665 694 542 310 b 1276 -18 786 -104 1117 -183 b 1250 371 1389 97 1389 293 b 946 356 1158 422 1029 422 l 982 206 b 1236 342 1033 314 1135 383 b 1260 4 1363 290 1363 110 b 783 119 1117 -143 844 -106 b 1082 878 718 364 879 724 b 1422 775 1164 844 1333 776 b 1482 997 1604 769 1625 940 z m 1421 801 b 1104 899 1328 806 1190 863 b 1469 975 1200 978 1358 1017 b 1421 801 1592 929 1586 794 z m 1194 1181 l 1132 1047 b 1435 1240 1211 1047 1338 1110 b 1524 1050 1408 1158 1438 1064 l 1586 1158 b 1467 1288 1510 1158 1435 1192 l 1428 1288 b 1194 1181 1368 1210 1261 1160 z "},"Ċ":{"ha":1501,"x_min":0,"x_max":0,"o":"m 1482 997 b 1011 943 1354 1049 1150 1036 b 515 1049 858 1006 710 1058 b 351 478 -46 1022 -18 496 b 653 682 472 469 593 525 l 564 749 b 353 496 556 619 478 486 b 518 1003 110 510 139 939 b 986 928 679 1029 835 986 b 675 83 665 694 542 310 b 1276 -18 786 -104 1117 -183 b 1250 371 1389 97 1389 293 b 946 356 1158 422 1029 422 l 982 206 b 1236 342 1033 314 1135 383 b 1260 4 1363 290 1363 110 b 783 119 1117 -143 844 -106 b 1082 878 718 364 879 724 b 1422 775 1164 844 1333 776 b 1482 997 1604 769 1625 940 z m 1421 801 b 1104 899 1328 806 1190 863 b 1469 975 1200 978 1358 1017 b 1421 801 1592 929 1586 794 z m 1406 1061 b 1497 1151 1457 1061 1497 1101 b 1406 1243 1497 1203 1457 1243 b 1317 1151 1356 1243 1317 1203 b 1406 1061 1317 1101 1356 1061 z "},"D":{"ha":1797,"x_min":0,"x_max":0,"o":"m 1524 1024 b 1164 731 1382 1026 1232 835 b 1190 1000 1203 813 1238 922 b 792 1111 1124 1110 903 1121 b 564 533 164 1056 178 554 b 867 744 683 526 821 590 l 772 806 b 564 551 764 676 690 543 b 796 1092 306 567 351 1053 b 1115 982 867 1099 1124 1097 b 899 535 1108 860 940 604 b 583 75 781 336 636 136 b 303 210 518 147 407 208 b 290 -118 50 213 -3 -92 b 629 -22 407 -128 532 -90 b 594 -217 651 -92 608 -185 l 686 -179 b 646 -12 690 -122 669 -61 b 1182 706 881 161 1058 514 b 1507 993 1274 850 1415 996 b 1001 -106 1821 982 1479 -165 b 967 171 761 -75 801 156 b 1144 -29 1072 181 1140 78 l 1221 65 b 967 193 1179 146 1068 204 b 996 -133 767 171 739 -100 b 1524 1024 1697 -224 2003 1014 z m 290 -97 b 307 142 83 -85 96 131 b 569 61 401 146 504 117 b 290 -97 499 -24 406 -104 z "},"Ď":{"ha":1797,"x_min":0,"x_max":0,"o":"m 1524 1024 b 1164 731 1382 1026 1232 835 b 1190 1000 1203 813 1238 922 b 792 1111 1124 1110 903 1121 b 564 533 164 1056 178 554 b 867 744 683 526 821 590 l 772 806 b 564 551 764 676 690 543 b 796 1092 306 567 351 1053 b 1115 982 867 1099 1124 1097 b 899 535 1108 860 940 604 b 583 75 781 336 636 136 b 303 210 518 147 407 208 b 290 -118 50 213 -3 -92 b 629 -22 407 -128 532 -90 b 594 -217 651 -92 608 -185 l 686 -179 b 646 -12 690 -122 669 -61 b 1182 706 881 161 1058 514 b 1507 993 1274 850 1415 996 b 1001 -106 1821 982 1479 -165 b 967 171 761 -75 801 156 b 1144 -29 1072 181 1140 78 l 1221 65 b 967 193 1179 146 1068 204 b 996 -133 767 171 739 -100 b 1524 1024 1697 -224 2003 1014 z m 290 -97 b 307 142 83 -85 96 131 b 569 61 401 146 504 117 b 290 -97 499 -24 406 -104 z m 1683 1160 l 1746 1293 b 1443 1100 1667 1293 1540 1231 b 1354 1290 1469 1182 1440 1276 l 1292 1182 b 1411 1053 1368 1182 1443 1149 l 1450 1053 b 1683 1160 1510 1131 1617 1181 z "},"Ḓ":{"ha":1797,"x_min":0,"x_max":0,"o":"m 1524 1024 b 1164 731 1382 1026 1232 835 b 1190 1000 1203 813 1238 922 b 792 1111 1124 1110 903 1121 b 564 533 164 1056 178 554 b 867 744 683 526 821 590 l 772 806 b 564 551 764 676 690 543 b 796 1092 306 567 351 1053 b 1115 982 867 1099 1124 1097 b 899 535 1108 860 940 604 b 583 75 781 336 636 136 b 303 210 518 147 407 208 b 290 -118 50 213 -3 -92 b 629 -22 407 -128 532 -90 b 594 -217 651 -92 608 -185 l 686 -179 b 646 -12 690 -122 669 -61 b 1182 706 881 161 1058 514 b 1507 993 1274 850 1415 996 b 1001 -106 1821 982 1479 -165 b 967 171 761 -75 801 156 b 1144 -29 1072 181 1140 78 l 1221 65 b 967 193 1179 146 1068 204 b 996 -133 767 171 739 -100 b 1524 1024 1697 -224 2003 1014 z m 290 -97 b 307 142 83 -85 96 131 b 569 61 401 146 504 117 b 290 -97 499 -24 406 -104 z m 601 -256 l 539 -389 b 842 -196 618 -389 744 -326 b 931 -386 815 -278 844 -372 l 993 -278 b 874 -149 917 -278 842 -244 l 835 -149 b 601 -256 775 -226 668 -276 z "},"Đ":{"ha":1797,"x_min":0,"x_max":0,"o":"m 1524 1024 b 1164 731 1382 1026 1232 835 b 1190 1000 1203 813 1238 922 b 792 1111 1124 1110 903 1121 b 564 533 164 1056 178 554 b 867 744 683 526 821 590 l 772 806 b 564 551 764 676 690 543 b 796 1092 306 567 351 1053 b 1115 982 867 1099 1124 1097 b 899 535 1108 860 940 604 l 838 436 l 613 436 l 589 392 l 810 392 b 583 75 715 246 624 122 b 303 210 518 147 407 208 b 290 -118 50 213 -3 -92 b 629 -22 407 -128 532 -90 b 594 -217 651 -92 608 -185 l 686 -179 b 646 -12 690 -122 669 -61 b 989 390 779 86 892 239 l 1288 390 l 1311 436 l 1018 436 b 1182 706 1081 536 1135 632 b 1507 993 1274 850 1415 996 b 1001 -106 1821 982 1479 -165 b 967 171 761 -75 801 156 b 1144 -29 1072 181 1140 78 l 1221 65 b 967 193 1179 146 1068 204 b 996 -133 767 171 739 -100 b 1524 1024 1697 -224 2003 1014 z m 290 -97 b 307 142 83 -85 96 131 b 569 61 401 146 504 117 b 290 -97 499 -24 406 -104 z "},"Ḍ":{"ha":1797,"x_min":0,"x_max":0,"o":"m 1524 1024 b 1164 731 1382 1026 1232 835 b 1190 1000 1203 813 1238 922 b 792 1111 1124 1110 903 1121 b 564 533 164 1056 178 554 b 867 744 683 526 821 590 l 772 806 b 564 551 764 676 690 543 b 796 1092 306 567 351 1053 b 1115 982 867 1099 1124 1097 b 899 535 1108 860 940 604 b 583 75 781 336 636 136 b 303 210 518 147 407 208 b 290 -118 50 213 -3 -92 b 629 -22 407 -128 532 -90 b 594 -217 651 -92 608 -185 l 686 -179 b 646 -12 690 -122 669 -61 b 1182 706 881 161 1058 514 b 1507 993 1274 850 1415 996 b 1001 -106 1821 982 1479 -165 b 967 171 761 -75 801 156 b 1144 -29 1072 181 1140 78 l 1221 65 b 967 193 1179 146 1068 204 b 996 -133 767 171 739 -100 b 1524 1024 1697 -224 2003 1014 z m 290 -97 b 307 142 83 -85 96 131 b 569 61 401 146 504 117 b 290 -97 499 -24 406 -104 z m 804 -153 b 713 -243 753 -153 713 -193 b 804 -335 713 -294 753 -335 b 893 -243 854 -335 893 -294 b 804 -153 893 -193 854 -153 z "},"Ḏ":{"ha":1797,"x_min":0,"x_max":0,"o":"m 1524 1024 b 1164 731 1382 1026 1232 835 b 1190 1000 1203 813 1238 922 b 792 1111 1124 1110 903 1121 b 564 533 164 1056 178 554 b 867 744 683 526 821 590 l 772 806 b 564 551 764 676 690 543 b 796 1092 306 567 351 1053 b 1115 982 867 1099 1124 1097 b 899 535 1108 860 940 604 b 583 75 781 336 636 136 b 303 210 518 147 407 208 b 290 -118 50 213 -3 -92 b 629 -22 407 -128 532 -90 b 607 -189 647 -78 624 -147 l 603 -189 l 588 -235 l 1044 -235 l 1060 -190 l 663 -189 l 686 -179 b 646 -12 690 -122 669 -61 b 1182 706 881 161 1058 514 b 1507 993 1274 850 1415 996 b 1001 -106 1821 982 1479 -165 b 967 171 761 -75 801 156 b 1144 -29 1072 181 1140 78 l 1221 65 b 967 193 1179 146 1068 204 b 996 -133 767 171 739 -100 b 1524 1024 1697 -224 2003 1014 z m 290 -97 b 307 142 83 -85 96 131 b 569 61 401 146 504 117 b 290 -97 499 -24 406 -104 z "},"Ɖ":{"ha":1797,"x_min":0,"x_max":0,"o":"m 1524 1024 b 1164 731 1382 1026 1232 835 b 1190 1000 1203 813 1238 922 b 792 1111 1124 1110 903 1121 b 564 533 164 1056 178 554 b 867 744 683 526 821 590 l 772 806 b 564 551 764 676 690 543 b 796 1092 306 567 351 1053 b 1115 982 867 1099 1124 1097 b 899 535 1108 860 940 604 l 838 436 l 613 436 l 589 392 l 810 392 b 583 75 715 246 624 122 b 303 210 518 147 407 208 b 290 -118 50 213 -3 -92 b 629 -22 407 -128 532 -90 b 594 -217 651 -92 608 -185 l 686 -179 b 646 -12 690 -122 669 -61 b 989 390 779 86 892 239 l 1288 390 l 1311 436 l 1018 436 b 1182 706 1081 536 1135 632 b 1507 993 1274 850 1415 996 b 1001 -106 1821 982 1479 -165 b 967 171 761 -75 801 156 b 1144 -29 1072 181 1140 78 l 1221 65 b 967 193 1179 146 1068 204 b 996 -133 767 171 739 -100 b 1524 1024 1697 -224 2003 1014 z m 290 -97 b 307 142 83 -85 96 131 b 569 61 401 146 504 117 b 290 -97 499 -24 406 -104 z "},"Ð":{"ha":1797,"x_min":0,"x_max":0,"o":"m 1524 1024 b 1164 731 1382 1026 1232 835 b 1190 1000 1203 813 1238 922 b 792 1111 1124 1110 903 1121 b 564 533 164 1056 178 554 b 867 744 683 526 821 590 l 772 806 b 564 551 764 676 690 543 b 796 1092 306 567 351 1053 b 1115 982 867 1099 1124 1097 b 899 535 1108 860 940 604 l 838 436 l 613 436 l 589 392 l 810 392 b 583 75 715 246 624 122 b 303 210 518 147 407 208 b 290 -118 50 213 -3 -92 b 629 -22 407 -128 532 -90 b 594 -217 651 -92 608 -185 l 686 -179 b 646 -12 690 -122 669 -61 b 989 390 779 86 892 239 l 1288 390 l 1311 436 l 1018 436 b 1182 706 1081 536 1135 632 b 1507 993 1274 850 1415 996 b 1001 -106 1821 982 1479 -165 b 967 171 761 -75 801 156 b 1144 -29 1072 181 1140 78 l 1221 65 b 967 193 1179 146 1068 204 b 996 -133 767 171 739 -100 b 1524 1024 1697 -224 2003 1014 z m 290 -97 b 307 142 83 -85 96 131 b 569 61 401 146 504 117 b 290 -97 499 -24 406 -104 z "},"E":{"ha":1263,"x_min":0,"x_max":0,"o":"m 1306 1011 b 940 958 1186 1053 1017 1032 b 547 1036 836 1004 700 1043 b 392 467 -12 1006 21 486 b 693 672 513 460 633 514 l 604 738 b 392 485 596 608 518 476 b 550 1007 149 499 169 956 b 921 942 685 1024 815 989 b 953 603 842 865 829 697 b 488 169 722 619 450 432 b 860 -114 507 33 622 -118 b 1153 151 1065 -111 1164 29 b 985 321 1146 233 1085 308 b 793 274 924 329 847 317 l 828 142 b 993 281 871 236 928 282 b 1132 146 1075 279 1126 217 b 864 -75 1140 39 1050 -90 b 974 579 514 -47 613 539 b 1015 617 1122 389 1264 614 b 1043 878 971 717 989 806 b 1288 772 1103 842 1204 786 b 1306 1011 1451 744 1503 943 z m 1292 790 b 1056 896 1211 803 1111 860 b 1289 978 1094 956 1201 990 b 1292 790 1472 953 1439 767 z "},"É":{"ha":1263,"x_min":0,"x_max":0,"o":"m 1306 1011 b 940 958 1186 1053 1017 1032 b 547 1036 836 1004 700 1043 b 392 467 -12 1006 21 486 b 693 672 513 460 633 514 l 604 738 b 392 485 596 608 518 476 b 550 1007 149 499 169 956 b 921 942 685 1024 815 989 b 953 603 842 865 829 697 b 488 169 722 619 450 432 b 860 -114 507 33 622 -118 b 1153 151 1065 -111 1164 29 b 985 321 1146 233 1085 308 b 793 274 924 329 847 317 l 828 142 b 993 281 871 236 928 282 b 1132 146 1075 279 1126 217 b 864 -75 1140 39 1050 -90 b 974 579 514 -47 613 539 b 1015 617 1122 389 1264 614 b 1043 878 971 717 989 806 b 1288 772 1103 842 1204 786 b 1306 1011 1451 744 1503 943 z m 1292 790 b 1056 896 1211 803 1111 860 b 1289 978 1094 956 1201 990 b 1292 790 1472 953 1439 767 z m 1521 1222 l 1435 1318 b 1160 1081 1407 1256 1258 1110 l 1168 1064 b 1521 1222 1307 1092 1451 1151 z "},"Ě":{"ha":1263,"x_min":0,"x_max":0,"o":"m 1306 1011 b 940 958 1186 1053 1017 1032 b 547 1036 836 1004 700 1043 b 392 467 -12 1006 21 486 b 693 672 513 460 633 514 l 604 738 b 392 485 596 608 518 476 b 550 1007 149 499 169 956 b 921 942 685 1024 815 989 b 953 603 842 865 829 697 b 488 169 722 619 450 432 b 860 -114 507 33 622 -118 b 1153 151 1065 -111 1164 29 b 985 321 1146 233 1085 308 b 793 274 924 329 847 317 l 828 142 b 993 281 871 236 928 282 b 1132 146 1075 279 1126 217 b 864 -75 1140 39 1050 -90 b 974 579 514 -47 613 539 b 1015 617 1122 389 1264 614 b 1043 878 971 717 989 806 b 1288 772 1103 842 1204 786 b 1306 1011 1451 744 1503 943 z m 1292 790 b 1056 896 1211 803 1111 860 b 1289 978 1094 956 1201 990 b 1292 790 1472 953 1439 767 z m 1493 1165 l 1556 1299 b 1253 1106 1476 1299 1350 1236 b 1164 1296 1279 1188 1250 1282 l 1101 1188 b 1221 1058 1178 1188 1253 1154 l 1260 1058 b 1493 1165 1319 1136 1426 1186 z "},"Ȩ":{"ha":1263,"x_min":0,"x_max":0,"o":"m 1306 1011 b 940 958 1186 1053 1017 1032 b 547 1036 836 1004 700 1043 b 392 467 -12 1006 21 486 b 693 672 513 460 633 514 l 604 738 b 392 485 596 608 518 476 b 550 1007 149 499 169 956 b 921 942 685 1024 815 989 b 953 603 842 865 829 697 b 488 169 722 619 450 432 b 739 -101 503 60 583 -62 l 624 -215 l 628 -235 b 726 -293 688 -218 742 -236 b 543 -403 711 -347 649 -403 l 529 -421 b 849 -283 647 -442 828 -389 b 668 -206 860 -225 807 -171 l 765 -107 b 860 -114 796 -112 826 -114 b 1153 151 1065 -111 1164 29 b 985 321 1146 233 1085 308 b 793 274 924 329 847 317 l 828 142 b 993 281 871 236 928 282 b 1132 146 1075 279 1126 217 b 864 -75 1140 39 1050 -90 b 974 579 514 -47 613 539 b 1015 617 1122 389 1264 614 b 1043 878 971 717 989 806 b 1288 772 1103 842 1204 786 b 1306 1011 1451 744 1503 943 z m 1292 790 b 1056 896 1211 803 1111 860 b 1289 978 1094 956 1201 990 b 1292 790 1472 953 1439 767 z "},"Ê":{"ha":1263,"x_min":0,"x_max":0,"o":"m 1306 1011 b 940 958 1186 1053 1017 1032 b 547 1036 836 1004 700 1043 b 392 467 -12 1006 21 486 b 693 672 513 460 633 514 l 604 738 b 392 485 596 608 518 476 b 550 1007 149 499 169 956 b 921 942 685 1024 815 989 b 953 603 842 865 829 697 b 488 169 722 619 450 432 b 860 -114 507 33 622 -118 b 1153 151 1065 -111 1164 29 b 985 321 1146 233 1085 308 b 793 274 924 329 847 317 l 828 142 b 993 281 871 236 928 282 b 1132 146 1075 279 1126 217 b 864 -75 1140 39 1050 -90 b 974 579 514 -47 613 539 b 1015 617 1122 389 1264 614 b 1043 878 971 717 989 806 b 1288 772 1103 842 1204 786 b 1306 1011 1451 744 1503 943 z m 1292 790 b 1056 896 1211 803 1111 860 b 1289 978 1094 956 1201 990 b 1292 790 1472 953 1439 767 z m 1079 1182 l 1017 1049 b 1319 1242 1096 1049 1222 1111 b 1408 1051 1293 1160 1322 1065 l 1471 1160 b 1351 1289 1394 1160 1319 1193 l 1313 1289 b 1079 1182 1253 1211 1146 1161 z "},"Ế":{"ha":1263,"x_min":0,"x_max":0,"o":"m 1306 1011 b 940 958 1186 1053 1017 1032 b 547 1036 836 1004 700 1043 b 392 467 -12 1006 21 486 b 693 672 513 460 633 514 l 604 738 b 392 485 596 608 518 476 b 550 1007 149 499 169 956 b 921 942 685 1024 815 989 b 953 603 842 865 829 697 b 488 169 722 619 450 432 b 860 -114 507 33 622 -118 b 1153 151 1065 -111 1164 29 b 985 321 1146 233 1085 308 b 793 274 924 329 847 317 l 828 142 b 993 281 871 236 928 282 b 1132 146 1075 279 1126 217 b 864 -75 1140 39 1050 -90 b 974 579 514 -47 613 539 b 1015 617 1122 389 1264 614 b 1043 878 971 717 989 806 b 1288 772 1103 842 1204 786 b 1306 1011 1451 744 1503 943 z m 1292 790 b 1056 896 1211 803 1111 860 b 1289 978 1094 956 1201 990 b 1292 790 1472 953 1439 767 z m 1079 1182 l 1017 1049 b 1319 1242 1096 1049 1222 1111 b 1408 1051 1293 1160 1322 1065 l 1471 1160 b 1351 1289 1394 1160 1319 1193 l 1313 1289 b 1079 1182 1253 1211 1146 1161 z m 1674 1518 l 1588 1614 b 1313 1376 1560 1551 1411 1406 l 1321 1360 b 1674 1518 1460 1388 1604 1447 z "},"Ệ":{"ha":1263,"x_min":0,"x_max":0,"o":"m 1306 1011 b 940 958 1186 1053 1017 1032 b 547 1036 836 1004 700 1043 b 392 467 -12 1006 21 486 b 693 672 513 460 633 514 l 604 738 b 392 485 596 608 518 476 b 550 1007 149 499 169 956 b 921 942 685 1024 815 989 b 953 603 842 865 829 697 b 488 169 722 619 450 432 b 860 -114 507 33 622 -118 b 1153 151 1065 -111 1164 29 b 985 321 1146 233 1085 308 b 793 274 924 329 847 317 l 828 142 b 993 281 871 236 928 282 b 1132 146 1075 279 1126 217 b 864 -75 1140 39 1050 -90 b 974 579 514 -47 613 539 b 1015 617 1122 389 1264 614 b 1043 878 971 717 989 806 b 1288 772 1103 842 1204 786 b 1306 1011 1451 744 1503 943 z m 1292 790 b 1056 896 1211 803 1111 860 b 1289 978 1094 956 1201 990 b 1292 790 1472 953 1439 767 z m 668 -168 b 576 -258 617 -168 576 -208 b 668 -350 576 -310 617 -350 b 757 -258 718 -350 757 -310 b 668 -168 757 -208 718 -168 z m 1079 1182 l 1017 1049 b 1319 1242 1096 1049 1222 1111 b 1408 1051 1293 1160 1322 1065 l 1471 1160 b 1351 1289 1394 1160 1319 1193 l 1313 1289 b 1079 1182 1253 1211 1146 1161 z "},"Ề":{"ha":1263,"x_min":0,"x_max":0,"o":"m 1306 1011 b 940 958 1186 1053 1017 1032 b 547 1036 836 1004 700 1043 b 392 467 -12 1006 21 486 b 693 672 513 460 633 514 l 604 738 b 392 485 596 608 518 476 b 550 1007 149 499 169 956 b 921 942 685 1024 815 989 b 953 603 842 865 829 697 b 488 169 722 619 450 432 b 860 -114 507 33 622 -118 b 1153 151 1065 -111 1164 29 b 985 321 1146 233 1085 308 b 793 274 924 329 847 317 l 828 142 b 993 281 871 236 928 282 b 1132 146 1075 279 1126 217 b 864 -75 1140 39 1050 -90 b 974 579 514 -47 613 539 b 1015 617 1122 389 1264 614 b 1043 878 971 717 989 806 b 1288 772 1103 842 1204 786 b 1306 1011 1451 744 1503 943 z m 1292 790 b 1056 896 1211 803 1111 860 b 1289 978 1094 956 1201 990 b 1292 790 1472 953 1439 767 z m 1079 1182 l 1017 1049 b 1319 1242 1096 1049 1222 1111 b 1408 1051 1293 1160 1322 1065 l 1471 1160 b 1351 1289 1394 1160 1319 1193 l 1313 1289 b 1079 1182 1253 1211 1146 1161 z m 1411 1614 l 1269 1588 b 1483 1360 1339 1447 1428 1388 l 1492 1376 b 1411 1614 1449 1406 1411 1551 z "},"Ể":{"ha":1263,"x_min":0,"x_max":0,"o":"m 1306 1011 b 940 958 1186 1053 1017 1032 b 547 1036 836 1004 700 1043 b 392 467 -12 1006 21 486 b 693 672 513 460 633 514 l 604 738 b 392 485 596 608 518 476 b 550 1007 149 499 169 956 b 921 942 685 1024 815 989 b 953 603 842 865 829 697 b 488 169 722 619 450 432 b 860 -114 507 33 622 -118 b 1153 151 1065 -111 1164 29 b 985 321 1146 233 1085 308 b 793 274 924 329 847 317 l 828 142 b 993 281 871 236 928 282 b 1132 146 1075 279 1126 217 b 864 -75 1140 39 1050 -90 b 974 579 514 -47 613 539 b 1015 617 1122 389 1264 614 b 1043 878 971 717 989 806 b 1288 772 1103 842 1204 786 b 1306 1011 1451 744 1503 943 z m 1292 790 b 1056 896 1211 803 1111 860 b 1289 978 1094 956 1201 990 b 1292 790 1472 953 1439 767 z m 1079 1182 l 1017 1049 b 1319 1242 1096 1049 1222 1111 b 1408 1051 1293 1160 1322 1065 l 1471 1160 b 1351 1289 1394 1160 1319 1193 l 1313 1289 b 1079 1182 1253 1211 1146 1161 z m 1350 1392 l 1360 1378 b 1697 1613 1583 1446 1681 1518 b 1513 1783 1719 1706 1631 1776 l 1507 1763 b 1575 1603 1579 1749 1589 1658 b 1350 1392 1553 1522 1499 1463 z "},"Ễ":{"ha":1263,"x_min":0,"x_max":0,"o":"m 1306 1011 b 940 958 1186 1053 1017 1032 b 547 1036 836 1004 700 1043 b 392 467 -12 1006 21 486 b 693 672 513 460 633 514 l 604 738 b 392 485 596 608 518 476 b 550 1007 149 499 169 956 b 921 942 685 1024 815 989 b 953 603 842 865 829 697 b 488 169 722 619 450 432 b 860 -114 507 33 622 -118 b 1153 151 1065 -111 1164 29 b 985 321 1146 233 1085 308 b 793 274 924 329 847 317 l 828 142 b 993 281 871 236 928 282 b 1132 146 1075 279 1126 217 b 864 -75 1140 39 1050 -90 b 974 579 514 -47 613 539 b 1015 617 1122 389 1264 614 b 1043 878 971 717 989 806 b 1288 772 1103 842 1204 786 b 1306 1011 1451 744 1503 943 z m 1292 790 b 1056 896 1211 803 1111 860 b 1289 978 1094 956 1201 990 b 1292 790 1472 953 1439 767 z m 1079 1182 l 1017 1049 b 1319 1242 1096 1049 1222 1111 b 1408 1051 1293 1160 1322 1065 l 1471 1160 b 1351 1289 1394 1160 1319 1193 l 1313 1289 b 1079 1182 1253 1211 1146 1161 z m 1210 1375 l 1228 1361 b 1329 1413 1254 1404 1283 1413 b 1499 1381 1372 1413 1436 1381 b 1667 1529 1564 1381 1624 1433 l 1649 1542 b 1550 1479 1611 1486 1596 1479 b 1381 1510 1521 1479 1428 1510 b 1210 1375 1304 1510 1239 1460 z "},"Ë":{"ha":1263,"x_min":0,"x_max":0,"o":"m 1306 1011 b 940 958 1186 1053 1017 1032 b 547 1036 836 1004 700 1043 b 392 467 -12 1006 21 486 b 693 672 513 460 633 514 l 604 738 b 392 485 596 608 518 476 b 550 1007 149 499 169 956 b 921 942 685 1024 815 989 b 953 603 842 865 829 697 b 488 169 722 619 450 432 b 860 -114 507 33 622 -118 b 1153 151 1065 -111 1164 29 b 985 321 1146 233 1085 308 b 793 274 924 329 847 317 l 828 142 b 993 281 871 236 928 282 b 1132 146 1075 279 1126 217 b 864 -75 1140 39 1050 -90 b 974 579 514 -47 613 539 b 1015 617 1122 389 1264 614 b 1043 878 971 717 989 806 b 1288 772 1103 842 1204 786 b 1306 1011 1451 744 1503 943 z m 1292 790 b 1056 896 1211 803 1111 860 b 1289 978 1094 956 1201 990 b 1292 790 1472 953 1439 767 z m 1193 1063 b 1285 1153 1244 1063 1285 1103 b 1193 1244 1285 1204 1244 1244 b 1104 1153 1143 1244 1104 1204 b 1193 1063 1104 1103 1143 1063 z m 1415 1063 b 1507 1153 1467 1063 1507 1103 b 1415 1244 1507 1204 1467 1244 b 1326 1153 1365 1244 1326 1204 b 1415 1063 1326 1103 1365 1063 z "},"Ė":{"ha":1263,"x_min":0,"x_max":0,"o":"m 1306 1011 b 940 958 1186 1053 1017 1032 b 547 1036 836 1004 700 1043 b 392 467 -12 1006 21 486 b 693 672 513 460 633 514 l 604 738 b 392 485 596 608 518 476 b 550 1007 149 499 169 956 b 921 942 685 1024 815 989 b 953 603 842 865 829 697 b 488 169 722 619 450 432 b 860 -114 507 33 622 -118 b 1153 151 1065 -111 1164 29 b 985 321 1146 233 1085 308 b 793 274 924 329 847 317 l 828 142 b 993 281 871 236 928 282 b 1132 146 1075 279 1126 217 b 864 -75 1140 39 1050 -90 b 974 579 514 -47 613 539 b 1015 617 1122 389 1264 614 b 1043 878 971 717 989 806 b 1288 772 1103 842 1204 786 b 1306 1011 1451 744 1503 943 z m 1292 790 b 1056 896 1211 803 1111 860 b 1289 978 1094 956 1201 990 b 1292 790 1472 953 1439 767 z m 1290 1063 b 1382 1153 1342 1063 1382 1103 b 1290 1244 1382 1204 1342 1244 b 1201 1153 1240 1244 1201 1204 b 1290 1063 1201 1103 1240 1063 z "},"Ẹ":{"ha":1263,"x_min":0,"x_max":0,"o":"m 1306 1011 b 940 958 1186 1053 1017 1032 b 547 1036 836 1004 700 1043 b 392 467 -12 1006 21 486 b 693 672 513 460 633 514 l 604 738 b 392 485 596 608 518 476 b 550 1007 149 499 169 956 b 921 942 685 1024 815 989 b 953 603 842 865 829 697 b 488 169 722 619 450 432 b 860 -114 507 33 622 -118 b 1153 151 1065 -111 1164 29 b 985 321 1146 233 1085 308 b 793 274 924 329 847 317 l 828 142 b 993 281 871 236 928 282 b 1132 146 1075 279 1126 217 b 864 -75 1140 39 1050 -90 b 974 579 514 -47 613 539 b 1015 617 1122 389 1264 614 b 1043 878 971 717 989 806 b 1288 772 1103 842 1204 786 b 1306 1011 1451 744 1503 943 z m 1292 790 b 1056 896 1211 803 1111 860 b 1289 978 1094 956 1201 990 b 1292 790 1472 953 1439 767 z m 668 -168 b 576 -258 617 -168 576 -208 b 668 -350 576 -310 617 -350 b 757 -258 718 -350 757 -310 b 668 -168 757 -208 718 -168 z "},"È":{"ha":1263,"x_min":0,"x_max":0,"o":"m 1306 1011 b 940 958 1186 1053 1017 1032 b 547 1036 836 1004 700 1043 b 392 467 -12 1006 21 486 b 693 672 513 460 633 514 l 604 738 b 392 485 596 608 518 476 b 550 1007 149 499 169 956 b 921 942 685 1024 815 989 b 953 603 842 865 829 697 b 488 169 722 619 450 432 b 860 -114 507 33 622 -118 b 1153 151 1065 -111 1164 29 b 985 321 1146 233 1085 308 b 793 274 924 329 847 317 l 828 142 b 993 281 871 236 928 282 b 1132 146 1075 279 1126 217 b 864 -75 1140 39 1050 -90 b 974 579 514 -47 613 539 b 1015 617 1122 389 1264 614 b 1043 878 971 717 989 806 b 1288 772 1103 842 1204 786 b 1306 1011 1451 744 1503 943 z m 1292 790 b 1056 896 1211 803 1111 860 b 1289 978 1094 956 1201 990 b 1292 790 1472 953 1439 767 z m 1258 1318 l 1117 1292 b 1331 1064 1186 1151 1275 1092 l 1339 1081 b 1258 1318 1296 1110 1258 1256 z "},"Ẻ":{"ha":1263,"x_min":0,"x_max":0,"o":"m 1306 1011 b 940 958 1186 1053 1017 1032 b 547 1036 836 1004 700 1043 b 392 467 -12 1006 21 486 b 693 672 513 460 633 514 l 604 738 b 392 485 596 608 518 476 b 550 1007 149 499 169 956 b 921 942 685 1024 815 989 b 953 603 842 865 829 697 b 488 169 722 619 450 432 b 860 -114 507 33 622 -118 b 1153 151 1065 -111 1164 29 b 985 321 1146 233 1085 308 b 793 274 924 329 847 317 l 828 142 b 993 281 871 236 928 282 b 1132 146 1075 279 1126 217 b 864 -75 1140 39 1050 -90 b 974 579 514 -47 613 539 b 1015 617 1122 389 1264 614 b 1043 878 971 717 989 806 b 1288 772 1103 842 1204 786 b 1306 1011 1451 744 1503 943 z m 1292 790 b 1056 896 1211 803 1111 860 b 1289 978 1094 956 1201 990 b 1292 790 1472 953 1439 767 z m 1197 1096 l 1207 1082 b 1544 1317 1431 1150 1528 1222 b 1360 1488 1567 1410 1478 1481 l 1354 1467 b 1422 1307 1426 1453 1436 1363 b 1197 1096 1400 1226 1346 1167 z "},"Ē":{"ha":1263,"x_min":0,"x_max":0,"o":"m 1306 1011 b 940 958 1186 1053 1017 1032 b 547 1036 836 1004 700 1043 b 392 467 -12 1006 21 486 b 693 672 513 460 633 514 l 604 738 b 392 485 596 608 518 476 b 550 1007 149 499 169 956 b 921 942 685 1024 815 989 b 953 603 842 865 829 697 b 488 169 722 619 450 432 b 860 -114 507 33 622 -118 b 1153 151 1065 -111 1164 29 b 985 321 1146 233 1085 308 b 793 274 924 329 847 317 l 828 142 b 993 281 871 236 928 282 b 1132 146 1075 279 1126 217 b 864 -75 1140 39 1050 -90 b 974 579 514 -47 613 539 b 1015 617 1122 389 1264 614 b 1043 878 971 717 989 806 b 1288 772 1103 842 1204 786 b 1306 1011 1451 744 1503 943 z m 1292 790 b 1056 896 1211 803 1111 860 b 1289 978 1094 956 1201 990 b 1292 790 1472 953 1439 767 z m 1507 1144 l 1050 1144 l 1035 1100 l 1492 1099 z "},"Ę":{"ha":1263,"x_min":0,"x_max":0,"o":"m 1306 1011 b 940 958 1186 1053 1017 1032 b 547 1036 836 1004 700 1043 b 392 467 -12 1006 21 486 b 693 672 513 460 633 514 l 604 738 b 392 485 596 608 518 476 b 550 1007 149 499 169 956 b 921 942 685 1024 815 989 b 953 603 842 865 829 697 b 488 169 722 619 450 432 b 836 -114 507 38 614 -107 b 574 -324 665 -175 589 -239 b 758 -494 551 -417 640 -487 l 764 -474 b 696 -314 692 -460 682 -369 b 904 -111 717 -237 767 -179 b 1153 151 1081 -90 1163 39 b 985 321 1146 233 1085 308 b 793 274 924 329 847 317 l 828 142 b 993 281 871 236 928 282 b 1132 146 1075 279 1126 217 b 864 -75 1140 39 1050 -90 b 974 579 514 -47 613 539 b 1015 617 1122 389 1264 614 b 1043 878 971 717 989 806 b 1288 772 1103 842 1204 786 b 1306 1011 1451 744 1503 943 z m 1292 790 b 1056 896 1211 803 1111 860 b 1289 978 1094 956 1201 990 b 1292 790 1472 953 1439 767 z "},"Ɛ":{"ha":1263,"x_min":0,"x_max":0,"o":"m 1306 1011 b 940 958 1186 1053 1017 1032 b 547 1036 836 1004 700 1043 b 392 467 -12 1006 21 486 b 693 672 513 460 633 514 l 604 738 b 392 485 596 608 518 476 b 550 1007 149 499 169 956 b 921 942 685 1024 815 989 b 953 603 842 865 829 697 b 488 169 722 619 450 432 b 860 -114 507 33 622 -118 b 1153 151 1065 -111 1164 29 b 985 321 1146 233 1085 308 b 793 274 924 329 847 317 l 828 142 b 993 281 871 236 928 282 b 1132 146 1075 279 1126 217 b 864 -75 1140 39 1050 -90 b 974 579 514 -47 613 539 b 1015 617 1122 389 1264 614 b 1043 878 971 717 989 806 b 1288 772 1103 842 1204 786 b 1306 1011 1451 744 1503 943 z m 1292 790 b 1056 896 1211 803 1111 860 b 1289 978 1094 956 1201 990 b 1292 790 1472 953 1439 767 z "},"Ʃ":{"ha":1263,"x_min":0,"x_max":0,"o":"m 1306 1011 b 940 958 1186 1053 1017 1032 b 547 1036 836 1004 700 1043 b 392 467 -12 1006 21 486 b 693 672 513 460 633 514 l 604 738 b 392 485 596 608 518 476 b 550 1007 149 499 169 956 b 921 942 685 1024 815 989 b 953 603 842 865 829 697 b 488 169 722 619 450 432 b 860 -114 507 33 622 -118 b 1153 151 1065 -111 1164 29 b 985 321 1146 233 1085 308 b 793 274 924 329 847 317 l 828 142 b 993 281 871 236 928 282 b 1132 146 1075 279 1126 217 b 864 -75 1140 39 1050 -90 b 974 579 514 -47 613 539 b 1015 617 1122 389 1264 614 b 1043 878 971 717 989 806 b 1288 772 1103 842 1204 786 b 1306 1011 1451 744 1503 943 z m 1292 790 b 1056 896 1211 803 1111 860 b 1289 978 1094 956 1201 990 b 1292 790 1472 953 1439 767 z "},"Ẽ":{"ha":1263,"x_min":0,"x_max":0,"o":"m 1306 1011 b 940 958 1186 1053 1017 1032 b 547 1036 836 1004 700 1043 b 392 467 -12 1006 21 486 b 693 672 513 460 633 514 l 604 738 b 392 485 596 608 518 476 b 550 1007 149 499 169 956 b 921 942 685 1024 815 989 b 953 603 842 865 829 697 b 488 169 722 619 450 432 b 860 -114 507 33 622 -118 b 1153 151 1065 -111 1164 29 b 985 321 1146 233 1085 308 b 793 274 924 329 847 317 l 828 142 b 993 281 871 236 928 282 b 1132 146 1075 279 1126 217 b 864 -75 1140 39 1050 -90 b 974 579 514 -47 613 539 b 1015 617 1122 389 1264 614 b 1043 878 971 717 989 806 b 1288 772 1103 842 1204 786 b 1306 1011 1451 744 1503 943 z m 1292 790 b 1056 896 1211 803 1111 860 b 1289 978 1094 956 1201 990 b 1292 790 1472 953 1439 767 z m 1057 1079 l 1075 1065 b 1176 1117 1101 1108 1131 1117 b 1346 1085 1219 1117 1283 1085 b 1514 1233 1411 1085 1471 1138 l 1496 1246 b 1397 1183 1458 1190 1443 1183 b 1228 1214 1368 1183 1275 1214 b 1057 1079 1151 1214 1086 1164 z "},"Ǝ":{"ha":1263,"x_min":0,"x_max":0,"o":"m 214 -36 b 579 17 333 -78 503 -57 b 972 -61 683 -29 819 -68 b 1128 508 1532 -31 1499 489 b 826 303 1007 515 886 461 l 915 238 b 1128 490 924 367 1001 499 b 969 -32 1371 476 1350 19 b 599 33 835 -49 704 -14 b 567 372 678 110 690 278 b 1032 806 797 356 1069 543 b 660 1089 1013 942 897 1093 b 367 824 454 1086 356 946 b 535 654 374 742 435 667 b 726 701 596 646 672 658 l 692 833 b 526 694 649 739 592 693 b 388 829 444 696 393 758 b 656 1050 379 936 469 1065 b 546 396 1006 1022 907 436 b 504 358 397 586 256 361 b 476 97 549 258 531 169 b 232 203 417 133 315 189 b 214 -36 68 231 17 32 z m 228 185 b 464 79 308 172 408 115 b 231 -3 425 19 318 -15 b 228 185 47 22 81 208 z "},"Ə":{"ha":1501,"x_min":0,"x_max":0,"o":"m 282 -12 b 753 42 410 -64 614 -51 b 1249 -64 906 -21 1054 -74 b 1413 507 1810 -37 1782 489 b 1111 303 1292 515 1171 460 l 1200 236 b 1411 489 1208 365 1286 499 b 1246 -18 1654 475 1625 46 b 778 57 1085 -44 929 -1 b 1089 901 1099 290 1222 675 b 488 1003 978 1089 647 1168 b 514 614 375 888 375 692 b 818 629 606 563 735 563 l 782 779 b 528 643 731 671 629 601 b 504 981 401 694 401 875 b 981 865 647 1128 919 1090 b 682 107 1046 621 885 261 b 342 210 600 140 431 208 b 282 -12 160 215 139 44 z m 343 183 b 660 86 436 179 574 122 b 294 10 564 7 406 -32 b 343 183 172 56 178 190 z "},"Ʒ":{"ha":1263,"x_min":0,"x_max":0,"o":"m 214 -36 b 579 17 333 -78 503 -57 b 972 -61 683 -29 819 -68 b 1128 508 1532 -31 1499 489 b 826 303 1007 515 886 461 l 915 238 b 1128 490 924 367 1001 499 b 969 -32 1371 476 1350 19 b 599 33 835 -49 704 -14 b 567 372 678 110 690 278 b 1032 806 797 356 1069 543 b 660 1089 1013 942 897 1093 b 367 824 454 1086 356 946 b 535 654 374 742 435 667 b 726 701 596 646 672 658 l 692 833 b 526 694 649 739 592 693 b 388 829 444 696 393 758 b 656 1050 379 936 469 1065 b 546 396 1006 1022 907 436 b 504 358 397 586 256 361 b 476 97 549 258 531 169 b 232 203 417 133 315 189 b 214 -36 68 231 17 32 z m 228 185 b 464 79 308 172 408 115 b 231 -3 425 19 318 -15 b 228 185 47 22 81 208 z "},"Ǯ":{"ha":1263,"x_min":0,"x_max":0,"o":"m 214 -36 b 579 17 333 -78 503 -57 b 972 -61 683 -29 819 -68 b 1128 508 1532 -31 1499 489 b 826 303 1007 515 886 461 l 915 238 b 1128 490 924 367 1001 499 b 969 -32 1371 476 1350 19 b 599 33 835 -49 704 -14 b 567 372 678 110 690 278 b 1032 806 797 356 1069 543 b 660 1089 1013 942 897 1093 b 367 824 454 1086 356 946 b 535 654 374 742 435 667 b 726 701 596 646 672 658 l 692 833 b 526 694 649 739 592 693 b 388 829 444 696 393 758 b 656 1050 379 936 469 1065 b 546 396 1006 1022 907 436 b 504 358 397 586 256 361 b 476 97 549 258 531 169 b 232 203 417 133 315 189 b 214 -36 68 231 17 32 z m 228 185 b 464 79 308 172 408 115 b 231 -3 425 19 318 -15 b 228 185 47 22 81 208 z m 1054 1246 l 1117 1379 b 814 1186 1038 1379 911 1317 b 725 1376 840 1268 811 1363 l 663 1268 b 782 1139 739 1268 814 1235 l 821 1139 b 1054 1246 881 1217 988 1267 z "},"F":{"ha":1328,"x_min":0,"x_max":0,"o":"m 1846 1076 l 1731 1139 b 408 950 1517 794 846 1247 b 540 472 168 786 253 486 b 842 676 661 464 782 519 l 753 743 b 542 490 746 614 668 481 b 467 903 365 501 332 744 b 1144 1003 607 1069 878 1042 b 885 539 1067 853 978 694 b 756 333 763 536 732 440 b 578 78 697 244 639 158 b 300 207 513 150 417 208 b 289 -122 68 206 -4 -93 b 635 -24 392 -133 532 -115 b 600 -217 658 -93 615 -185 l 693 -179 b 651 -12 696 -122 675 -61 b 1024 485 772 81 893 258 b 1375 460 1142 444 1271 386 l 1324 567 b 1040 514 1265 458 1153 486 b 1297 981 1121 654 1206 813 b 1846 1076 1533 947 1749 935 z m 294 -96 b 313 142 88 -83 103 131 b 568 61 407 146 503 117 b 294 -96 494 -29 410 -103 z m 771 357 b 869 514 758 436 783 503 z "},"G":{"ha":1565,"x_min":0,"x_max":0,"o":"m 1800 1096 b 1001 228 1535 1053 1353 160 b 1119 986 719 283 872 788 b 1461 879 1201 953 1372 882 b 1519 1103 1642 875 1663 1044 b 1057 1043 1369 1164 1196 1129 b 293 1088 851 1128 508 1175 b 351 561 -29 954 39 578 b 653 767 471 554 593 608 l 550 856 b 351 579 542 726 478 571 b 351 1025 151 592 136 886 b 1036 1028 532 1140 847 1101 b 944 194 672 769 547 276 b 1331 404 1121 158 1233 260 b 460 -314 1124 18 860 -368 b 236 17 282 -276 215 -124 b 507 286 258 161 356 290 b 776 -135 701 281 818 61 l 892 -14 b 506 307 867 174 707 299 b 72 17 246 318 93 172 b 457 -335 53 -135 171 -294 b 1550 490 1029 -414 1306 -46 b 1803 1082 1696 808 1801 1082 b 1821 994 1824 1082 1819 1011 l 1878 1072 b 1800 1096 1858 1086 1826 1100 z m 1508 1081 b 1458 906 1631 1033 1624 899 b 1142 1007 1365 910 1228 971 b 1508 1081 1235 1083 1396 1122 z "}}}
